<svg xmlns="http://www.w3.org/2000/svg" xmlns:xlink="http://www.w3.org/1999/xlink" width="6.043" height="10.175" viewBox="0 0 6.043 10.175">
  <defs>
    <clipPath id="clip-path">
      <rect id="Rectangle_23" data-name="Rectangle 23" width="10.175" height="6.043" fill="#18223b"/>
    </clipPath>
  </defs>
  <g id="Group_13" data-name="Group 13" transform="translate(6.043) rotate(90)">
    <g id="Group_12" data-name="Group 12" transform="translate(0 0)" clip-path="url(#clip-path)">
      <path id="Path_18" data-name="Path 18" d="M8.541,5.762,5.085,2.311,1.632,5.765a.959.959,0,0,1-1.353,0,.957.957,0,0,1,0-1.353L4.405.281A.95.95,0,0,1,5.08,0a.971.971,0,0,1,.659.26L9.893,4.406a.958.958,0,0,1,0,1.353.957.957,0,0,1-1.354,0" transform="translate(0.001 0)" fill="#18223b"/>
    </g>
  </g>
</svg>
