<svg width="164" height="220" viewBox="0 0 164 220" fill="none" xmlns="http://www.w3.org/2000/svg">
<rect x="17.625" width="124" height="219" fill="url(#paint0_linear_558_4120)"/>
<path d="M56.4454 126.827C56.4453 103.438 56.4453 89.1335 56.4454 84.9062" stroke="#FF5471" stroke-width="1.0125"/>
<path d="M112.996 126.827C112.996 103.438 112.996 89.1335 112.996 84.9062" stroke="#FF5471" stroke-width="1.0125"/>
<path d="M147.156 118.286C148.71 118.286 150.1 118.47 151.324 118.843H151.323C152.57 119.214 153.662 119.773 154.598 120.52H154.599C155.561 121.241 156.35 122.123 156.964 123.165L157.056 123.321L156.927 123.449L153.568 126.769L153.364 126.971L153.209 126.729C152.7 125.94 152.13 125.296 151.502 124.793L151.497 124.79C150.867 124.261 150.189 123.872 149.463 123.621L149.456 123.619C148.728 123.343 147.962 123.204 147.156 123.204C146.241 123.204 145.45 123.33 144.779 123.578L144.78 123.579C144.136 123.827 143.639 124.182 143.278 124.639L143.274 124.644C142.923 125.065 142.743 125.583 142.743 126.212C142.743 126.696 142.852 127.125 143.064 127.504C143.281 127.863 143.584 128.191 143.978 128.486C144.397 128.781 144.933 129.044 145.593 129.272C146.258 129.503 147.015 129.708 147.865 129.889C149.308 130.177 150.612 130.572 151.773 131.073H151.774C152.936 131.549 153.933 132.132 154.761 132.825C155.592 133.495 156.226 134.276 156.659 135.168L156.812 135.498C157.144 136.281 157.309 137.145 157.309 138.084C157.309 139.919 156.869 141.514 155.981 142.859L155.98 142.858C155.121 144.174 153.901 145.191 152.33 145.91L152.327 145.912C150.756 146.605 148.926 146.946 146.844 146.946C145.237 146.946 143.756 146.749 142.404 146.352L142.4 146.351C141.048 145.926 139.827 145.302 138.737 144.479C137.651 143.657 136.685 142.664 135.839 141.501L135.729 141.35L135.853 141.209L139.172 137.46L139.365 137.242L139.536 137.479C140.802 139.235 142.027 140.429 143.208 141.082C144.394 141.738 145.734 142.067 147.234 142.067C148.097 142.067 148.877 141.941 149.577 141.69C150.277 141.415 150.814 141.057 151.199 140.623C151.579 140.17 151.766 139.665 151.766 139.099C151.766 138.689 151.681 138.321 151.517 137.992L151.513 137.984L151.509 137.975C151.368 137.622 151.144 137.314 150.833 137.051L150.825 137.045L150.983 136.873L150.825 137.044C150.505 136.748 150.105 136.473 149.625 136.221C149.146 135.969 148.601 135.753 147.989 135.574C147.372 135.394 146.689 135.225 145.939 135.07V135.071C144.495 134.782 143.229 134.401 142.143 133.924L142.139 133.922C141.051 133.418 140.13 132.805 139.38 132.081L139.377 132.078C138.627 131.328 138.074 130.494 137.723 129.576V129.574C137.373 128.633 137.2 127.576 137.2 126.407C137.2 125.227 137.455 124.136 137.968 123.138L137.97 123.134C138.506 122.142 139.23 121.284 140.139 120.562C141.047 119.841 142.1 119.282 143.295 118.884C144.492 118.485 145.78 118.286 147.156 118.286Z" fill="#FF5471" stroke="#6F0002" stroke-width="0.466332"/>
<path d="M115.787 125.51L113.375 137.223L127.354 127.962L127.435 127.908L134.326 129.326L133.843 129.636L120.212 138.378L128.837 156.198L129.042 156.624L122.422 155.261L122.372 155.155L115.792 141.213L112.061 143.606L110.181 152.741L104.752 151.623L110.358 124.392L115.787 125.51Z" fill="#FF5471" stroke="#6F0002" stroke-width="0.466332"/>
<path d="M89.8242 118.759C91.5017 118.759 93.0378 119.159 94.4277 119.96C95.8158 120.734 96.9129 121.804 97.7148 123.165L97.8662 123.418C98.597 124.696 98.9609 126.125 98.9609 127.7C98.9609 129.305 98.5461 130.792 97.7168 132.156L97.7158 132.155C96.9139 133.491 95.8182 134.56 94.4316 135.36L94.4307 135.361C94.2515 135.463 94.0688 135.558 93.8838 135.646L100.022 146.249L100.227 146.602L99.8193 146.6L93.8057 146.561L93.6709 146.56L93.6045 146.441L88.0186 136.524H83.1455V146.561H77.7197V118.759H89.8242ZM83.1455 131.646H89.8633C90.5814 131.646 91.1871 131.485 91.6904 131.174C92.2263 130.833 92.6405 130.371 92.9346 129.783C93.2295 129.193 93.3789 128.539 93.3789 127.817C93.3789 126.995 93.1928 126.297 92.8291 125.715C92.4624 125.128 91.9479 124.661 91.2793 124.314C90.6142 123.97 89.8443 123.794 88.9648 123.794H83.1455V131.646Z" fill="#FF5471" stroke="#6F0002" stroke-width="0.466332"/>
<path d="M56.4521 126.591C58.4587 126.591 60.3124 126.948 62.0098 127.664C63.7045 128.379 65.1768 129.385 66.4229 130.685C67.6682 131.983 68.6338 133.506 69.3213 135.251L69.4463 135.575C70.0518 137.21 70.3535 138.993 70.3535 140.921C70.3535 142.952 70.0098 144.843 69.3213 146.591C68.6339 148.336 67.6682 149.859 66.4229 151.157C65.1768 152.456 63.7045 153.464 62.0098 154.179C60.3125 154.895 58.4587 155.251 56.4521 155.251C54.4712 155.251 52.6305 154.895 50.9336 154.179C49.2406 153.464 47.7576 152.471 46.4863 151.2L46.4824 151.196C45.2371 149.898 44.2714 148.375 43.584 146.63C42.8954 144.882 42.5518 142.978 42.5518 140.921C42.5518 138.864 42.8954 136.961 43.584 135.213C44.2716 133.467 45.2379 131.957 46.4844 130.684C47.7558 129.386 49.2396 128.379 50.9336 127.664C52.6305 126.948 54.4712 126.591 56.4521 126.591ZM56.4521 131.899C55.2595 131.899 54.1603 132.128 53.1514 132.582L53.1465 132.584C52.136 133.013 51.2653 133.632 50.5332 134.439C49.7995 135.249 49.2291 136.2 48.8223 137.293C48.4167 138.383 48.2119 139.591 48.2119 140.921C48.2119 142.223 48.4153 143.433 48.8213 144.55H48.8223C49.2291 145.643 49.7994 146.594 50.5332 147.403C51.2661 148.212 52.1382 148.843 53.1504 149.299C54.1594 149.727 55.259 149.943 56.4521 149.943C57.6726 149.943 58.7723 149.727 59.7539 149.3L60.127 149.12C60.9822 148.683 61.7306 148.111 62.3721 147.403C63.1062 146.567 63.6764 145.603 64.083 144.511L64.085 144.506C64.5156 143.416 64.7324 142.222 64.7324 140.921C64.7324 139.62 64.5156 138.425 64.085 137.336L64.083 137.332C63.6762 136.239 63.1058 135.288 62.3721 134.479L62.3691 134.476C61.637 133.643 60.7675 133.013 59.7588 132.584L59.752 132.581C58.7708 132.128 57.6719 131.899 56.4521 131.899Z" fill="#FF5471" stroke="#6F0002" stroke-width="0.466332"/>
<path d="M6.11719 118.759L6.16699 118.925L11.0078 135.05L11.125 135.437C11.2388 135.832 11.3449 136.257 11.4434 136.71C11.5231 137.077 11.596 137.444 11.666 137.811C11.7939 137.289 11.9064 136.84 12.0049 136.466L12.0068 136.459C12.1639 135.935 12.3219 135.449 12.4795 135.003L12.4824 134.996L17.0898 123.203L17.1475 123.055H21.8027L21.8594 123.205L26.3506 134.998L26.3516 135.002C26.6126 135.733 26.8484 136.439 27.0576 137.118L27.1924 137.563C27.2431 137.295 27.307 136.994 27.3896 136.664L27.3926 136.655L27.6064 135.906C27.6843 135.627 27.7685 135.319 27.8594 134.981L27.8613 134.975L32.665 118.926L32.7148 118.759H38.4766L38.3818 119.062L29.8301 146.396L29.7793 146.561H25.7822L25.7217 146.417L19.2617 130.955L13.0723 146.414L13.0137 146.561H8.97363L8.92285 146.396L0.410156 119.062L0.316406 118.759H6.11719Z" fill="#FF5471" stroke="#6F0002" stroke-width="0.466332"/>
<path d="M130.023 60.3096L130.092 60.4209L138.443 74.0127L146.916 60.4199L146.984 60.3096H151.916V88.1113H146.412V77.6074C146.412 75.2613 146.464 73.1481 146.568 71.2686L146.569 71.2656C146.6 70.8193 146.636 70.3736 146.676 69.9287L139.773 80.585L139.704 80.6914H136.872L136.803 80.583L130.09 69.9697C130.118 70.3346 130.144 70.7014 130.165 71.0703L130.211 71.7725C130.311 73.4497 130.36 75.3949 130.36 77.6074V88.1113H124.856V60.3096H130.023Z" fill="#FF5471" stroke="#6F0002" stroke-width="0.466332"/>
<path d="M108.015 60.3096L108.072 60.459L118.654 87.7939L118.777 88.1113H113.004L112.947 87.96L110.649 81.8633H100.04L97.7246 87.9609L97.667 88.1113H92.0889L92.2129 87.793L102.873 60.458L102.931 60.3096H108.015ZM104.873 68.7393C104.638 69.4437 104.404 70.1228 104.169 70.7754C103.961 71.4244 103.766 72.0095 103.584 72.5303L103.582 72.5361L101.893 76.9844H108.811L107.093 72.4258L106.854 71.8115C106.763 71.5619 106.658 71.2674 106.541 70.9287L106.538 70.9209C106.33 70.2461 106.097 69.5188 105.837 68.7393L105.836 68.7373C105.667 68.2123 105.509 67.7143 105.361 67.2441C105.205 67.7284 105.044 68.2276 104.873 68.7393Z" fill="#FF5471" stroke="#6F0002" stroke-width="0.466332"/>
<path d="M86.8486 60.3096V65.3838H73.9619V71.4004H84.8574V76.3965H73.9619V83.0371H87.0049V88.1113H68.4971V60.3096H86.8486Z" fill="#FF5471" stroke="#6F0002" stroke-width="0.466332"/>
<path d="M51.0312 60.3096C52.7087 60.3096 54.2448 60.7097 55.6348 61.5107C57.0229 62.2849 58.12 63.3544 58.9219 64.7158L59.0732 64.9688C59.804 66.2464 60.1679 67.6756 60.168 69.251C60.168 70.8554 59.7532 72.3426 58.9238 73.707L58.9229 73.7061C58.1209 75.0422 57.0252 76.1111 55.6387 76.9111L55.6377 76.9121C55.4586 77.014 55.2758 77.1088 55.0908 77.1973L61.2295 87.7998L61.4336 88.1523L61.0264 88.1504L55.0127 88.1113L54.8779 88.1104L54.8115 87.9922L49.2256 78.0752H44.3525V88.1113H38.9268V60.3096H51.0312ZM44.3525 73.1963H51.0703C51.7884 73.1963 52.3941 73.0355 52.8975 72.7246C53.4333 72.3836 53.8475 71.9219 54.1416 71.334C54.4365 70.7441 54.5859 70.0899 54.5859 69.3682C54.5859 68.5454 54.3998 67.8475 54.0361 67.2656C53.6694 66.6789 53.1549 66.212 52.4863 65.8652C51.8213 65.5204 51.0513 65.3447 50.1719 65.3447H44.3525V73.1963Z" fill="#FF5471" stroke="#6F0002" stroke-width="0.466332"/>
<path d="M18.2461 60.3096C20.2495 60.3096 22.0631 60.6393 23.6826 61.3027C25.3262 61.9655 26.735 62.9214 27.9043 64.1699L28.125 64.4062C29.2102 65.6019 30.0382 66.995 30.6094 68.583L30.7246 68.9033C31.2833 70.5142 31.5615 72.2838 31.5615 74.21C31.5615 76.2636 31.2442 78.1518 30.6094 79.8721L30.6104 79.873C30.0015 81.5672 29.1135 83.0401 27.9453 84.2881L27.9434 84.29C26.7739 85.5127 25.3658 86.4556 23.7227 87.1182C22.0773 87.7816 20.2504 88.1113 18.2461 88.1113H7.04004V60.3096H18.2461ZM12.583 82.959H18.0508C19.3011 82.959 20.4026 82.755 21.3584 82.3525L21.3604 82.3516C22.3446 81.9478 23.1742 81.3689 23.8525 80.6152C24.5319 79.8604 25.05 78.9515 25.4053 77.8857C25.7607 76.7935 25.9404 75.5688 25.9404 74.21C25.9404 72.8507 25.7604 71.6396 25.4053 70.5742V70.5732C25.0503 69.483 24.5197 68.5632 23.8164 67.8096L23.8135 67.8057C23.1341 67.0509 22.3166 66.4718 21.3584 66.0684C20.4026 65.6659 19.3011 65.4619 18.0508 65.4619H12.583V82.959Z" fill="#FF5471" stroke="#6F0002" stroke-width="0.466332"/>
<defs>
<linearGradient id="paint0_linear_558_4120" x1="79.625" y1="0" x2="79.625" y2="219" gradientUnits="userSpaceOnUse">
<stop stop-color="#580045"/>
<stop offset="1"/>
</linearGradient>
</defs>
</svg>
