<svg width="270" height="220" viewBox="0 0 270 220" fill="none" xmlns="http://www.w3.org/2000/svg">
<path d="M157.189 63V42.6906H161.541V63H157.189ZM144.394 63V42.6906H148.746V63H144.394ZM146.135 54.8472L146.164 50.9014H159.423V54.8472H146.135ZM167.995 63V42.6906H181.718V46.5204H172.231V59.1702H181.921V63H167.995ZM170.026 54.4991V50.7854H180.325V54.4991H170.026ZM199.641 63L193.346 53.8898L185.28 42.6906H190.618L196.769 51.6848L204.98 63H199.641ZM185.135 63L192.881 51.9459L196.189 54.238L190.183 63H185.135ZM197.233 53.5706L193.955 51.3656L199.641 42.6906H204.69L197.233 53.5706ZM206.583 63L214.532 42.6906H218.42L226.341 63H221.873L217.782 52.062C217.666 51.7525 217.521 51.356 217.347 50.8724C217.192 50.3888 217.028 49.8763 216.853 49.3347C216.679 48.7931 216.515 48.2805 216.36 47.797C216.205 47.2941 216.089 46.8782 216.012 46.5494L216.795 46.5204C216.679 46.9653 216.544 47.4295 216.389 47.913C216.254 48.3773 216.109 48.8608 215.954 49.3637C215.799 49.8473 215.635 50.3212 215.461 50.7854C215.287 51.2496 215.122 51.7041 214.968 52.149L210.877 63H206.583ZM210.267 58.735L211.689 55.2244H221.002L222.453 58.735H210.267ZM230.353 63V42.6906H239.347C240.604 42.6906 241.746 42.9808 242.771 43.561C243.796 44.122 244.599 44.886 245.179 45.8531C245.779 46.8202 246.078 47.9227 246.078 49.1606C246.078 50.3792 245.779 51.4914 245.179 52.4972C244.599 53.4836 243.796 54.267 242.771 54.8472C241.746 55.4275 240.604 55.7176 239.347 55.7176H234.56V63H230.353ZM241.871 63L236.707 53.8318L241.175 53.1064L246.92 63.029L241.871 63ZM234.56 52.178H239.144C239.666 52.178 240.121 52.062 240.508 51.8298C240.914 51.5784 241.223 51.2399 241.436 50.8144C241.649 50.3695 241.755 49.8763 241.755 49.3347C241.755 48.7544 241.63 48.2515 241.378 47.826C241.127 47.4005 240.759 47.0717 240.276 46.8395C239.792 46.5881 239.231 46.4624 238.593 46.4624H234.56V52.178ZM255.498 63V46.6074H249.579V42.6906H265.943V46.6074H259.85V63H255.498ZM144.394 95V74.6906H148.369L155.767 86.7312L153.156 86.7022L160.642 74.6906H164.442V95H160.177V88.0368C160.177 86.296 160.216 84.7293 160.293 83.3366C160.39 81.944 160.545 80.561 160.758 79.1877L161.28 80.5513L155.332 89.7776H153.417L147.586 80.6094L148.079 79.1877C148.292 80.4836 148.437 81.8183 148.514 83.1916C148.611 84.5455 148.659 86.1606 148.659 88.0368V95H144.394ZM178.718 95.2901C177.229 95.2901 175.856 95.029 174.598 94.5068C173.341 93.9845 172.239 93.2592 171.291 92.3308C170.362 91.383 169.647 90.2708 169.144 88.9942C168.641 87.6983 168.39 86.296 168.39 84.7873C168.39 83.2592 168.641 81.8666 169.144 80.6094C169.647 79.3328 170.362 78.2206 171.291 77.2728C172.239 76.3251 173.341 75.59 174.598 75.0678C175.856 74.5456 177.229 74.2844 178.718 74.2844C180.227 74.2844 181.6 74.5456 182.838 75.0678C184.095 75.59 185.188 76.3251 186.117 77.2728C187.065 78.2206 187.79 79.3328 188.293 80.6094C188.796 81.886 189.047 83.2786 189.047 84.7873C189.047 86.296 188.796 87.6886 188.293 88.9652C187.79 90.2418 187.065 91.354 186.117 92.3018C185.188 93.2495 184.095 93.9845 182.838 94.5068C181.6 95.029 180.227 95.2901 178.718 95.2901ZM178.718 91.1702C179.569 91.1702 180.353 91.0155 181.068 90.706C181.803 90.3965 182.432 89.9517 182.954 89.3714C183.477 88.7911 183.883 88.1142 184.173 87.3405C184.482 86.5668 184.637 85.7157 184.637 84.7873C184.637 83.8589 184.482 83.0078 184.173 82.2341C183.883 81.4604 183.477 80.7931 182.954 80.2322C182.432 79.6519 181.803 79.207 181.068 78.8976C180.353 78.5688 179.569 78.4043 178.718 78.4043C177.867 78.4043 177.084 78.5688 176.368 78.8976C175.653 79.207 175.024 79.6519 174.482 80.2322C173.941 80.7931 173.525 81.4604 173.235 82.2341C172.964 83.0078 172.829 83.8589 172.829 84.7873C172.829 85.7157 172.964 86.5668 173.235 87.3405C173.525 88.1142 173.941 88.7911 174.482 89.3714C175.024 89.9517 175.653 90.3965 176.368 90.706C177.084 91.0155 177.867 91.1702 178.718 91.1702ZM196.343 95V78.6074H190.425V74.6906H206.788V78.6074H200.696V95H196.343ZM209.86 95V91.2573H213.255V78.4334H209.86V74.6906H221.001V78.4334H217.607V91.2573H221.001V95H209.86ZM234.337 95.2901C232.847 95.2901 231.474 95.029 230.217 94.5068C228.96 93.9845 227.857 93.2592 226.909 92.3308C225.981 91.383 225.265 90.2708 224.762 88.9942C224.259 87.6983 224.008 86.296 224.008 84.7873C224.008 83.2592 224.259 81.8666 224.762 80.6094C225.265 79.3328 225.981 78.2206 226.909 77.2728C227.857 76.3251 228.96 75.59 230.217 75.0678C231.474 74.5456 232.847 74.2844 234.337 74.2844C235.845 74.2844 237.219 74.5456 238.457 75.0678C239.714 75.59 240.807 76.3251 241.735 77.2728C242.683 78.2206 243.408 79.3328 243.911 80.6094C244.414 81.886 244.666 83.2786 244.666 84.7873C244.666 86.296 244.414 87.6886 243.911 88.9652C243.408 90.2418 242.683 91.354 241.735 92.3018C240.807 93.2495 239.714 93.9845 238.457 94.5068C237.219 95.029 235.845 95.2901 234.337 95.2901ZM234.337 91.1702C235.188 91.1702 235.971 91.0155 236.687 90.706C237.422 90.3965 238.05 89.9517 238.573 89.3714C239.095 88.7911 239.501 88.1142 239.791 87.3405C240.101 86.5668 240.255 85.7157 240.255 84.7873C240.255 83.8589 240.101 83.0078 239.791 82.2341C239.501 81.4604 239.095 80.7931 238.573 80.2322C238.05 79.6519 237.422 79.207 236.687 78.8976C235.971 78.5688 235.188 78.4043 234.337 78.4043C233.486 78.4043 232.702 78.5688 231.987 78.8976C231.271 79.207 230.642 79.6519 230.101 80.2322C229.559 80.7931 229.143 81.4604 228.853 82.2341C228.582 83.0078 228.447 83.8589 228.447 84.7873C228.447 85.7157 228.582 86.5668 228.853 87.3405C229.143 88.1142 229.559 88.7911 230.101 89.3714C230.642 89.9517 231.271 90.3965 231.987 90.706C232.702 91.0155 233.486 91.1702 234.337 91.1702ZM248.604 95V74.6906H252.492L263.72 89.8646H262.908C262.831 89.265 262.763 88.6848 262.705 88.1238C262.647 87.5436 262.589 86.9633 262.531 86.383C262.492 85.7834 262.453 85.1741 262.415 84.5552C262.395 83.9169 262.376 83.2496 262.357 82.5533C262.337 81.8376 262.328 81.0639 262.328 80.2322V74.6906H266.593V95H262.647L251.186 79.6809L252.289 79.7099C252.386 80.7157 252.463 81.5765 252.521 82.2921C252.598 82.9885 252.657 83.5977 252.695 84.12C252.734 84.6422 252.763 85.0968 252.782 85.4836C252.821 85.8705 252.84 86.238 252.84 86.5861C252.86 86.9343 252.869 87.3018 252.869 87.6886V95H248.604ZM150.98 127.29C149.723 127.29 148.572 127.135 147.528 126.826C146.502 126.516 145.584 126.062 144.771 125.462C143.978 124.863 143.263 124.137 142.624 123.286L145.352 120.182C146.299 121.497 147.237 122.397 148.166 122.88C149.114 123.344 150.139 123.576 151.241 123.576C151.841 123.576 152.373 123.499 152.837 123.344C153.321 123.17 153.698 122.928 153.969 122.619C154.239 122.31 154.375 121.942 154.375 121.516C154.375 121.207 154.307 120.927 154.172 120.675C154.036 120.404 153.843 120.172 153.591 119.979C153.34 119.766 153.04 119.582 152.692 119.428C152.344 119.253 151.957 119.108 151.531 118.992C151.106 118.857 150.642 118.751 150.139 118.673C149.056 118.422 148.108 118.122 147.295 117.774C146.483 117.406 145.806 116.961 145.265 116.439C144.723 115.898 144.317 115.288 144.046 114.611C143.795 113.934 143.669 113.17 143.669 112.319C143.669 111.449 143.862 110.646 144.249 109.911C144.636 109.157 145.168 108.509 145.845 107.967C146.541 107.426 147.334 107.01 148.224 106.72C149.133 106.43 150.09 106.284 151.096 106.284C152.334 106.284 153.417 106.43 154.346 106.72C155.274 106.99 156.077 107.387 156.754 107.909C157.45 108.431 158.03 109.07 158.495 109.824L155.738 112.493C155.332 111.952 154.887 111.497 154.404 111.13C153.94 110.762 153.427 110.491 152.866 110.317C152.324 110.124 151.764 110.027 151.183 110.027C150.545 110.027 149.994 110.114 149.529 110.288C149.065 110.443 148.698 110.675 148.427 110.985C148.176 111.294 148.05 111.671 148.05 112.116C148.05 112.464 148.137 112.774 148.311 113.045C148.485 113.315 148.736 113.557 149.065 113.77C149.394 113.963 149.791 114.137 150.255 114.292C150.719 114.447 151.232 114.582 151.793 114.698C152.856 114.911 153.814 115.192 154.665 115.54C155.516 115.888 156.241 116.313 156.841 116.816C157.46 117.3 157.934 117.88 158.263 118.557C158.591 119.215 158.756 119.959 158.756 120.791C158.756 122.164 158.427 123.335 157.769 124.302C157.112 125.269 156.203 126.014 155.042 126.536C153.882 127.039 152.528 127.29 150.98 127.29ZM168.674 127V110.607H162.756V106.691H179.119V110.607H173.026V127H168.674ZM192.81 127.174C191.166 127.174 189.696 126.836 188.4 126.159C187.123 125.462 186.118 124.515 185.383 123.315C184.648 122.097 184.28 120.723 184.28 119.195V106.662H188.661V118.934C188.661 119.747 188.845 120.482 189.212 121.139C189.58 121.778 190.073 122.29 190.692 122.677C191.33 123.064 192.036 123.257 192.81 123.257C193.603 123.257 194.319 123.064 194.957 122.677C195.615 122.29 196.127 121.778 196.495 121.139C196.882 120.482 197.075 119.747 197.075 118.934V106.662H201.311V119.195C201.311 120.723 200.943 122.097 200.208 123.315C199.473 124.515 198.458 125.462 197.162 126.159C195.885 126.836 194.435 127.174 192.81 127.174ZM208.153 127V106.691H216.48C217.969 106.691 219.314 106.942 220.513 107.445C221.732 107.929 222.776 108.625 223.646 109.534C224.536 110.424 225.213 111.488 225.677 112.725C226.142 113.963 226.374 115.337 226.374 116.845C226.374 118.335 226.142 119.708 225.677 120.965C225.213 122.203 224.546 123.277 223.675 124.186C222.805 125.075 221.761 125.772 220.542 126.275C219.323 126.758 217.969 127 216.48 127H208.153ZM212.505 123.838L212.041 123.083H216.335C217.205 123.083 217.989 122.938 218.685 122.648C219.381 122.339 219.971 121.923 220.455 121.4C220.958 120.859 221.335 120.201 221.586 119.428C221.838 118.654 221.964 117.793 221.964 116.845C221.964 115.898 221.838 115.046 221.586 114.292C221.335 113.518 220.958 112.861 220.455 112.319C219.971 111.778 219.381 111.362 218.685 111.072C217.989 110.762 217.205 110.607 216.335 110.607H211.954L212.505 109.911V123.838ZM231.104 127V123.257H234.498V110.433H231.104V106.691H242.245V110.433H238.85V123.257H242.245V127H231.104ZM257.321 127.29C255.831 127.29 254.458 127.029 253.201 126.507C251.944 125.985 250.841 125.259 249.893 124.331C248.965 123.383 248.249 122.271 247.746 120.994C247.243 119.698 246.992 118.296 246.992 116.787C246.992 115.259 247.243 113.867 247.746 112.609C248.249 111.333 248.965 110.221 249.893 109.273C250.841 108.325 251.944 107.59 253.201 107.068C254.458 106.546 255.831 106.284 257.321 106.284C258.829 106.284 260.203 106.546 261.441 107.068C262.698 107.59 263.791 108.325 264.719 109.273C265.667 110.221 266.392 111.333 266.895 112.609C267.398 113.886 267.65 115.279 267.65 116.787C267.65 118.296 267.398 119.689 266.895 120.965C266.392 122.242 265.667 123.354 264.719 124.302C263.791 125.25 262.698 125.985 261.441 126.507C260.203 127.029 258.829 127.29 257.321 127.29ZM257.321 123.17C258.172 123.17 258.955 123.015 259.671 122.706C260.406 122.397 261.035 121.952 261.557 121.371C262.079 120.791 262.485 120.114 262.775 119.34C263.085 118.567 263.24 117.716 263.24 116.787C263.24 115.859 263.085 115.008 262.775 114.234C262.485 113.46 262.079 112.793 261.557 112.232C261.035 111.652 260.406 111.207 259.671 110.898C258.955 110.569 258.172 110.404 257.321 110.404C256.47 110.404 255.686 110.569 254.971 110.898C254.255 111.207 253.626 111.652 253.085 112.232C252.543 112.793 252.127 113.46 251.837 114.234C251.566 115.008 251.431 115.859 251.431 116.787C251.431 117.716 251.566 118.567 251.837 119.34C252.127 120.114 252.543 120.791 253.085 121.371C253.626 121.952 254.255 122.397 254.971 122.706C255.686 123.015 256.47 123.17 257.321 123.17ZM150.98 159.29C149.723 159.29 148.572 159.135 147.528 158.826C146.502 158.516 145.584 158.062 144.771 157.462C143.978 156.863 143.263 156.137 142.624 155.286L145.352 152.182C146.299 153.497 147.237 154.397 148.166 154.88C149.114 155.344 150.139 155.576 151.241 155.576C151.841 155.576 152.373 155.499 152.837 155.344C153.321 155.17 153.698 154.928 153.969 154.619C154.239 154.31 154.375 153.942 154.375 153.516C154.375 153.207 154.307 152.927 154.172 152.675C154.036 152.404 153.843 152.172 153.591 151.979C153.34 151.766 153.04 151.582 152.692 151.428C152.344 151.253 151.957 151.108 151.531 150.992C151.106 150.857 150.642 150.751 150.139 150.673C149.056 150.422 148.108 150.122 147.295 149.774C146.483 149.406 145.806 148.961 145.265 148.439C144.723 147.898 144.317 147.288 144.046 146.611C143.795 145.934 143.669 145.17 143.669 144.319C143.669 143.449 143.862 142.646 144.249 141.911C144.636 141.157 145.168 140.509 145.845 139.967C146.541 139.426 147.334 139.01 148.224 138.72C149.133 138.43 150.09 138.284 151.096 138.284C152.334 138.284 153.417 138.43 154.346 138.72C155.274 138.99 156.077 139.387 156.754 139.909C157.45 140.431 158.03 141.07 158.495 141.824L155.738 144.493C155.332 143.952 154.887 143.497 154.404 143.13C153.94 142.762 153.427 142.491 152.866 142.317C152.324 142.124 151.764 142.027 151.183 142.027C150.545 142.027 149.994 142.114 149.529 142.288C149.065 142.443 148.698 142.675 148.427 142.985C148.176 143.294 148.05 143.671 148.05 144.116C148.05 144.464 148.137 144.774 148.311 145.045C148.485 145.315 148.736 145.557 149.065 145.77C149.394 145.963 149.791 146.137 150.255 146.292C150.719 146.447 151.232 146.582 151.793 146.698C152.856 146.911 153.814 147.192 154.665 147.54C155.516 147.888 156.241 148.313 156.841 148.816C157.46 149.3 157.934 149.88 158.263 150.557C158.591 151.215 158.756 151.959 158.756 152.791C158.756 154.164 158.427 155.335 157.769 156.302C157.112 157.269 156.203 158.014 155.042 158.536C153.882 159.039 152.528 159.29 150.98 159.29ZM169.138 159V155.257H172.533V142.433H169.138V138.691H180.28V142.433H176.885V155.257H180.28V159H169.138ZM200.897 159.29C199.331 159.29 197.89 159.029 196.574 158.507C195.278 157.965 194.156 157.221 193.209 156.273C192.261 155.325 191.526 154.213 191.004 152.936C190.501 151.66 190.249 150.277 190.249 148.787C190.249 147.298 190.51 145.925 191.033 144.667C191.574 143.391 192.329 142.288 193.296 141.36C194.282 140.412 195.433 139.677 196.748 139.155C198.064 138.633 199.505 138.371 201.071 138.371C202.154 138.371 203.189 138.517 204.176 138.807C205.162 139.097 206.062 139.493 206.874 139.996C207.686 140.499 208.363 141.079 208.905 141.737L206.207 144.58C205.704 144.097 205.172 143.691 204.611 143.362C204.069 143.014 203.499 142.753 202.899 142.578C202.3 142.385 201.681 142.288 201.042 142.288C200.133 142.288 199.292 142.453 198.518 142.782C197.764 143.11 197.096 143.565 196.516 144.145C195.936 144.725 195.481 145.412 195.153 146.205C194.843 146.998 194.688 147.859 194.688 148.787C194.688 149.696 194.853 150.557 195.182 151.369C195.53 152.163 195.994 152.859 196.574 153.458C197.174 154.039 197.87 154.503 198.663 154.851C199.456 155.18 200.307 155.344 201.216 155.344C201.855 155.344 202.464 155.248 203.044 155.054C203.624 154.861 204.127 154.59 204.553 154.242C204.998 153.874 205.336 153.449 205.568 152.965C205.82 152.482 205.946 151.969 205.946 151.428V150.731L206.526 151.544H200.723V147.917H210.123C210.143 148.13 210.162 148.391 210.182 148.7C210.22 149.01 210.24 149.319 210.24 149.629C210.259 149.919 210.269 150.151 210.269 150.325C210.269 151.64 210.027 152.849 209.543 153.952C209.079 155.054 208.421 156.002 207.57 156.795C206.739 157.588 205.752 158.207 204.611 158.652C203.47 159.077 202.232 159.29 200.897 159.29ZM221.072 159V138.691H224.96L236.188 153.865H235.376C235.298 153.265 235.231 152.685 235.173 152.124C235.115 151.544 235.057 150.963 234.999 150.383C234.96 149.783 234.921 149.174 234.883 148.555C234.863 147.917 234.844 147.25 234.825 146.553C234.805 145.838 234.796 145.064 234.796 144.232V138.691H239.06V159H235.115L223.654 143.681L224.757 143.71C224.854 144.716 224.931 145.576 224.989 146.292C225.066 146.988 225.124 147.598 225.163 148.12C225.202 148.642 225.231 149.097 225.25 149.484C225.289 149.87 225.308 150.238 225.308 150.586C225.327 150.934 225.337 151.302 225.337 151.689V159H221.072ZM257.883 159.29C256.626 159.29 255.475 159.135 254.431 158.826C253.405 158.516 252.487 158.062 251.674 157.462C250.881 156.863 250.166 156.137 249.527 155.286L252.255 152.182C253.202 153.497 254.14 154.397 255.069 154.88C256.017 155.344 257.042 155.576 258.144 155.576C258.744 155.576 259.276 155.499 259.74 155.344C260.224 155.17 260.601 154.928 260.872 154.619C261.142 154.31 261.278 153.942 261.278 153.516C261.278 153.207 261.21 152.927 261.075 152.675C260.939 152.404 260.746 152.172 260.494 151.979C260.243 151.766 259.943 151.582 259.595 151.428C259.247 151.253 258.86 151.108 258.434 150.992C258.009 150.857 257.545 150.751 257.042 150.673C255.959 150.422 255.011 150.122 254.198 149.774C253.386 149.406 252.709 148.961 252.168 148.439C251.626 147.898 251.22 147.288 250.949 146.611C250.697 145.934 250.572 145.17 250.572 144.319C250.572 143.449 250.765 142.646 251.152 141.911C251.539 141.157 252.071 140.509 252.748 139.967C253.444 139.426 254.237 139.01 255.127 138.72C256.036 138.43 256.993 138.284 257.999 138.284C259.237 138.284 260.32 138.43 261.249 138.72C262.177 138.99 262.98 139.387 263.657 139.909C264.353 140.431 264.933 141.07 265.398 141.824L262.641 144.493C262.235 143.952 261.79 143.497 261.307 143.13C260.843 142.762 260.33 142.491 259.769 142.317C259.227 142.124 258.667 142.027 258.086 142.027C257.448 142.027 256.897 142.114 256.432 142.288C255.968 142.443 255.601 142.675 255.33 142.985C255.079 143.294 254.953 143.671 254.953 144.116C254.953 144.464 255.04 144.774 255.214 145.045C255.388 145.315 255.639 145.557 255.968 145.77C256.297 145.963 256.694 146.137 257.158 146.292C257.622 146.447 258.135 146.582 258.696 146.698C259.759 146.911 260.717 147.192 261.568 147.54C262.419 147.888 263.144 148.313 263.744 148.816C264.363 149.3 264.837 149.88 265.166 150.557C265.494 151.215 265.659 151.959 265.659 152.791C265.659 154.164 265.33 155.335 264.672 156.302C264.015 157.269 263.106 158.014 261.945 158.536C260.784 159.039 259.431 159.29 257.883 159.29Z" fill="#5C708E"/>
<path d="M0.709216 182.25L0.374871 181.419L2.47212 179.099C2.58695 178.977 2.70853 178.836 2.83686 178.674C2.97195 178.511 3.10029 178.346 3.22187 178.177C3.3502 178.001 3.45152 177.833 3.52582 177.67C3.60012 177.502 3.63727 177.35 3.63727 177.215C3.63727 177.059 3.60349 176.924 3.53595 176.809C3.4684 176.688 3.37047 176.593 3.24213 176.526C3.1138 176.458 2.95507 176.424 2.76594 176.424C2.59033 176.424 2.42484 176.472 2.26949 176.566C2.11414 176.654 1.96892 176.786 1.83383 176.961C1.69874 177.137 1.58054 177.35 1.47922 177.6L0.344476 176.961C0.479565 176.57 0.672067 176.228 0.921981 175.938C1.1719 175.648 1.46909 175.421 1.81357 175.259C2.15804 175.097 2.52616 175.016 2.91792 175.016C3.32994 175.023 3.70143 175.111 4.0324 175.279C4.36337 175.448 4.62341 175.685 4.81254 175.989C5.00166 176.293 5.09622 176.644 5.09622 177.042C5.09622 177.191 5.07934 177.343 5.04557 177.498C5.01855 177.654 4.96789 177.816 4.89359 177.985C4.82605 178.153 4.73486 178.332 4.62004 178.522C4.51197 178.704 4.37688 178.9 4.21477 179.109C4.05942 179.312 3.88043 179.525 3.67779 179.747L2.06686 181.5L1.86423 180.882H5.39004V182.25H0.709216ZM9.36015 182.351C8.75225 182.351 8.23216 182.206 7.79987 181.916C7.37434 181.625 7.04675 181.21 6.8171 180.669C6.59421 180.122 6.48276 179.467 6.48276 178.704C6.48276 177.941 6.59421 177.289 6.8171 176.749C7.04675 176.201 7.37434 175.783 7.79987 175.492C8.23216 175.202 8.75225 175.057 9.36015 175.057C9.96805 175.057 10.4881 175.202 10.9204 175.492C11.3527 175.783 11.6803 176.201 11.9032 176.749C12.1328 177.289 12.2477 177.941 12.2477 178.704C12.2477 179.467 12.1328 180.122 11.9032 180.669C11.6803 181.21 11.3527 181.625 10.9204 181.916C10.4881 182.206 9.96805 182.351 9.36015 182.351ZM9.36015 181.044C9.8127 181.044 10.1639 180.842 10.4138 180.436C10.6638 180.031 10.7887 179.454 10.7887 178.704C10.7887 177.941 10.6638 177.353 10.4138 176.941C10.1639 176.529 9.8127 176.323 9.36015 176.323C8.90085 176.323 8.54624 176.529 8.29632 176.941C8.05316 177.353 7.93158 177.941 7.93158 178.704C7.93158 179.454 8.05316 180.031 8.29632 180.436C8.54624 180.842 8.90085 181.044 9.36015 181.044ZM13.8922 182.25L13.5579 181.419L15.6552 179.099C15.77 178.977 15.8916 178.836 16.0199 178.674C16.155 178.511 16.2833 178.346 16.4049 178.177C16.5332 178.001 16.6345 177.833 16.7088 177.67C16.7831 177.502 16.8203 177.35 16.8203 177.215C16.8203 177.059 16.7865 176.924 16.719 176.809C16.6514 176.688 16.5535 176.593 16.4252 176.526C16.2968 176.458 16.1381 176.424 15.949 176.424C15.7734 176.424 15.6079 176.472 15.4525 176.566C15.2972 176.654 15.1519 176.786 15.0169 176.961C14.8818 177.137 14.7636 177.35 14.6623 177.6L13.5275 176.961C13.6626 176.57 13.8551 176.228 14.105 175.938C14.3549 175.648 14.6521 175.421 14.9966 175.259C15.3411 175.097 15.7092 175.016 16.1009 175.016C16.513 175.023 16.8845 175.111 17.2154 175.279C17.5464 175.448 17.8064 175.685 17.9956 175.989C18.1847 176.293 18.2793 176.644 18.2793 177.042C18.2793 177.191 18.2624 177.343 18.2286 177.498C18.2016 177.654 18.1509 177.816 18.0766 177.985C18.0091 178.153 17.9179 178.332 17.8031 178.522C17.695 178.704 17.5599 178.9 17.3978 179.109C17.2424 179.312 17.0635 179.525 16.8608 179.747L15.2499 181.5L15.0473 180.882H18.5731V182.25H13.8922ZM22.0163 182.321C21.503 182.321 21.0369 182.216 20.6182 182.007C20.2061 181.791 19.8617 181.48 19.5847 181.075L20.4054 180.163C20.6958 180.487 20.9593 180.71 21.1957 180.832C21.4321 180.946 21.6921 181.004 21.9758 181.004C22.2122 181.004 22.425 180.953 22.6141 180.852C22.8032 180.751 22.9518 180.612 23.0599 180.436C23.168 180.261 23.222 180.065 23.222 179.849C23.222 179.626 23.168 179.427 23.0599 179.251C22.9518 179.075 22.8066 178.937 22.6242 178.836C22.4486 178.728 22.246 178.674 22.0163 178.674C21.8677 178.674 21.7293 178.687 21.6009 178.714C21.4726 178.734 21.3308 178.778 21.1754 178.846C21.0201 178.907 20.8309 178.998 20.608 179.119L19.9191 178.207L20.3547 175.117H24.3466V176.424H21.1247L21.4996 175.979L21.1653 178.228L20.679 177.995C20.7803 177.9 20.9187 177.812 21.0944 177.731C21.2767 177.65 21.4726 177.583 21.682 177.529C21.8981 177.475 22.1075 177.448 22.3101 177.448C22.7559 177.448 23.1511 177.549 23.4956 177.752C23.8468 177.954 24.1237 178.238 24.3264 178.603C24.5357 178.961 24.6404 179.373 24.6404 179.839C24.6404 180.305 24.5256 180.727 24.296 181.105C24.0663 181.477 23.7522 181.774 23.3537 181.997C22.9552 182.213 22.5094 182.321 22.0163 182.321ZM30.2286 182.25V175.158H33.3086C33.7814 175.158 34.1799 175.229 34.5042 175.371C34.8351 175.506 35.085 175.705 35.2539 175.968C35.4228 176.232 35.5072 176.546 35.5072 176.911C35.5072 177.316 35.4059 177.654 35.2032 177.924C35.0006 178.194 34.7102 178.38 34.3319 178.481L34.3218 178.278C34.6325 178.353 34.906 178.474 35.1424 178.643C35.3789 178.812 35.5612 179.021 35.6896 179.271C35.8179 179.521 35.8821 179.805 35.8821 180.122C35.8821 180.474 35.8246 180.784 35.7098 181.054C35.595 181.318 35.4261 181.537 35.2032 181.713C34.9803 181.889 34.7169 182.024 34.413 182.118C34.1158 182.206 33.7814 182.25 33.4099 182.25H30.2286ZM31.6876 180.933H33.3491C33.5653 180.933 33.7477 180.902 33.8963 180.842C34.0516 180.774 34.1698 180.673 34.2509 180.538C34.3319 180.403 34.3724 180.244 34.3724 180.062C34.3724 179.886 34.3285 179.737 34.2407 179.616C34.1529 179.494 34.028 179.403 33.8659 179.342C33.7105 179.275 33.5214 179.241 33.2985 179.241H31.6876V180.933ZM31.6876 178.035H33.1262C33.3086 178.035 33.4673 178.001 33.6024 177.934C33.7375 177.866 33.8388 177.775 33.9064 177.66C33.9807 177.546 34.0178 177.41 34.0178 177.255C34.0178 177.005 33.9368 176.813 33.7747 176.678C33.6126 176.542 33.3694 176.475 33.0452 176.475H31.6876V178.035ZM40.1005 182.351C39.5196 182.351 39.013 182.233 38.5807 181.997C38.1484 181.76 37.8107 181.436 37.5676 181.024C37.3244 180.612 37.2028 180.139 37.2028 179.606C37.2028 179.194 37.2704 178.815 37.4055 178.471C37.5405 178.126 37.7297 177.829 37.9728 177.579C38.216 177.323 38.503 177.127 38.834 176.992C39.1717 176.85 39.5365 176.779 39.9282 176.779C40.293 176.779 40.6307 176.846 40.9414 176.982C41.2521 177.11 41.5189 177.296 41.7418 177.539C41.9715 177.775 42.1471 178.055 42.2686 178.38C42.3902 178.704 42.4443 179.059 42.4308 179.444L42.4206 179.889H38.1147L37.8816 179.008H41.2352L41.0731 179.19V178.967C41.0596 178.785 40.9988 178.619 40.8907 178.471C40.7894 178.322 40.6577 178.207 40.4956 178.126C40.3335 178.045 40.1511 178.005 39.9485 178.005C39.6513 178.005 39.398 178.062 39.1886 178.177C38.986 178.292 38.8306 178.461 38.7226 178.684C38.6145 178.907 38.5605 179.177 38.5605 179.494C38.5605 179.818 38.628 180.099 38.7631 180.335C38.9049 180.572 39.1008 180.757 39.3507 180.892C39.6074 181.021 39.908 181.085 40.2524 181.085C40.4889 181.085 40.705 181.048 40.9009 180.973C41.0968 180.899 41.3061 180.771 41.529 180.588L42.218 181.551C42.0221 181.727 41.806 181.875 41.5696 181.997C41.3332 182.112 41.09 182.199 40.8401 182.26C40.5902 182.321 40.3436 182.351 40.1005 182.351ZM45.804 182.351C45.3041 182.351 44.8583 182.27 44.4666 182.108C44.0816 181.939 43.7709 181.71 43.5345 181.419L44.4261 180.649C44.6354 180.872 44.8685 181.034 45.1251 181.136C45.3818 181.23 45.6385 181.277 45.8951 181.277C45.9965 181.277 46.0876 181.267 46.1687 181.247C46.2565 181.22 46.3308 181.186 46.3916 181.146C46.4524 181.098 46.4963 181.044 46.5233 180.984C46.5571 180.916 46.574 180.845 46.574 180.771C46.574 180.622 46.5132 180.504 46.3916 180.416C46.3241 180.382 46.2194 180.342 46.0775 180.295C45.9357 180.241 45.7533 180.183 45.5304 180.122C45.1859 180.035 44.8921 179.933 44.649 179.818C44.4125 179.697 44.2234 179.562 44.0816 179.413C43.96 179.271 43.8654 179.119 43.7979 178.957C43.7371 178.788 43.7067 178.603 43.7067 178.4C43.7067 178.157 43.7607 177.937 43.8688 177.741C43.9769 177.539 44.1255 177.367 44.3146 177.225C44.5105 177.083 44.7334 176.975 44.9833 176.9C45.2332 176.819 45.4966 176.779 45.7736 176.779C46.0505 176.779 46.3207 176.813 46.5841 176.88C46.8475 176.948 47.0907 177.046 47.3136 177.174C47.5432 177.296 47.7425 177.441 47.9113 177.61L47.1413 178.461C47.0198 178.346 46.8813 178.241 46.7259 178.147C46.5773 178.052 46.422 177.978 46.2599 177.924C46.0978 177.87 45.9526 177.843 45.8242 177.843C45.7094 177.843 45.6047 177.853 45.5101 177.873C45.4223 177.893 45.348 177.924 45.2872 177.964C45.2265 178.005 45.1792 178.059 45.1454 178.126C45.1184 178.187 45.1049 178.255 45.1049 178.329C45.1049 178.403 45.1218 178.474 45.1555 178.542C45.1961 178.609 45.2501 178.667 45.3176 178.714C45.3919 178.755 45.5 178.802 45.6419 178.856C45.7905 178.91 45.9897 178.971 46.2396 179.038C46.5638 179.126 46.8374 179.224 47.0603 179.332C47.2899 179.44 47.4723 179.565 47.6074 179.707C47.7222 179.829 47.8067 179.967 47.8607 180.122C47.9147 180.278 47.9417 180.45 47.9417 180.639C47.9417 180.97 47.8472 181.267 47.6581 181.531C47.4757 181.787 47.2224 181.99 46.8982 182.139C46.574 182.28 46.2092 182.351 45.804 182.351ZM49.9907 182.25V175.533H51.4294V182.25H49.9907ZM48.9877 178.177V176.89H52.5236V178.177H48.9877ZM60.0737 182.351C59.5266 182.351 59.0369 182.233 58.6046 181.997C58.1791 181.754 57.8413 181.423 57.5914 181.004C57.3483 180.585 57.2267 180.105 57.2267 179.565C57.2267 179.025 57.3483 178.549 57.5914 178.137C57.8413 177.718 58.1791 177.387 58.6046 177.144C59.0369 176.9 59.5266 176.779 60.0737 176.779C60.614 176.779 61.097 176.9 61.5225 177.144C61.9548 177.387 62.2925 177.718 62.5357 178.137C62.7788 178.549 62.9004 179.025 62.9004 179.565C62.9004 180.105 62.7788 180.585 62.5357 181.004C62.2925 181.423 61.9548 181.754 61.5225 181.997C61.097 182.233 60.614 182.351 60.0737 182.351ZM60.0737 181.095C60.3371 181.095 60.5735 181.031 60.7829 180.902C60.9923 180.767 61.1544 180.585 61.2692 180.355C61.3908 180.119 61.4516 179.856 61.4516 179.565C61.4516 179.268 61.3908 179.004 61.2692 178.775C61.1544 178.538 60.9923 178.356 60.7829 178.228C60.5735 178.093 60.3371 178.025 60.0737 178.025C59.8035 178.025 59.5637 178.093 59.3543 178.228C59.145 178.363 58.9795 178.545 58.8579 178.775C58.7363 179.004 58.6789 179.268 58.6857 179.565C58.6789 179.856 58.7363 180.119 58.8579 180.355C58.9795 180.585 59.145 180.767 59.3543 180.902C59.5637 181.031 59.8035 181.095 60.0737 181.095ZM64.7069 182.25V176.515C64.7069 176.185 64.7812 175.884 64.9298 175.614C65.0784 175.344 65.2811 175.131 65.5377 174.975C65.8012 174.82 66.1085 174.742 66.4597 174.742C66.6961 174.742 66.919 174.783 67.1284 174.864C67.3378 174.938 67.5168 175.043 67.6654 175.178L67.2399 176.232C67.1521 176.178 67.0609 176.134 66.9663 176.1C66.8785 176.06 66.7974 176.039 66.7231 176.039C66.5948 176.039 66.4867 176.063 66.3989 176.11C66.3179 176.151 66.2571 176.215 66.2166 176.303C66.176 176.384 66.1558 176.488 66.1558 176.617V182.25H65.4364C65.2811 182.25 65.1426 182.25 65.021 182.25C64.8994 182.25 64.7948 182.25 64.7069 182.25ZM63.9065 178.238V177.022H67.3108V178.238H63.9065ZM72.5916 182.25V175.158H75.6007C76.0195 175.158 76.3977 175.259 76.7354 175.462C77.0799 175.658 77.3501 175.928 77.546 176.272C77.7486 176.617 77.8499 177.005 77.8499 177.437C77.8499 177.877 77.7486 178.272 77.546 178.623C77.3501 178.974 77.0799 179.254 76.7354 179.464C76.3977 179.666 76.0195 179.768 75.6007 179.768H74.1113V182.25H72.5916ZM74.0911 178.4H75.4285C75.5906 178.4 75.7358 178.359 75.8641 178.278C75.9925 178.191 76.0938 178.076 76.1681 177.934C76.2491 177.792 76.2896 177.63 76.2896 177.448C76.2896 177.265 76.2491 177.106 76.1681 176.971C76.0938 176.83 75.9925 176.721 75.8641 176.647C75.7358 176.566 75.5906 176.526 75.4285 176.526H74.0911V178.4ZM79.5148 182.25V176.89H80.9028L80.9535 178.613L80.7103 178.258C80.7913 177.981 80.9231 177.731 81.1054 177.508C81.2878 177.279 81.5006 177.1 81.7437 176.971C81.9936 176.843 82.2537 176.779 82.5239 176.779C82.6387 176.779 82.7501 176.789 82.8582 176.809C82.9663 176.83 83.0575 176.853 83.1318 176.88L82.7468 178.461C82.6657 178.42 82.5678 178.386 82.4529 178.359C82.3381 178.326 82.2199 178.309 82.0983 178.309C81.9362 178.309 81.7842 178.339 81.6424 178.4C81.5073 178.454 81.3891 178.535 81.2878 178.643C81.1865 178.744 81.1054 178.866 81.0446 179.008C80.9906 179.15 80.9636 179.305 80.9636 179.474V182.25H79.5148ZM86.7287 182.351C86.1815 182.351 85.6919 182.233 85.2596 181.997C84.834 181.754 84.4963 181.423 84.2464 181.004C84.0032 180.585 83.8817 180.105 83.8817 179.565C83.8817 179.025 84.0032 178.549 84.2464 178.137C84.4963 177.718 84.834 177.387 85.2596 177.144C85.6919 176.9 86.1815 176.779 86.7287 176.779C87.269 176.779 87.752 176.9 88.1775 177.144C88.6098 177.387 88.9475 177.718 89.1907 178.137C89.4338 178.549 89.5554 179.025 89.5554 179.565C89.5554 180.105 89.4338 180.585 89.1907 181.004C88.9475 181.423 88.6098 181.754 88.1775 181.997C87.752 182.233 87.269 182.351 86.7287 182.351ZM86.7287 181.095C86.9921 181.095 87.2285 181.031 87.4379 180.902C87.6473 180.767 87.8094 180.585 87.9242 180.355C88.0458 180.119 88.1066 179.856 88.1066 179.565C88.1066 179.268 88.0458 179.004 87.9242 178.775C87.8094 178.538 87.6473 178.356 87.4379 178.228C87.2285 178.093 86.9921 178.025 86.7287 178.025C86.4585 178.025 86.2187 178.093 86.0093 178.228C85.7999 178.363 85.6344 178.545 85.5129 178.775C85.3913 179.004 85.3339 179.268 85.3406 179.565C85.3339 179.856 85.3913 180.119 85.5129 180.355C85.6344 180.585 85.7999 180.767 86.0093 180.902C86.2187 181.031 86.4585 181.095 86.7287 181.095ZM93.2417 182.351C92.7756 182.351 92.3568 182.233 91.9853 181.997C91.6138 181.754 91.32 181.426 91.1039 181.014C90.8945 180.595 90.7898 180.112 90.7898 179.565C90.7898 179.032 90.8945 178.555 91.1039 178.137C91.32 177.718 91.6105 177.387 91.9752 177.144C92.3467 176.9 92.7688 176.779 93.2417 176.779C93.4916 176.779 93.7313 176.819 93.961 176.9C94.1974 176.975 94.4068 177.079 94.5892 177.215C94.7783 177.35 94.9303 177.502 95.0451 177.67C95.1599 177.833 95.2241 178.005 95.2376 178.187L94.8728 178.248V174.753H96.3115V182.25H94.9539L94.8931 181.014L95.1768 181.044C95.1633 181.213 95.1025 181.375 94.9944 181.531C94.8864 181.686 94.7411 181.828 94.5588 181.956C94.3832 182.078 94.1805 182.176 93.9509 182.25C93.728 182.318 93.4916 182.351 93.2417 182.351ZM93.5659 181.156C93.836 181.156 94.0724 181.088 94.2751 180.953C94.4777 180.818 94.6364 180.632 94.7513 180.396C94.8661 180.16 94.9235 179.883 94.9235 179.565C94.9235 179.254 94.8661 178.981 94.7513 178.744C94.6364 178.501 94.4777 178.316 94.2751 178.187C94.0724 178.052 93.836 177.985 93.5659 177.985C93.2957 177.985 93.0593 178.052 92.8566 178.187C92.6608 178.316 92.5054 178.501 92.3906 178.744C92.2825 178.981 92.2285 179.254 92.2285 179.565C92.2285 179.883 92.2825 180.16 92.3906 180.396C92.5054 180.632 92.6608 180.818 92.8566 180.953C93.0593 181.088 93.2957 181.156 93.5659 181.156ZM100.223 182.351C99.8312 182.351 99.4935 182.267 99.2098 182.098C98.9329 181.922 98.7168 181.676 98.5614 181.358C98.4128 181.034 98.3385 180.646 98.3385 180.193V176.89H99.7772V179.96C99.7772 180.203 99.8177 180.416 99.8988 180.599C99.9798 180.774 100.095 180.909 100.243 181.004C100.392 181.098 100.574 181.146 100.79 181.146C100.946 181.146 101.091 181.122 101.226 181.075C101.361 181.021 101.476 180.946 101.571 180.852C101.665 180.757 101.739 180.646 101.793 180.517C101.847 180.389 101.874 180.251 101.874 180.102V176.89H103.313V182.25H101.945L101.895 181.146L102.158 181.024C102.077 181.274 101.942 181.5 101.753 181.703C101.564 181.906 101.337 182.064 101.074 182.179C100.811 182.294 100.527 182.351 100.223 182.351ZM107.598 182.351C107.084 182.351 106.625 182.23 106.22 181.987C105.814 181.743 105.494 181.412 105.257 180.994C105.028 180.575 104.913 180.099 104.913 179.565C104.913 179.038 105.028 178.565 105.257 178.147C105.494 177.721 105.814 177.387 106.22 177.144C106.625 176.9 107.084 176.779 107.598 176.779C108.077 176.779 108.516 176.867 108.915 177.042C109.313 177.218 109.624 177.461 109.847 177.772L109.057 178.724C108.962 178.596 108.844 178.481 108.702 178.38C108.56 178.272 108.405 178.187 108.236 178.126C108.074 178.066 107.905 178.035 107.729 178.035C107.452 178.035 107.206 178.103 106.99 178.238C106.78 178.366 106.615 178.545 106.493 178.775C106.372 179.004 106.311 179.268 106.311 179.565C106.311 179.856 106.372 180.116 106.493 180.345C106.622 180.568 106.794 180.751 107.01 180.892C107.226 181.027 107.469 181.095 107.739 181.095C107.915 181.095 108.081 181.071 108.236 181.024C108.391 180.97 108.537 180.892 108.672 180.791C108.813 180.69 108.942 180.568 109.057 180.426L109.837 181.379C109.607 181.669 109.29 181.906 108.884 182.088C108.479 182.264 108.05 182.351 107.598 182.351ZM111.782 182.25V175.533H113.221V182.25H111.782ZM110.779 178.177V176.89H114.315V178.177H110.779ZM119.575 182.25V175.158H122.483C123.003 175.158 123.472 175.246 123.891 175.421C124.317 175.59 124.682 175.833 124.985 176.151C125.296 176.461 125.533 176.833 125.695 177.265C125.857 177.698 125.938 178.177 125.938 178.704C125.938 179.224 125.857 179.704 125.695 180.143C125.533 180.575 125.3 180.95 124.996 181.267C124.692 181.578 124.327 181.821 123.901 181.997C123.476 182.166 123.003 182.25 122.483 182.25H119.575ZM121.095 181.146L120.933 180.882H122.432C122.736 180.882 123.01 180.832 123.253 180.73C123.496 180.622 123.702 180.477 123.871 180.295C124.047 180.105 124.178 179.876 124.266 179.606C124.354 179.335 124.398 179.035 124.398 178.704C124.398 178.373 124.354 178.076 124.266 177.812C124.178 177.542 124.047 177.313 123.871 177.123C123.702 176.934 123.496 176.789 123.253 176.688C123.01 176.58 122.736 176.526 122.432 176.526H120.902L121.095 176.282V181.146ZM130.159 182.351C129.579 182.351 129.072 182.233 128.64 181.997C128.207 181.76 127.87 181.436 127.627 181.024C127.383 180.612 127.262 180.139 127.262 179.606C127.262 179.194 127.329 178.815 127.464 178.471C127.6 178.126 127.789 177.829 128.032 177.579C128.275 177.323 128.562 177.127 128.893 176.992C129.231 176.85 129.595 176.779 129.987 176.779C130.352 176.779 130.69 176.846 131 176.982C131.311 177.11 131.578 177.296 131.801 177.539C132.03 177.775 132.206 178.055 132.328 178.38C132.449 178.704 132.503 179.059 132.49 179.444L132.48 179.889H128.174L127.941 179.008H131.294L131.132 179.19V178.967C131.119 178.785 131.058 178.619 130.95 178.471C130.848 178.322 130.717 178.207 130.555 178.126C130.392 178.045 130.21 178.005 130.007 178.005C129.71 178.005 129.457 178.062 129.248 178.177C129.045 178.292 128.89 178.461 128.782 178.684C128.673 178.907 128.619 179.177 128.619 179.494C128.619 179.818 128.687 180.099 128.822 180.335C128.964 180.572 129.16 180.757 129.41 180.892C129.666 181.021 129.967 181.085 130.311 181.085C130.548 181.085 130.764 181.048 130.96 180.973C131.156 180.899 131.365 180.771 131.588 180.588L132.277 181.551C132.081 181.727 131.865 181.875 131.629 181.997C131.392 182.112 131.149 182.199 130.899 182.26C130.649 182.321 130.403 182.351 130.159 182.351ZM135.863 182.351C135.363 182.351 134.917 182.27 134.526 182.108C134.141 181.939 133.83 181.71 133.593 181.419L134.485 180.649C134.694 180.872 134.927 181.034 135.184 181.136C135.441 181.23 135.697 181.277 135.954 181.277C136.055 181.277 136.147 181.267 136.228 181.247C136.315 181.22 136.39 181.186 136.451 181.146C136.511 181.098 136.555 181.044 136.582 180.984C136.616 180.916 136.633 180.845 136.633 180.771C136.633 180.622 136.572 180.504 136.451 180.416C136.383 180.382 136.278 180.342 136.136 180.295C135.995 180.241 135.812 180.183 135.589 180.122C135.245 180.035 134.951 179.933 134.708 179.818C134.472 179.697 134.282 179.562 134.141 179.413C134.019 179.271 133.924 179.119 133.857 178.957C133.796 178.788 133.766 178.603 133.766 178.4C133.766 178.157 133.82 177.937 133.928 177.741C134.036 177.539 134.184 177.367 134.374 177.225C134.569 177.083 134.792 176.975 135.042 176.9C135.292 176.819 135.556 176.779 135.833 176.779C136.109 176.779 136.38 176.813 136.643 176.88C136.906 176.948 137.15 177.046 137.373 177.174C137.602 177.296 137.801 177.441 137.97 177.61L137.2 178.461C137.079 178.346 136.94 178.241 136.785 178.147C136.636 178.052 136.481 177.978 136.319 177.924C136.157 177.87 136.012 177.843 135.883 177.843C135.768 177.843 135.664 177.853 135.569 177.873C135.481 177.893 135.407 177.924 135.346 177.964C135.285 178.005 135.238 178.059 135.204 178.126C135.177 178.187 135.164 178.255 135.164 178.329C135.164 178.403 135.181 178.474 135.215 178.542C135.255 178.609 135.309 178.667 135.377 178.714C135.451 178.755 135.559 178.802 135.701 178.856C135.849 178.91 136.049 178.971 136.299 179.038C136.623 179.126 136.896 179.224 137.119 179.332C137.349 179.44 137.531 179.565 137.666 179.707C137.781 179.829 137.866 179.967 137.92 180.122C137.974 180.278 138.001 180.45 138.001 180.639C138.001 180.97 137.906 181.267 137.717 181.531C137.535 181.787 137.281 181.99 136.957 182.139C136.633 182.28 136.268 182.351 135.863 182.351ZM139.655 182.25V176.89H141.093V182.25H139.655ZM140.364 175.786C140.087 175.786 139.871 175.718 139.715 175.583C139.56 175.448 139.482 175.256 139.482 175.006C139.482 174.776 139.56 174.59 139.715 174.449C139.877 174.3 140.094 174.226 140.364 174.226C140.641 174.226 140.857 174.297 141.012 174.438C141.168 174.574 141.245 174.763 141.245 175.006C141.245 175.242 141.164 175.431 141.002 175.573C140.847 175.715 140.634 175.786 140.364 175.786ZM145.578 184.58C145.153 184.58 144.734 184.516 144.322 184.388C143.91 184.266 143.575 184.107 143.319 183.912L143.825 182.878C143.96 182.973 144.116 183.057 144.291 183.131C144.467 183.206 144.649 183.263 144.839 183.304C145.034 183.344 145.234 183.364 145.436 183.364C145.788 183.364 146.075 183.31 146.298 183.202C146.527 183.094 146.699 182.932 146.814 182.716C146.929 182.507 146.986 182.236 146.986 181.906V180.973L147.23 181.024C147.189 181.247 147.078 181.453 146.895 181.642C146.713 181.824 146.483 181.973 146.206 182.088C145.929 182.196 145.646 182.25 145.355 182.25C144.855 182.25 144.413 182.135 144.028 181.906C143.643 181.676 143.339 181.358 143.116 180.953C142.893 180.548 142.782 180.082 142.782 179.555C142.782 179.015 142.89 178.538 143.106 178.126C143.329 177.708 143.63 177.38 144.008 177.144C144.393 176.9 144.828 176.779 145.315 176.779C145.517 176.779 145.71 176.803 145.892 176.85C146.081 176.897 146.254 176.965 146.409 177.052C146.571 177.134 146.713 177.228 146.834 177.336C146.963 177.437 147.068 177.549 147.149 177.67C147.23 177.792 147.28 177.914 147.301 178.035L147.007 178.116L147.047 176.89H148.425V181.845C148.425 182.284 148.361 182.672 148.233 183.01C148.104 183.348 147.915 183.631 147.665 183.861C147.422 184.097 147.122 184.276 146.764 184.398C146.412 184.519 146.017 184.58 145.578 184.58ZM145.619 181.095C145.902 181.095 146.149 181.031 146.358 180.902C146.574 180.774 146.74 180.595 146.855 180.366C146.97 180.136 147.027 179.866 147.027 179.555C147.027 179.251 146.97 178.984 146.855 178.755C146.74 178.518 146.574 178.336 146.358 178.207C146.149 178.079 145.902 178.015 145.619 178.015C145.342 178.015 145.095 178.083 144.879 178.218C144.67 178.346 144.508 178.525 144.393 178.755C144.278 178.984 144.221 179.251 144.221 179.555C144.221 179.859 144.278 180.129 144.393 180.366C144.508 180.595 144.67 180.774 144.879 180.902C145.095 181.031 145.342 181.095 145.619 181.095ZM150.361 182.25V176.89H151.739L151.78 177.985L151.496 178.106C151.57 177.863 151.702 177.643 151.891 177.448C152.087 177.245 152.32 177.083 152.59 176.961C152.86 176.84 153.144 176.779 153.441 176.779C153.846 176.779 154.184 176.86 154.454 177.022C154.731 177.184 154.937 177.431 155.072 177.762C155.214 178.086 155.285 178.488 155.285 178.967V182.25H153.846V179.079C153.846 178.836 153.813 178.633 153.745 178.471C153.678 178.309 153.573 178.191 153.431 178.116C153.296 178.035 153.127 178.001 152.924 178.015C152.762 178.015 152.61 178.042 152.469 178.096C152.333 178.143 152.215 178.214 152.114 178.309C152.019 178.403 151.942 178.511 151.881 178.633C151.827 178.755 151.8 178.886 151.8 179.028V182.25H151.091C150.935 182.25 150.797 182.25 150.675 182.25C150.554 182.25 150.449 182.25 150.361 182.25ZM163.276 182.351C162.729 182.351 162.239 182.233 161.807 181.997C161.381 181.754 161.044 181.423 160.794 181.004C160.551 180.585 160.429 180.105 160.429 179.565C160.429 179.025 160.551 178.549 160.794 178.137C161.044 177.718 161.381 177.387 161.807 177.144C162.239 176.9 162.729 176.779 163.276 176.779C163.816 176.779 164.299 176.9 164.725 177.144C165.157 177.387 165.495 177.718 165.738 178.137C165.981 178.549 166.103 179.025 166.103 179.565C166.103 180.105 165.981 180.585 165.738 181.004C165.495 181.423 165.157 181.754 164.725 181.997C164.299 182.233 163.816 182.351 163.276 182.351ZM163.276 181.095C163.54 181.095 163.776 181.031 163.985 180.902C164.195 180.767 164.357 180.585 164.472 180.355C164.593 180.119 164.654 179.856 164.654 179.565C164.654 179.268 164.593 179.004 164.472 178.775C164.357 178.538 164.195 178.356 163.985 178.228C163.776 178.093 163.54 178.025 163.276 178.025C163.006 178.025 162.766 178.093 162.557 178.228C162.347 178.363 162.182 178.545 162.06 178.775C161.939 179.004 161.881 179.268 161.888 179.565C161.881 179.856 161.939 180.119 162.06 180.355C162.182 180.585 162.347 180.767 162.557 180.902C162.766 181.031 163.006 181.095 163.276 181.095ZM167.909 182.25V176.515C167.909 176.185 167.984 175.884 168.132 175.614C168.281 175.344 168.483 175.131 168.74 174.975C169.004 174.82 169.311 174.742 169.662 174.742C169.899 174.742 170.121 174.783 170.331 174.864C170.54 174.938 170.719 175.043 170.868 175.178L170.442 176.232C170.354 176.178 170.263 176.134 170.169 176.1C170.081 176.06 170 176.039 169.926 176.039C169.797 176.039 169.689 176.063 169.601 176.11C169.52 176.151 169.46 176.215 169.419 176.303C169.378 176.384 169.358 176.488 169.358 176.617V182.25H168.639C168.483 182.25 168.345 182.25 168.223 182.25C168.102 182.25 167.997 182.25 167.909 182.25ZM167.109 178.238V177.022H170.513V178.238H167.109ZM176.108 182.25V175.533H177.547V182.25H176.108ZM175.105 178.177V176.89H178.641V178.177H175.105ZM180.085 182.25V174.753H181.504V177.985L181.22 178.106C181.294 177.863 181.426 177.643 181.615 177.448C181.811 177.245 182.044 177.083 182.314 176.961C182.584 176.84 182.868 176.779 183.165 176.779C183.571 176.779 183.908 176.86 184.179 177.022C184.455 177.184 184.661 177.431 184.797 177.762C184.938 178.086 185.009 178.488 185.009 178.967V182.25H183.571V179.079C183.571 178.836 183.537 178.633 183.469 178.471C183.402 178.309 183.297 178.191 183.155 178.116C183.02 178.035 182.851 178.001 182.649 178.015C182.487 178.015 182.335 178.042 182.193 178.096C182.058 178.143 181.939 178.214 181.838 178.309C181.744 178.403 181.666 178.511 181.605 178.633C181.551 178.755 181.524 178.886 181.524 179.028V182.25H180.815C180.659 182.25 180.521 182.25 180.399 182.25C180.278 182.25 180.173 182.25 180.085 182.25ZM189.438 182.351C188.857 182.351 188.35 182.233 187.918 181.997C187.486 181.76 187.148 181.436 186.905 181.024C186.661 180.612 186.54 180.139 186.54 179.606C186.54 179.194 186.607 178.815 186.743 178.471C186.878 178.126 187.067 177.829 187.31 177.579C187.553 177.323 187.84 177.127 188.171 176.992C188.509 176.85 188.874 176.779 189.265 176.779C189.63 176.779 189.968 176.846 190.278 176.982C190.589 177.11 190.856 177.296 191.079 177.539C191.309 177.775 191.484 178.055 191.606 178.38C191.727 178.704 191.781 179.059 191.768 179.444L191.758 179.889H187.452L187.219 179.008H190.572L190.41 179.19V178.967C190.397 178.785 190.336 178.619 190.228 178.471C190.127 178.322 189.995 178.207 189.833 178.126C189.671 178.045 189.488 178.005 189.286 178.005C188.988 178.005 188.735 178.062 188.526 178.177C188.323 178.292 188.168 178.461 188.06 178.684C187.952 178.907 187.898 179.177 187.898 179.494C187.898 179.818 187.965 180.099 188.1 180.335C188.242 180.572 188.438 180.757 188.688 180.892C188.944 181.021 189.245 181.085 189.59 181.085C189.826 181.085 190.042 181.048 190.238 180.973C190.434 180.899 190.643 180.771 190.866 180.588L191.555 181.551C191.359 181.727 191.143 181.875 190.907 181.997C190.67 182.112 190.427 182.199 190.177 182.26C189.927 182.321 189.681 182.351 189.438 182.351ZM199.453 182.351C199.014 182.351 198.613 182.297 198.248 182.189C197.89 182.081 197.569 181.922 197.285 181.713C197.008 181.504 196.758 181.25 196.536 180.953L197.488 179.869C197.819 180.328 198.147 180.642 198.471 180.811C198.802 180.973 199.16 181.054 199.545 181.054C199.754 181.054 199.94 181.027 200.102 180.973C200.271 180.913 200.402 180.828 200.497 180.72C200.592 180.612 200.639 180.484 200.639 180.335C200.639 180.227 200.615 180.129 200.568 180.041C200.521 179.947 200.453 179.866 200.365 179.798C200.278 179.724 200.173 179.66 200.051 179.606C199.93 179.545 199.795 179.494 199.646 179.454C199.497 179.406 199.335 179.369 199.16 179.342C198.781 179.254 198.45 179.15 198.167 179.028C197.883 178.9 197.647 178.744 197.458 178.562C197.268 178.373 197.127 178.16 197.032 177.924C196.944 177.687 196.9 177.421 196.9 177.123C196.9 176.819 196.968 176.539 197.103 176.282C197.238 176.019 197.424 175.793 197.66 175.604C197.903 175.415 198.18 175.269 198.491 175.168C198.808 175.067 199.143 175.016 199.494 175.016C199.926 175.016 200.305 175.067 200.629 175.168C200.953 175.263 201.233 175.401 201.47 175.583C201.713 175.766 201.915 175.989 202.078 176.252L201.115 177.184C200.973 176.995 200.818 176.836 200.649 176.708C200.487 176.58 200.308 176.485 200.112 176.424C199.923 176.357 199.727 176.323 199.524 176.323C199.302 176.323 199.109 176.353 198.947 176.414C198.785 176.468 198.656 176.549 198.562 176.657C198.474 176.765 198.43 176.897 198.43 177.052C198.43 177.174 198.461 177.282 198.521 177.377C198.582 177.471 198.67 177.556 198.785 177.63C198.9 177.698 199.038 177.758 199.2 177.812C199.362 177.866 199.541 177.914 199.737 177.954C200.109 178.028 200.443 178.126 200.74 178.248C201.037 178.37 201.291 178.518 201.5 178.694C201.716 178.863 201.882 179.065 201.997 179.302C202.111 179.531 202.169 179.791 202.169 180.082C202.169 180.561 202.054 180.97 201.824 181.308C201.595 181.645 201.277 181.906 200.872 182.088C200.467 182.264 199.994 182.351 199.453 182.351ZM205.693 182.351C205.301 182.351 204.964 182.267 204.68 182.098C204.403 181.922 204.187 181.676 204.032 181.358C203.883 181.034 203.809 180.646 203.809 180.193V176.89H205.247V179.96C205.247 180.203 205.288 180.416 205.369 180.599C205.45 180.774 205.565 180.909 205.713 181.004C205.862 181.098 206.044 181.146 206.261 181.146C206.416 181.146 206.561 181.122 206.696 181.075C206.831 181.021 206.946 180.946 207.041 180.852C207.135 180.757 207.21 180.646 207.264 180.517C207.318 180.389 207.345 180.251 207.345 180.102V176.89H208.783V182.25H207.416L207.365 181.146L207.628 181.024C207.547 181.274 207.412 181.5 207.223 181.703C207.034 181.906 206.808 182.064 206.544 182.179C206.281 182.294 205.997 182.351 205.693 182.351ZM210.738 184.479V176.89H212.126L212.166 178.096L211.903 178.005C211.95 177.789 212.065 177.589 212.247 177.407C212.436 177.225 212.669 177.076 212.946 176.961C213.223 176.846 213.514 176.789 213.818 176.789C214.284 176.789 214.696 176.911 215.054 177.154C215.418 177.39 215.705 177.718 215.915 178.137C216.131 178.549 216.239 179.025 216.239 179.565C216.239 180.099 216.134 180.575 215.925 180.994C215.716 181.412 215.429 181.743 215.064 181.987C214.699 182.223 214.284 182.341 213.818 182.341C213.507 182.341 213.21 182.284 212.926 182.169C212.649 182.047 212.413 181.889 212.217 181.693C212.021 181.497 211.899 181.287 211.852 181.065L212.186 180.923V184.479H210.738ZM213.493 181.105C213.757 181.105 213.99 181.041 214.192 180.913C214.395 180.784 214.554 180.605 214.669 180.376C214.783 180.139 214.841 179.869 214.841 179.565C214.841 179.261 214.783 178.994 214.669 178.765C214.554 178.535 214.395 178.356 214.192 178.228C213.997 178.099 213.764 178.035 213.493 178.035C213.223 178.035 212.987 178.099 212.784 178.228C212.582 178.349 212.423 178.528 212.308 178.765C212.193 178.994 212.136 179.261 212.136 179.565C212.136 179.869 212.193 180.139 212.308 180.376C212.423 180.605 212.582 180.784 212.784 180.913C212.987 181.041 213.223 181.105 213.493 181.105ZM220.377 182.351C219.796 182.351 219.289 182.233 218.857 181.997C218.425 181.76 218.087 181.436 217.844 181.024C217.601 180.612 217.479 180.139 217.479 179.606C217.479 179.194 217.547 178.815 217.682 178.471C217.817 178.126 218.006 177.829 218.249 177.579C218.492 177.323 218.779 177.127 219.11 176.992C219.448 176.85 219.813 176.779 220.204 176.779C220.569 176.779 220.907 176.846 221.218 176.982C221.528 177.11 221.795 177.296 222.018 177.539C222.248 177.775 222.423 178.055 222.545 178.38C222.666 178.704 222.721 179.059 222.707 179.444L222.697 179.889H218.391L218.158 179.008H221.511L221.349 179.19V178.967C221.336 178.785 221.275 178.619 221.167 178.471C221.066 178.322 220.934 178.207 220.772 178.126C220.61 178.045 220.427 178.005 220.225 178.005C219.928 178.005 219.674 178.062 219.465 178.177C219.262 178.292 219.107 178.461 218.999 178.684C218.891 178.907 218.837 179.177 218.837 179.494C218.837 179.818 218.904 180.099 219.039 180.335C219.181 180.572 219.377 180.757 219.627 180.892C219.884 181.021 220.184 181.085 220.529 181.085C220.765 181.085 220.981 181.048 221.177 180.973C221.373 180.899 221.582 180.771 221.805 180.588L222.494 181.551C222.298 181.727 222.082 181.875 221.846 181.997C221.609 182.112 221.366 182.199 221.116 182.26C220.866 182.321 220.62 182.351 220.377 182.351ZM224.277 182.25V176.89H225.665L225.715 178.613L225.472 178.258C225.553 177.981 225.685 177.731 225.867 177.508C226.05 177.279 226.263 177.1 226.506 176.971C226.756 176.843 227.016 176.779 227.286 176.779C227.401 176.779 227.512 176.789 227.62 176.809C227.728 176.83 227.819 176.853 227.894 176.88L227.509 178.461C227.428 178.42 227.33 178.386 227.215 178.359C227.1 178.326 226.982 178.309 226.86 178.309C226.698 178.309 226.546 178.339 226.404 178.4C226.269 178.454 226.151 178.535 226.05 178.643C225.948 178.744 225.867 178.866 225.807 179.008C225.753 179.15 225.726 179.305 225.726 179.474V182.25H224.277ZM231.412 182.25L229.163 176.89H230.744L232.172 180.892L231.838 180.953L233.337 176.89H234.877L232.517 182.25H231.412ZM236.384 182.25V176.89H237.823V182.25H236.384ZM237.093 175.786C236.816 175.786 236.6 175.718 236.445 175.583C236.29 175.448 236.212 175.256 236.212 175.006C236.212 174.776 236.29 174.59 236.445 174.449C236.607 174.3 236.823 174.226 237.093 174.226C237.37 174.226 237.586 174.297 237.742 174.438C237.897 174.574 237.975 174.763 237.975 175.006C237.975 175.242 237.894 175.431 237.732 175.573C237.576 175.715 237.364 175.786 237.093 175.786ZM241.669 182.351C241.17 182.351 240.724 182.27 240.332 182.108C239.947 181.939 239.636 181.71 239.4 181.419L240.292 180.649C240.501 180.872 240.734 181.034 240.991 181.136C241.247 181.23 241.504 181.277 241.761 181.277C241.862 181.277 241.953 181.267 242.034 181.247C242.122 181.22 242.196 181.186 242.257 181.146C242.318 181.098 242.362 181.044 242.389 180.984C242.423 180.916 242.44 180.845 242.44 180.771C242.44 180.622 242.379 180.504 242.257 180.416C242.19 180.382 242.085 180.342 241.943 180.295C241.801 180.241 241.619 180.183 241.396 180.122C241.051 180.035 240.758 179.933 240.514 179.818C240.278 179.697 240.089 179.562 239.947 179.413C239.826 179.271 239.731 179.119 239.663 178.957C239.603 178.788 239.572 178.603 239.572 178.4C239.572 178.157 239.626 177.937 239.734 177.741C239.842 177.539 239.991 177.367 240.18 177.225C240.376 177.083 240.599 176.975 240.849 176.9C241.099 176.819 241.362 176.779 241.639 176.779C241.916 176.779 242.186 176.813 242.45 176.88C242.713 176.948 242.956 177.046 243.179 177.174C243.409 177.296 243.608 177.441 243.777 177.61L243.007 178.461C242.885 178.346 242.747 178.241 242.591 178.147C242.443 178.052 242.288 177.978 242.125 177.924C241.963 177.87 241.818 177.843 241.69 177.843C241.575 177.843 241.47 177.853 241.376 177.873C241.288 177.893 241.214 177.924 241.153 177.964C241.092 178.005 241.045 178.059 241.011 178.126C240.984 178.187 240.97 178.255 240.97 178.329C240.97 178.403 240.987 178.474 241.021 178.542C241.062 178.609 241.116 178.667 241.183 178.714C241.257 178.755 241.366 178.802 241.507 178.856C241.656 178.91 241.855 178.971 242.105 179.038C242.429 179.126 242.703 179.224 242.926 179.332C243.155 179.44 243.338 179.565 243.473 179.707C243.588 179.829 243.672 179.967 243.726 180.122C243.78 180.278 243.807 180.45 243.807 180.639C243.807 180.97 243.713 181.267 243.524 181.531C243.341 181.787 243.088 181.99 242.764 182.139C242.44 182.28 242.075 182.351 241.669 182.351ZM247.832 182.351C247.285 182.351 246.795 182.233 246.363 181.997C245.937 181.754 245.6 181.423 245.35 181.004C245.107 180.585 244.985 180.105 244.985 179.565C244.985 179.025 245.107 178.549 245.35 178.137C245.6 177.718 245.937 177.387 246.363 177.144C246.795 176.9 247.285 176.779 247.832 176.779C248.372 176.779 248.855 176.9 249.281 177.144C249.713 177.387 250.051 177.718 250.294 178.137C250.537 178.549 250.659 179.025 250.659 179.565C250.659 180.105 250.537 180.585 250.294 181.004C250.051 181.423 249.713 181.754 249.281 181.997C248.855 182.233 248.372 182.351 247.832 182.351ZM247.832 181.095C248.095 181.095 248.332 181.031 248.541 180.902C248.751 180.767 248.913 180.585 249.027 180.355C249.149 180.119 249.21 179.856 249.21 179.565C249.21 179.268 249.149 179.004 249.027 178.775C248.913 178.538 248.751 178.356 248.541 178.228C248.332 178.093 248.095 178.025 247.832 178.025C247.562 178.025 247.322 178.093 247.113 178.228C246.903 178.363 246.738 178.545 246.616 178.775C246.495 179.004 246.437 179.268 246.444 179.565C246.437 179.856 246.495 180.119 246.616 180.355C246.738 180.585 246.903 180.767 247.113 180.902C247.322 181.031 247.562 181.095 247.832 181.095ZM252.248 182.25V176.89H253.636L253.686 178.613L253.443 178.258C253.524 177.981 253.656 177.731 253.838 177.508C254.021 177.279 254.233 177.1 254.477 176.971C254.727 176.843 254.987 176.779 255.257 176.779C255.372 176.779 255.483 176.789 255.591 176.809C255.699 176.83 255.79 176.853 255.865 176.88L255.48 178.461C255.399 178.42 255.301 178.386 255.186 178.359C255.071 178.326 254.953 178.309 254.831 178.309C254.669 178.309 254.517 178.339 254.375 178.4C254.24 178.454 254.122 178.535 254.021 178.643C253.919 178.744 253.838 178.866 253.778 179.008C253.724 179.15 253.696 179.305 253.696 179.474V182.25H252.248ZM257.661 177.752L257.225 177.215C257.502 177.093 257.725 176.948 257.894 176.779C258.069 176.61 258.157 176.465 258.157 176.343C258.157 176.262 258.127 176.188 258.066 176.12C258.012 176.046 257.941 175.982 257.853 175.928C257.698 175.806 257.59 175.698 257.529 175.604C257.475 175.502 257.448 175.394 257.448 175.279C257.448 175.084 257.516 174.928 257.651 174.813C257.793 174.699 257.975 174.641 258.198 174.641C258.4 174.641 258.579 174.695 258.735 174.803C258.897 174.905 259.025 175.05 259.12 175.239C259.214 175.421 259.262 175.634 259.262 175.877C259.262 176.08 259.221 176.279 259.14 176.475C259.059 176.664 258.944 176.843 258.796 177.012C258.654 177.181 258.485 177.329 258.289 177.458C258.1 177.586 257.89 177.684 257.661 177.752ZM262.693 182.351C262.193 182.351 261.747 182.27 261.355 182.108C260.97 181.939 260.66 181.71 260.423 181.419L261.315 180.649C261.524 180.872 261.757 181.034 262.014 181.136C262.271 181.23 262.527 181.277 262.784 181.277C262.885 181.277 262.976 181.267 263.057 181.247C263.145 181.22 263.22 181.186 263.28 181.146C263.341 181.098 263.385 181.044 263.412 180.984C263.446 180.916 263.463 180.845 263.463 180.771C263.463 180.622 263.402 180.504 263.28 180.416C263.213 180.382 263.108 180.342 262.966 180.295C262.824 180.241 262.642 180.183 262.419 180.122C262.075 180.035 261.781 179.933 261.538 179.818C261.301 179.697 261.112 179.562 260.97 179.413C260.849 179.271 260.754 179.119 260.687 178.957C260.626 178.788 260.595 178.603 260.595 178.4C260.595 178.157 260.649 177.937 260.758 177.741C260.866 177.539 261.014 177.367 261.203 177.225C261.399 177.083 261.622 176.975 261.872 176.9C262.122 176.819 262.385 176.779 262.662 176.779C262.939 176.779 263.209 176.813 263.473 176.88C263.736 176.948 263.979 177.046 264.202 177.174C264.432 177.296 264.631 177.441 264.8 177.61L264.03 178.461C263.909 178.346 263.77 178.241 263.615 178.147C263.466 178.052 263.311 177.978 263.149 177.924C262.987 177.87 262.841 177.843 262.713 177.843C262.598 177.843 262.493 177.853 262.399 177.873C262.311 177.893 262.237 177.924 262.176 177.964C262.115 178.005 262.068 178.059 262.034 178.126C262.007 178.187 261.994 178.255 261.994 178.329C261.994 178.403 262.011 178.474 262.044 178.542C262.085 178.609 262.139 178.667 262.206 178.714C262.281 178.755 262.389 178.802 262.531 178.856C262.679 178.91 262.878 178.971 263.128 179.038C263.453 179.126 263.726 179.224 263.949 179.332C264.179 179.44 264.361 179.565 264.496 179.707C264.611 179.829 264.695 179.967 264.749 180.122C264.803 180.278 264.83 180.45 264.83 180.639C264.83 180.97 264.736 181.267 264.547 181.531C264.364 181.787 264.111 181.99 263.787 182.139C263.463 182.28 263.098 182.351 262.693 182.351Z" fill="#5C708E"/>
<path d="M103.525 143.404C39.2948 120.28 -3.86909 85.8521 6.92021 73.5195C0.754533 75.2324 -5.81926 86.2632 8.97836 102.295C23.776 118.328 62.9322 143.404 99.93 157.278L103.525 143.404Z" fill="url(#paint0_linear_558_4122)"/>
<path d="M21.3116 150.081C35.1857 155.22 85.8166 119.764 104.315 93.043L97.6353 101.265C97.6353 101.265 50.0875 137.235 29.5333 135.693C15.6592 134.653 14.1176 119.078 15.6592 112.056C12.9186 123.018 10.2123 145.97 21.3116 150.081Z" fill="url(#paint1_linear_558_4122)"/>
<path d="M118.43 85.3365C99.9316 112.057 35.1857 155.221 21.3116 150.082C10.2123 145.972 12.9186 123.019 15.6592 112.057C14.1176 119.08 15.6592 134.654 29.5333 135.694C48.0159 137.081 114.281 95.2554 112.132 73.7337L108.667 67.3516C110.791 69.1642 111.891 71.3214 112.132 73.7337L118.43 85.3365Z" fill="url(#paint2_linear_558_4122)"/>
<path d="M51.9102 52.4478C84.2831 89.9593 109.189 140.831 92.2318 154.191C107.134 162.413 113.3 161.916 113.3 151.622C113.3 126.957 81.7138 75.5714 58.5903 50.9062H54.9933L51.9102 52.4478Z" fill="url(#paint3_linear_558_4122)"/>
<path d="M92.8012 70.3684C40.9861 70.3684 19.1288 78.9826 7.63862 86.1908L4.90864 82.3176C3.09755 79.7481 2.61596 76.3722 5.21043 74.597C22.1873 62.9814 101.062 53.6578 117.133 60.3467C136.042 68.2169 121.865 83.3781 111.557 93.0477C120.915 82.4993 112.854 70.3684 92.8012 70.3684Z" fill="url(#paint4_linear_558_4122)"/>
<path d="M58.3063 50.91C29.0165 52.9654 16.875 130.498 28.6875 135.561C24.5135 135.561 20.6595 133.324 18.5886 129.7L15.1875 123.748V116.998C18.5625 78.1857 35.6947 47.3127 43.4045 43.7157C49.5724 40.8381 56.5948 47.6555 58.3063 50.91Z" fill="url(#paint5_linear_558_4122)"/>
<path d="M57.376 123.746C28.6885 106.871 16.876 96.7461 13.502 93.3711C7.33637 95.0839 8.98002 102.293 8.98002 102.293C18.5635 113.621 32.0635 120.371 45.5635 130.496L57.376 123.746Z" fill="url(#paint6_linear_558_4122)"/>
<defs>
<linearGradient id="paint0_linear_558_4122" x1="51.7626" y1="73.5195" x2="51.7626" y2="157.278" gradientUnits="userSpaceOnUse">
<stop stop-color="#E43787"/>
<stop offset="0.525" stop-color="#883B8D"/>
<stop offset="1" stop-color="#1D00E3"/>
</linearGradient>
<linearGradient id="paint1_linear_558_4122" x1="21.0707" y1="146.998" x2="119.731" y2="84.8213" gradientUnits="userSpaceOnUse">
<stop stop-color="#41BB56"/>
<stop offset="1" stop-color="#BEAC30"/>
</linearGradient>
<linearGradient id="paint2_linear_558_4122" x1="21.0707" y1="146.999" x2="119.731" y2="84.8227" gradientUnits="userSpaceOnUse">
<stop stop-color="#41BB56"/>
<stop offset="1" stop-color="#BEAC30"/>
</linearGradient>
<linearGradient id="paint3_linear_558_4122" x1="82.2116" y1="46.2815" x2="82.2116" y2="159.898" gradientUnits="userSpaceOnUse">
<stop stop-color="#50A6B3"/>
<stop offset="0.495" stop-color="#3A6FAB"/>
<stop offset="1" stop-color="#0057D9"/>
</linearGradient>
<linearGradient id="paint4_linear_558_4122" x1="2.0625" y1="75.5766" x2="126.416" y2="75.5766" gradientUnits="userSpaceOnUse">
<stop stop-color="#82141D"/>
<stop offset="0.07" stop-color="#B02A20"/>
<stop offset="0.49" stop-color="#F48D24"/>
<stop offset="1" stop-color="#F2DA16"/>
</linearGradient>
<linearGradient id="paint5_linear_558_4122" x1="36.6298" y1="43.0234" x2="36.6298" y2="140.834" gradientUnits="userSpaceOnUse">
<stop stop-color="#62CBE6"/>
<stop offset="1" stop-color="#067330"/>
</linearGradient>
<linearGradient id="paint6_linear_558_4122" x1="51.7636" y1="73.5174" x2="51.7636" y2="157.276" gradientUnits="userSpaceOnUse">
<stop stop-color="#E43787"/>
<stop offset="0.525" stop-color="#883B8D"/>
<stop offset="1" stop-color="#1D00E3"/>
</linearGradient>
</defs>
</svg>
