<svg width="1143" height="317" viewBox="0 0 1143 317" fill="none" xmlns="http://www.w3.org/2000/svg">
<path d="M309.653 59.24L309.591 60.5695L309.653 59.24ZM752.837 314.77L752.76 313.441L752.837 314.77ZM905.889 144.86L904.559 144.898L905.889 144.86ZM752.837 8.22276L753.315 9.46494L752.837 8.22276ZM779.011 144.86L779.228 143.547L779.011 144.86ZM1141.77 60.774C1142.38 60.3526 1142.52 59.5228 1142.1 58.9206L1135.23 49.1069C1134.81 48.5047 1133.98 48.3581 1133.38 48.7795C1132.78 49.201 1132.63 50.0308 1133.05 50.633L1139.16 59.3563L1130.44 65.4608C1129.83 65.8822 1129.69 66.712 1130.11 67.3143C1130.53 67.9165 1131.36 68.063 1131.96 67.6416L1141.77 60.774ZM3.52198 312.562C3.98525 311.991 3.8982 311.153 3.32754 310.69C2.75689 310.226 1.91873 310.313 1.45546 310.884L3.52198 312.562ZM6.35251 304.78C5.89579 305.356 5.9924 306.193 6.5683 306.65C7.14421 307.107 7.98132 307.01 8.43805 306.434L6.35251 304.78ZM13.2892 300.249C13.7397 299.668 13.6342 298.832 13.0534 298.382C12.4727 297.931 11.6366 298.037 11.1861 298.617L13.2892 300.249ZM15.95 292.412C15.5052 292.998 15.6191 293.833 16.2043 294.277C16.7895 294.722 17.6244 294.608 18.0692 294.023L15.95 292.412ZM22.798 287.741C23.2374 287.151 23.1159 286.318 22.5267 285.878C21.9374 285.439 21.1036 285.56 20.6642 286.15L22.798 287.741ZM25.3118 279.861C24.8773 280.454 25.0058 281.287 25.5987 281.722C26.1915 282.156 27.0244 282.028 27.4588 281.435L25.3118 279.861ZM32.0838 275.072C32.5137 274.476 32.379 273.644 31.7829 273.214C31.1867 272.784 30.3549 272.919 29.9249 273.515L32.0838 275.072ZM34.4781 267.156C34.0521 267.755 34.1924 268.586 34.7914 269.012C35.3904 269.438 36.2213 269.298 36.6473 268.699L34.4781 267.156ZM41.1854 262.277C41.6079 261.675 41.4628 260.845 40.8613 260.423C40.2598 260 39.4298 260.145 39.0073 260.747L41.1854 262.277ZM43.4909 254.329C43.0714 254.933 43.2206 255.762 43.8242 256.181C44.4277 256.601 45.2571 256.452 45.6766 255.848L43.4909 254.329ZM50.1457 249.39C50.5628 248.785 50.4103 247.956 49.805 247.539C49.1998 247.122 48.371 247.274 47.954 247.88L50.1457 249.39ZM52.3914 241.418C51.9762 242.025 52.1312 242.853 52.7377 243.268C53.3442 243.684 54.1725 243.529 54.5877 242.922L52.3914 241.418ZM59.0107 236.446C59.4247 235.839 59.2679 235.011 58.6605 234.597C58.0532 234.183 57.2252 234.34 56.8112 234.947L59.0107 236.446ZM61.2278 228.459C60.8145 229.067 60.9721 229.894 61.5799 230.308C62.1877 230.721 63.0155 230.563 63.4288 229.956L61.2278 228.459ZM67.8302 223.482C68.2435 222.874 68.0858 222.047 67.478 221.633C66.8702 221.22 66.0424 221.378 65.6291 221.985L67.8302 223.482ZM70.0523 215.487C69.6383 216.095 69.7951 216.923 70.4024 217.337C71.0098 217.751 71.8377 217.594 72.2517 216.987L70.0523 215.487ZM76.6673 210.522C77.0826 209.916 76.9277 209.088 76.3212 208.672C75.7148 208.257 74.8865 208.412 74.4712 209.018L76.6673 210.522ZM78.9208 202.543C78.5034 203.148 78.6556 203.977 79.2606 204.394C79.8656 204.812 80.6945 204.66 81.1118 204.055L78.9208 202.543ZM85.5756 197.614C85.9957 197.011 85.8474 196.182 85.2443 195.761C84.6412 195.341 83.8117 195.49 83.3915 196.093L85.5756 197.614ZM87.8936 189.669C87.4699 190.27 87.6133 191.1 88.2139 191.524C88.8145 191.948 89.6449 191.804 90.0686 191.204L87.8936 189.669ZM94.6131 184.81C95.0411 184.212 94.9037 183.381 94.3062 182.953C93.7087 182.525 92.8773 182.662 92.4492 183.26L94.6131 184.81ZM97.0404 176.907C96.6072 177.501 96.7374 178.334 97.3312 178.767C97.925 179.2 98.7576 179.07 99.1908 178.476L97.0404 176.907ZM103.845 172.162C104.285 171.573 104.163 170.739 103.573 170.3C102.984 169.861 102.15 169.982 101.711 170.572L103.845 172.162ZM106.441 164.3C105.995 164.884 106.107 165.719 106.691 166.165C107.275 166.611 108.111 166.499 108.557 165.915L106.441 164.3ZM113.342 159.732C113.795 159.154 113.695 158.318 113.116 157.864C112.538 157.41 111.701 157.511 111.248 158.089L113.342 159.732ZM116.155 151.931C115.692 152.502 115.781 153.34 116.352 153.802C116.923 154.265 117.761 154.177 118.224 153.605L116.155 151.931ZM123.186 147.577C123.658 147.014 123.584 146.174 123.02 145.702C122.457 145.23 121.618 145.304 121.146 145.868L123.186 147.577ZM126.257 139.878C125.775 140.432 125.833 141.273 126.388 141.755C126.942 142.238 127.783 142.179 128.266 141.625L126.257 139.878ZM133.456 135.779C133.95 135.234 133.908 134.392 133.364 133.899C132.819 133.405 131.978 133.446 131.484 133.991L133.456 135.779ZM136.825 128.229C136.32 128.762 136.342 129.605 136.875 130.111C137.408 130.617 138.251 130.594 138.757 130.061L136.825 128.229ZM144.21 124.45C144.728 123.93 144.727 123.087 144.206 122.568C143.686 122.049 142.843 122.051 142.324 122.572L144.21 124.45ZM147.956 117.067C147.424 117.573 147.403 118.416 147.909 118.948C148.416 119.481 149.258 119.502 149.791 118.995L147.956 117.067ZM155.515 113.702C156.062 113.211 156.107 112.37 155.616 111.823C155.125 111.276 154.283 111.231 153.736 111.722L155.515 113.702ZM159.686 106.54C159.125 107.014 159.054 107.853 159.528 108.415C160.002 108.977 160.841 109.048 161.403 108.574L159.686 106.54ZM167.441 103.644C168.018 103.188 168.116 102.352 167.661 101.775C167.206 101.198 166.369 101.099 165.792 101.555L167.441 103.644ZM172.066 96.7752C171.473 97.2104 171.346 98.0433 171.781 98.6357C172.216 99.2281 173.049 99.3556 173.641 98.9205L172.066 96.7752ZM180.004 94.4216C180.612 94.0083 180.77 93.1805 180.356 92.5727C179.943 91.9648 179.115 91.8071 178.507 92.2204L180.004 94.4216ZM185.115 87.9079C184.492 88.2978 184.303 89.119 184.693 89.7421C185.083 90.3652 185.904 90.5542 186.527 90.1643L185.115 87.9079ZM193.212 86.1604C193.85 85.7952 194.071 84.9821 193.706 84.3442C193.341 83.7063 192.528 83.4851 191.89 83.8503L193.212 86.1604ZM198.811 80.0709C198.159 80.4101 197.905 81.2137 198.244 81.8657C198.583 82.5178 199.387 82.7715 200.039 82.4323L198.811 80.0709ZM207.022 78.9795C207.688 78.6673 207.974 77.8748 207.662 77.2093C207.35 76.5439 206.557 76.2575 205.892 76.5697L207.022 78.9795ZM213.111 73.3638C212.433 73.6482 212.114 74.4282 212.398 75.1059C212.683 75.7837 213.463 76.1027 214.14 75.8183L213.111 73.3638ZM221.366 72.9609C222.055 72.7048 222.406 71.9386 222.15 71.2497C221.894 70.5607 221.128 70.2098 220.439 70.4659L221.366 72.9609ZM227.915 67.8612C227.216 68.0887 226.834 68.8397 227.061 69.5386C227.289 70.2376 228.04 70.6197 228.739 70.3922L227.915 67.8612ZM236.173 68.1381C236.881 67.939 237.293 67.204 237.094 66.4965C236.895 65.7889 236.16 65.3767 235.452 65.5758L236.173 68.1381ZM243.085 63.5911C242.371 63.762 241.93 64.48 242.101 65.1949C242.271 65.9098 242.989 66.3508 243.704 66.1799L243.085 63.5911ZM251.344 64.51C252.065 64.3669 252.533 63.6664 252.39 62.9455C252.247 62.2245 251.547 61.7561 250.826 61.8992L251.344 64.51ZM258.55 60.515C257.824 60.6313 257.33 61.3139 257.447 62.0397C257.563 62.7654 258.246 63.2595 258.971 63.1432L258.55 60.515ZM266.732 62.0434C267.461 61.9533 267.98 61.2889 267.89 60.5594C267.8 59.8299 267.135 59.3116 266.406 59.4017L266.732 62.0434ZM274.203 58.5743C273.47 58.6395 272.93 59.2859 272.995 60.018C273.06 60.7501 273.707 61.2908 274.439 61.2256L274.203 58.5743ZM282.238 60.6609C282.972 60.6198 283.533 59.9915 283.492 59.2576C283.451 58.5238 282.823 57.9622 282.089 58.0033L282.238 60.6609ZM289.947 57.6859C289.213 57.7043 288.632 58.3149 288.65 59.0497C288.668 59.7845 289.279 60.3652 290.014 60.3469L289.947 57.6859ZM297.819 60.2681C298.555 60.2714 299.153 59.6783 299.156 58.9432C299.16 58.2082 298.567 57.6097 297.832 57.6063L297.819 60.2681ZM305.706 57.753C304.971 57.7291 304.357 58.3053 304.333 59.04C304.309 59.7746 304.885 60.3895 305.62 60.4133L305.706 57.753ZM313.609 60.7964C314.342 60.8455 314.976 60.2908 315.025 59.5574C315.074 58.824 314.52 58.1897 313.786 58.1406L313.609 60.7964ZM321.815 58.8448C321.084 58.7654 320.427 59.2934 320.348 60.0241C320.269 60.7548 320.797 61.4116 321.527 61.491L321.815 58.8448ZM329.382 62.5111C330.109 62.621 330.787 62.1209 330.897 61.3942C331.007 60.6674 330.507 59.9891 329.78 59.8792L329.382 62.5111ZM337.728 61.2532C337.007 61.1127 336.308 61.5838 336.168 62.3052C336.027 63.0267 336.498 63.7255 337.22 63.8659L337.728 61.2532ZM344.962 65.542C345.677 65.7126 346.394 65.2712 346.565 64.5562C346.735 63.8412 346.294 63.1234 345.579 62.9529L344.962 65.542ZM353.382 64.9866C352.674 64.7865 351.939 65.1976 351.739 65.9049C351.539 66.6122 351.95 67.3477 352.657 67.5478L353.382 64.9866ZM360.24 69.8617C360.939 70.0905 361.691 69.7096 361.919 69.0111C362.148 68.3125 361.767 67.5609 361.069 67.3321L360.24 69.8617ZM368.673 69.9917C367.984 69.7353 367.218 70.086 366.962 70.7749C366.705 71.4637 367.056 72.23 367.745 72.4863L368.673 69.9917ZM375.129 75.398C375.808 75.6806 376.587 75.3597 376.87 74.6812C377.152 74.0027 376.831 73.2235 376.153 72.9409L375.129 75.398ZM383.524 76.1736C382.856 75.8661 382.065 76.1579 381.758 76.8255C381.45 77.4931 381.742 78.2836 382.41 78.5912L383.524 76.1736ZM389.567 82.0441C390.223 82.375 391.024 82.1112 391.355 81.4549C391.686 80.7986 391.422 79.9983 390.765 79.6673L389.567 82.0441ZM397.884 83.4087C397.239 83.0559 396.43 83.2927 396.077 83.9376C395.725 84.5825 395.961 85.3912 396.606 85.7439L397.884 83.4087ZM403.523 89.6723C404.157 90.0452 404.972 89.8341 405.345 89.2007C405.718 88.5673 405.507 87.7515 404.874 87.3786L403.523 89.6723ZM411.736 91.5591C411.114 91.1675 410.292 91.3543 409.901 91.9764C409.509 92.5984 409.696 93.4201 410.318 93.8117L411.736 91.5591ZM416.996 98.1475C417.607 98.5561 418.433 98.3922 418.842 97.7812C419.25 97.1703 419.087 96.3437 418.476 95.935L416.996 98.1475ZM425.091 100.486C424.491 100.062 423.66 100.204 423.236 100.805C422.812 101.405 422.954 102.235 423.554 102.66L425.091 100.486ZM430.006 107.337C430.596 107.776 431.43 107.653 431.868 107.063C432.307 106.473 432.184 105.639 431.594 105.201L430.006 107.337ZM437.98 110.058C437.4 109.607 436.564 109.711 436.113 110.292C435.661 110.872 435.766 111.708 436.346 112.159L437.98 110.058ZM442.593 117.119C443.164 117.582 444.002 117.494 444.465 116.923C444.927 116.352 444.839 115.514 444.268 115.051L442.593 117.119ZM450.451 120.156C449.888 119.683 449.049 119.755 448.576 120.318C448.103 120.881 448.175 121.72 448.738 122.193L450.451 120.156ZM454.805 127.382C455.359 127.864 456.2 127.805 456.682 127.251C457.164 126.696 457.106 125.855 456.551 125.373L454.805 127.382ZM462.558 130.675C462.01 130.184 461.169 130.231 460.678 130.778C460.188 131.326 460.234 132.167 460.782 132.657L462.558 130.675ZM466.698 138.027C467.239 138.525 468.081 138.489 468.578 137.948C469.076 137.407 469.041 136.565 468.5 136.068L466.698 138.027ZM474.361 141.521C473.826 141.018 472.983 141.043 472.48 141.579C471.976 142.114 472.002 142.956 472.537 143.46L474.361 141.521ZM478.332 148.969C478.862 149.478 479.704 149.46 480.213 148.93C480.723 148.4 480.705 147.557 480.175 147.048L478.332 148.969ZM485.923 152.615C485.397 152.101 484.555 152.111 484.041 152.637C483.528 153.163 483.538 154.006 484.064 154.519L485.923 152.615ZM489.767 160.129C490.289 160.646 491.132 160.642 491.649 160.12C492.166 159.597 492.162 158.755 491.64 158.238L489.767 160.129ZM497.306 163.882C496.787 163.362 495.944 163.362 495.424 163.881C494.904 164.4 494.903 165.243 495.423 165.763L497.306 163.882ZM501.063 171.438C501.581 171.96 502.423 171.965 502.946 171.448C503.468 170.931 503.472 170.088 502.955 169.565L501.063 171.438ZM508.572 175.257C508.057 174.734 507.214 174.727 506.69 175.242C506.166 175.758 506.16 176.601 506.675 177.125L508.572 175.257ZM512.282 182.832C512.797 183.356 513.639 183.364 514.164 182.849C514.689 182.335 514.697 181.492 514.182 180.967L512.282 182.832ZM519.782 186.678C519.268 186.153 518.425 186.145 517.9 186.659C517.375 187.174 517.367 188.017 517.882 188.542L519.782 186.678ZM523.486 194.251C524.001 194.775 524.844 194.783 525.368 194.267C525.892 193.752 525.9 192.91 525.384 192.385L523.486 194.251ZM530.997 198.083C530.481 197.56 529.638 197.555 529.115 198.072C528.592 198.588 528.587 199.431 529.103 199.954L530.997 198.083ZM534.736 205.637C535.255 206.158 536.097 206.16 536.618 205.642C537.139 205.123 537.141 204.281 536.623 203.76L534.736 205.637ZM542.277 209.414C541.755 208.895 540.913 208.898 540.394 209.419C539.876 209.94 539.878 210.782 540.399 211.301L542.277 209.414ZM546.093 216.929C546.617 217.444 547.46 217.436 547.975 216.912C548.49 216.387 548.482 215.545 547.958 215.03L546.093 216.929ZM553.681 220.607C553.152 220.096 552.31 220.11 551.799 220.639C551.288 221.167 551.302 222.01 551.831 222.52L553.681 220.607ZM557.616 228.061C558.149 228.567 558.991 228.545 559.497 228.012C560.003 227.479 559.981 226.636 559.448 226.131L557.616 228.061ZM565.269 231.596C564.731 231.096 563.889 231.127 563.388 231.666C562.888 232.204 562.92 233.046 563.458 233.546L565.269 231.596ZM569.365 238.966C569.91 239.459 570.752 239.418 571.245 238.873C571.739 238.328 571.697 237.487 571.153 236.993L569.365 238.966ZM577.101 242.309C576.55 241.823 575.709 241.876 575.223 242.428C574.737 242.979 574.79 243.82 575.341 244.306L577.101 242.309ZM581.401 249.565C581.96 250.042 582.8 249.976 583.278 249.417C583.755 248.858 583.689 248.018 583.13 247.541L581.401 249.565ZM589.234 252.666C588.667 252.198 587.828 252.279 587.36 252.846C586.892 253.413 586.973 254.252 587.54 254.719L589.234 252.666ZM593.78 259.772C594.356 260.229 595.193 260.133 595.65 259.558C596.107 258.982 596.011 258.145 595.435 257.688L593.78 259.772ZM601.721 262.577C601.137 262.132 600.302 262.245 599.856 262.83C599.411 263.415 599.524 264.25 600.109 264.695L601.721 262.577ZM606.555 269.492C607.15 269.924 607.982 269.792 608.415 269.197C608.847 268.603 608.715 267.771 608.12 267.338L606.555 269.492ZM614.613 271.94C614.008 271.523 613.179 271.674 612.761 272.279C612.344 272.884 612.495 273.713 613.1 274.13L614.613 271.94ZM619.773 278.615C620.388 279.017 621.213 278.844 621.615 278.228C622.017 277.613 621.844 276.788 621.228 276.386L619.773 278.615ZM627.946 280.644C627.32 280.259 626.5 280.455 626.115 281.081C625.73 281.708 625.926 282.527 626.552 282.912L627.946 280.644ZM633.465 287.022C634.102 287.388 634.915 287.168 635.282 286.531C635.648 285.894 635.428 285.08 634.791 284.714L633.465 287.022ZM641.745 288.569C641.097 288.222 640.291 288.467 639.944 289.116C639.598 289.764 639.843 290.571 640.492 290.917L641.745 288.569ZM647.647 294.588C648.306 294.912 649.104 294.641 649.429 293.981C649.753 293.322 649.482 292.524 648.822 292.2L647.647 294.588ZM656.015 295.589C655.345 295.287 654.557 295.586 654.255 296.256C653.953 296.926 654.252 297.714 654.922 298.016L656.015 295.589ZM662.311 301.185C662.992 301.462 663.768 301.135 664.046 300.455C664.323 299.774 663.996 298.997 663.316 298.72L662.311 301.185ZM670.736 301.585C670.045 301.333 669.281 301.689 669.03 302.379C668.778 303.07 669.133 303.834 669.824 304.086L670.736 301.585ZM677.421 306.695C678.121 306.92 678.871 306.536 679.096 305.836C679.322 305.136 678.937 304.387 678.237 304.161L677.421 306.695ZM685.863 306.454C685.155 306.256 684.421 306.669 684.223 307.377C684.025 308.085 684.439 308.82 685.147 309.017L685.863 306.454ZM692.914 311.022C693.629 311.192 694.346 310.749 694.516 310.034C694.685 309.319 694.243 308.602 693.528 308.432L692.914 311.022ZM701.327 310.116C700.606 309.975 699.907 310.446 699.766 311.168C699.626 311.889 700.097 312.588 700.818 312.729L701.327 310.116ZM708.701 314.103C709.428 314.214 710.107 313.716 710.219 312.99C710.331 312.263 709.832 311.584 709.106 311.472L708.701 314.103ZM717.035 312.529C716.305 312.446 715.646 312.972 715.563 313.702C715.481 314.432 716.006 315.091 716.736 315.174L717.035 312.529ZM724.683 315.914C725.416 315.968 726.054 315.417 726.108 314.684C726.161 313.951 725.611 313.313 724.878 313.259L724.683 315.914ZM732.86 313.69C732.126 313.664 731.51 314.239 731.484 314.974C731.459 315.709 732.034 316.325 732.769 316.35L732.86 313.69ZM740.76 316.474C741.495 316.472 742.089 315.874 742.087 315.139C742.084 314.404 741.487 313.81 740.752 313.812L740.76 316.474ZM748.719 313.64C747.985 313.669 747.413 314.288 747.443 315.023C747.472 315.757 748.091 316.329 748.826 316.3L748.719 313.64ZM756.937 315.823C757.67 315.765 758.217 315.124 758.159 314.391C758.101 313.659 757.461 313.111 756.728 313.169L756.937 315.823ZM764.638 312.381C763.908 312.469 763.388 313.132 763.476 313.862C763.564 314.592 764.227 315.112 764.957 315.024L764.638 312.381ZM772.937 313.892C773.662 313.773 774.154 313.089 774.036 312.364C773.917 311.638 773.233 311.146 772.507 311.265L772.937 313.892ZM780.321 309.815C779.601 309.965 779.139 310.67 779.289 311.389C779.438 312.109 780.143 312.571 780.863 312.421L780.321 309.815ZM788.718 310.609C789.431 310.428 789.862 309.703 789.681 308.991C789.5 308.279 788.775 307.848 788.063 308.029L788.718 310.609ZM795.717 305.901C795.013 306.114 794.615 306.857 794.828 307.56C795.041 308.264 795.784 308.662 796.487 308.449L795.717 305.901ZM804.151 305.938C804.844 305.693 805.207 304.933 804.962 304.24C804.718 303.547 803.957 303.183 803.264 303.428L804.151 305.938ZM810.687 300.607C810.006 300.884 809.679 301.661 809.956 302.342C810.234 303.022 811.01 303.349 811.691 303.072L810.687 300.607ZM819.088 299.847C819.754 299.537 820.043 298.746 819.733 298.079C819.423 297.413 818.631 297.124 817.965 297.434L819.088 299.847ZM825.077 293.908C824.426 294.251 824.177 295.056 824.52 295.706C824.863 296.356 825.668 296.605 826.318 296.262L825.077 293.908ZM833.36 292.317C833.992 291.942 834.2 291.125 833.824 290.493C833.448 289.861 832.632 289.654 832 290.029L833.36 292.317ZM838.712 285.799C838.1 286.207 837.936 287.033 838.344 287.645C838.752 288.256 839.578 288.421 840.19 288.013L838.712 285.799ZM846.783 283.352C847.372 282.912 847.492 282.078 847.052 281.49C846.612 280.901 845.778 280.781 845.189 281.221L846.783 283.352ZM851.409 276.301C850.845 276.773 850.77 277.612 851.242 278.176C851.714 278.74 852.553 278.814 853.117 278.343L851.409 276.301ZM859.166 272.992C859.703 272.49 859.731 271.648 859.229 271.111C858.727 270.574 857.885 270.546 857.348 271.048L859.166 272.992ZM862.986 265.473C862.478 266.005 862.497 266.847 863.028 267.355C863.559 267.863 864.402 267.844 864.91 267.313L862.986 265.473ZM870.325 261.319C870.803 260.76 870.736 259.92 870.177 259.443C869.618 258.966 868.778 259.032 868.301 259.591L870.325 261.319ZM873.276 253.419C872.831 254.004 872.945 254.839 873.53 255.284C874.115 255.729 874.95 255.615 875.395 255.03L873.276 253.419ZM880.102 248.465C880.513 247.856 880.353 247.028 879.743 246.617C879.134 246.206 878.307 246.366 877.896 246.975L880.102 248.465ZM882.148 240.283C881.771 240.914 881.977 241.731 882.608 242.108C883.239 242.485 884.056 242.278 884.433 241.647L882.148 240.283ZM888.381 234.602C888.722 233.951 888.472 233.147 887.821 232.805C887.17 232.463 886.365 232.714 886.024 233.365L888.381 234.602ZM889.519 226.246C889.213 226.914 889.506 227.704 890.174 228.01C890.843 228.316 891.633 228.022 891.939 227.354L889.519 226.246ZM895.106 219.93C895.377 219.247 895.042 218.474 894.359 218.203C893.676 217.932 892.902 218.267 892.632 218.95L895.106 219.93ZM895.364 211.502C895.129 212.199 895.502 212.954 896.198 213.19C896.894 213.425 897.65 213.052 897.885 212.356L895.364 211.502ZM900.282 204.655C900.484 203.948 900.074 203.212 899.367 203.01C898.66 202.809 897.924 203.219 897.722 203.926L900.282 204.655ZM899.714 196.242C899.547 196.958 899.991 197.674 900.706 197.842C901.422 198.009 902.138 197.565 902.306 196.85L899.714 196.242ZM903.967 188.96C904.102 188.238 903.626 187.542 902.903 187.407C902.181 187.272 901.486 187.748 901.35 188.47L903.967 188.96ZM902.642 180.628C902.538 181.355 903.044 182.029 903.772 182.133C904.499 182.237 905.173 181.732 905.277 181.004L902.642 180.628ZM906.252 172.995C906.326 172.264 905.793 171.611 905.061 171.537C904.33 171.464 903.677 171.997 903.604 172.728L906.252 172.995ZM904.247 164.783C904.202 165.516 904.76 166.147 905.494 166.193C906.228 166.238 906.859 165.679 906.904 164.946L904.247 164.783ZM907.247 156.922C907.264 156.187 906.683 155.577 905.948 155.559C905.214 155.541 904.603 156.122 904.586 156.857L907.247 156.922ZM904.637 148.916C904.645 149.651 905.248 150.24 905.983 150.232C906.718 150.224 907.307 149.621 907.299 148.886L904.637 148.916ZM907.067 140.752C907.032 140.017 906.409 139.45 905.675 139.484C904.941 139.519 904.373 140.142 904.408 140.876L907.067 140.752ZM903.884 132.94C903.947 133.672 904.591 134.215 905.324 134.152C906.056 134.09 906.599 133.446 906.536 132.713L903.884 132.94ZM905.692 124.707C905.6 123.977 904.935 123.461 904.205 123.553C903.476 123.644 902.959 124.31 903.051 125.039L905.692 124.707ZM901.889 117.141C902.011 117.865 902.698 118.354 903.423 118.231C904.148 118.109 904.636 117.422 904.513 116.697L901.889 117.141ZM902.993 108.754C902.839 108.035 902.132 107.578 901.413 107.732C900.694 107.886 900.237 108.593 900.391 109.312L902.993 108.754ZM898.545 101.567C898.732 102.278 899.46 102.703 900.171 102.516C900.882 102.329 901.306 101.602 901.12 100.891L898.545 101.567ZM898.882 93.1247C898.661 92.4235 897.914 92.0337 897.213 92.2541C896.512 92.4745 896.122 93.2217 896.342 93.9229L898.882 93.1247ZM893.772 86.3986C894.027 87.088 894.792 87.4403 895.482 87.1855C896.171 86.9306 896.524 86.1651 896.269 85.4757L893.772 86.3986ZM893.272 77.9662C892.982 77.2908 892.2 76.9783 891.524 77.2683C890.849 77.5583 890.536 78.3409 890.826 79.0163L893.272 77.9662ZM887.499 71.8003C887.824 72.4593 888.623 72.7295 889.282 72.4039C889.94 72.0783 890.211 71.2801 889.885 70.6212L887.499 71.8003ZM886.103 63.4679C885.741 62.8279 884.929 62.6022 884.289 62.9637C883.649 63.3252 883.424 64.1371 883.785 64.7771L886.103 63.4679ZM879.683 57.9749C880.081 58.5932 880.904 58.7722 881.523 58.3748C882.141 57.9773 882.32 57.1539 881.922 56.5356L879.683 57.9749ZM877.346 49.8549C876.912 49.2611 876.08 49.1309 875.486 49.5641C874.892 49.9973 874.762 50.8298 875.195 51.4237L877.346 49.8549ZM870.325 45.1542C870.793 45.7207 871.632 45.8001 872.198 45.3317C872.765 44.8632 872.844 44.0243 872.376 43.4579L870.325 45.1542ZM867.021 37.3774C866.518 36.8413 865.676 36.8144 865.139 37.3172C864.603 37.8201 864.576 38.6623 865.079 39.1984L867.021 37.3774ZM859.47 33.5884C860.006 34.0912 860.848 34.0641 861.351 33.5279C861.854 32.9917 861.827 32.1495 861.291 31.6467L859.47 33.5884ZM855.2 26.2994C854.632 25.8329 853.793 25.9153 853.327 26.4834C852.86 27.0515 852.943 27.8901 853.511 28.3565L855.2 26.2994ZM847.22 23.5351C847.818 23.9622 848.649 23.8235 849.076 23.2253C849.503 22.6271 849.365 21.7959 848.766 21.3688L847.22 23.5351ZM842.011 16.8882C841.385 16.5033 840.565 16.6991 840.18 17.3253C839.796 17.9515 839.991 18.7712 840.618 19.156L842.011 16.8882ZM833.722 15.2468C834.374 15.5864 835.178 15.3332 835.517 14.6813C835.857 14.0294 835.604 13.2257 834.952 12.8861L833.722 15.2468ZM827.62 9.39763C826.945 9.10621 826.162 9.41699 825.87 10.0918C825.579 10.7666 825.89 11.5498 826.565 11.8413L827.62 9.39763ZM819.181 8.97171C819.876 9.21225 820.634 8.8442 820.874 8.14964C821.115 7.45509 820.747 6.69705 820.052 6.45651L819.181 8.97171ZM812.285 4.09213C811.575 3.90508 810.847 4.32968 810.66 5.04051C810.473 5.75134 810.897 6.47921 811.608 6.66627L812.285 4.09213ZM803.884 4.95115C804.608 5.08231 805.3 4.60234 805.431 3.87911C805.563 3.15588 805.083 2.46326 804.359 2.3321L803.884 4.95115ZM796.313 1.20114C795.581 1.12808 794.929 1.66176 794.856 2.39315C794.783 3.12454 795.317 3.77667 796.048 3.84973L796.313 1.20114ZM788.15 3.38426C788.885 3.3974 789.492 2.81229 789.505 2.07738C789.518 1.34247 788.933 0.736052 788.198 0.722913L788.15 3.38426ZM780.071 0.915446C779.338 0.963573 778.782 1.59717 778.831 2.33062C778.879 3.06407 779.512 3.61963 780.246 3.5715L780.071 0.915446ZM772.387 4.42256C773.114 4.31239 773.613 3.63395 773.503 2.90723C773.393 2.1805 772.715 1.68069 771.988 1.79086L772.387 4.42256ZM764.007 3.3543C763.292 3.5266 762.853 4.24553 763.025 4.96008C763.197 5.67462 763.916 6.11421 764.631 5.94191L764.007 3.3543ZM757.038 8.12541C757.735 7.89173 758.111 7.13736 757.877 6.44047C757.643 5.74357 756.889 5.36806 756.192 5.60173L757.038 8.12541ZM748.562 8.5467C747.889 8.84338 747.584 9.62904 747.881 10.3015C748.178 10.974 748.963 11.2787 749.636 10.982L748.562 8.5467ZM742.613 14.5142C743.251 14.1502 743.474 13.3374 743.11 12.6989C742.746 12.0603 741.933 11.8377 741.295 12.2017L742.613 14.5142ZM734.45 16.6203C733.855 17.0532 733.725 17.8857 734.158 18.4797C734.591 19.0737 735.423 19.2044 736.017 18.7715L734.45 16.6203ZM729.946 23.7721C730.484 23.2713 730.515 22.4291 730.014 21.8911C729.513 21.3531 728.671 21.3229 728.133 21.8237L729.946 23.7721ZM722.51 27.7521C722.039 28.3163 722.115 29.1556 722.679 29.6267C723.243 30.0979 724.082 30.0225 724.553 29.4583L722.51 27.7521ZM719.928 35.7826C720.323 35.1625 720.14 34.3399 719.52 33.9452C718.9 33.5505 718.077 33.7332 717.682 34.3533L719.928 35.7826ZM713.745 41.5283C713.435 42.1943 713.722 42.9863 714.388 43.2973C715.054 43.6083 715.846 43.3205 716.157 42.6546L713.745 41.5283ZM713.306 49.9532C713.529 49.2528 713.142 48.5042 712.442 48.2811C711.741 48.0581 710.993 48.445 710.77 49.1453L713.306 49.9532ZM708.784 57.0787C708.651 57.8015 709.129 58.4957 709.851 58.6292C710.574 58.7626 711.268 58.2849 711.402 57.5621L708.784 57.0787ZM710.452 65.3538C710.497 64.6201 709.938 63.9893 709.205 63.9448C708.471 63.9003 707.84 64.4591 707.796 65.1927L710.452 65.3538ZM707.787 73.3587C707.829 74.0925 708.458 74.6529 709.192 74.6105C709.926 74.5681 710.486 73.9389 710.444 73.2051L707.787 73.3587ZM711.349 81.0146C711.223 80.2905 710.534 79.8058 709.81 79.932C709.086 80.0583 708.601 80.7476 708.727 81.4717L711.349 81.0146ZM710.577 89.416C710.783 90.1215 711.522 90.5262 712.227 90.3199C712.933 90.1137 713.338 89.3746 713.131 88.6691L710.577 89.416ZM715.75 96.088C715.468 95.4093 714.689 95.0878 714.011 95.37C713.332 95.6521 713.01 96.431 713.293 97.1098L715.75 96.088ZM716.825 104.46C717.178 105.105 717.987 105.341 718.631 104.987C719.276 104.634 719.512 103.825 719.158 103.18L716.825 104.46ZM723.303 109.868C722.883 109.264 722.054 109.115 721.45 109.535C720.847 109.955 720.698 110.784 721.117 111.388L723.303 109.868ZM726.121 117.831C726.601 118.388 727.442 118.449 727.998 117.969C728.554 117.488 728.615 116.648 728.135 116.091L726.121 117.831ZM733.579 121.773C733.044 121.269 732.202 121.294 731.698 121.829C731.194 122.365 731.219 123.207 731.754 123.711L733.579 121.773ZM737.956 128.986C738.539 129.433 739.374 129.323 739.822 128.74C740.269 128.157 740.159 127.322 739.576 126.874L737.956 128.986ZM746.062 131.361C745.438 130.973 744.617 131.164 744.229 131.789C743.841 132.413 744.032 133.233 744.657 133.621L746.062 131.361ZM751.774 137.589C752.433 137.916 753.231 137.647 753.559 136.989C753.886 136.331 753.617 135.532 752.959 135.205L751.774 137.589ZM760.166 138.385C759.481 138.119 758.71 138.459 758.444 139.144C758.178 139.829 758.517 140.6 759.203 140.866L760.166 138.385ZM766.891 143.474C767.597 143.68 768.336 143.275 768.542 142.569C768.748 141.864 768.343 141.125 767.638 140.919L766.891 143.474ZM775.305 142.82C774.585 142.672 773.881 143.136 773.733 143.856C773.585 144.576 774.049 145.279 774.769 145.428L775.305 142.82ZM782.791 146.759C783.52 146.853 784.187 146.338 784.28 145.609C784.374 144.879 783.858 144.213 783.129 144.119L782.791 146.759ZM790.904 144.83C790.17 144.79 789.542 145.352 789.502 146.086C789.461 146.82 790.023 147.448 790.757 147.488L790.904 144.83ZM798.758 147.641C799.493 147.628 800.079 147.023 800.067 146.288C800.055 145.553 799.449 144.967 798.714 144.979L798.758 147.641ZM806.529 144.577C805.797 144.64 805.254 145.285 805.317 146.017C805.38 146.749 806.024 147.292 806.757 147.229L806.529 144.577ZM814.703 146.284C815.43 146.174 815.929 145.496 815.819 144.769C815.709 144.043 815.031 143.543 814.304 143.653L814.703 146.284ZM822.01 142.247C821.291 142.4 820.832 143.107 820.985 143.826C821.138 144.545 821.845 145.004 822.563 144.851L822.01 142.247ZM830.324 142.981C831.034 142.79 831.454 142.06 831.264 141.35C831.073 140.64 830.343 140.219 829.633 140.41L830.324 142.981ZM837.167 138.192C836.467 138.415 836.081 139.164 836.304 139.864C836.528 140.565 837.277 140.951 837.977 140.727L837.167 138.192ZM845.524 138.145C846.215 137.893 846.571 137.13 846.319 136.439C846.068 135.748 845.304 135.392 844.613 135.644L845.524 138.145ZM851.975 132.815C851.294 133.09 850.964 133.866 851.239 134.547C851.514 135.229 852.289 135.559 852.971 135.284L851.975 132.815ZM860.29 132.208C860.964 131.914 861.272 131.129 860.978 130.455C860.684 129.782 859.899 129.474 859.226 129.768L860.29 132.208ZM866.409 126.531C865.742 126.84 865.452 127.632 865.762 128.298C866.071 128.965 866.862 129.255 867.529 128.946L866.409 126.531ZM874.703 125.535C875.364 125.214 875.639 124.417 875.318 123.756C874.997 123.095 874.2 122.82 873.539 123.141L874.703 125.535ZM880.631 119.631C879.974 119.961 879.71 120.761 880.04 121.418C880.37 122.075 881.17 122.339 881.827 122.009L880.631 119.631ZM888.895 118.409C889.549 118.072 889.806 117.27 889.469 116.616C889.133 115.963 888.33 115.706 887.677 116.042L888.895 118.409ZM894.686 112.404C894.034 112.745 893.782 113.549 894.122 114.2C894.463 114.852 895.267 115.104 895.918 114.764L894.686 112.404ZM902.935 111.085C903.586 110.743 903.836 109.939 903.494 109.288C903.152 108.637 902.347 108.387 901.697 108.729L902.935 111.085ZM908.722 105.038C908.071 105.379 907.82 106.184 908.162 106.835C908.503 107.486 909.308 107.737 909.959 107.395L908.722 105.038ZM916.964 103.734C917.616 103.395 917.869 102.591 917.53 101.939C917.191 101.287 916.387 101.033 915.735 101.372L916.964 103.734ZM922.771 97.7387C922.117 98.0739 921.858 98.8759 922.193 99.53C922.528 100.184 923.33 100.443 923.985 100.108L922.771 97.7387ZM931.046 96.5272C931.703 96.1977 931.968 95.398 931.639 94.7409C931.309 94.0839 930.51 93.8183 929.853 94.1478L931.046 96.5272ZM936.966 90.628C936.305 90.9502 936.031 91.747 936.353 92.4076C936.675 93.0683 937.472 93.3426 938.133 93.0203L936.966 90.628ZM945.244 89.6074C945.909 89.2938 946.193 88.5007 945.88 87.8359C945.566 87.1712 944.773 86.8865 944.108 87.2001L945.244 89.6074ZM951.32 83.8631C950.65 84.1666 950.354 84.9553 950.657 85.6248C950.961 86.2942 951.749 86.5908 952.419 86.2872L951.32 83.8631ZM959.643 83.0837C960.317 82.7915 960.627 82.0079 960.335 81.3334C960.043 80.659 959.259 80.3491 958.585 80.6413L959.643 83.0837ZM965.887 77.5566C965.208 77.8362 964.883 78.6139 965.163 79.2937C965.442 79.9734 966.22 80.2978 966.9 80.0182L965.887 77.5566ZM974.237 77.0851C974.922 76.8193 975.262 76.0482 974.996 75.363C974.73 74.6777 973.959 74.3377 973.274 74.6036L974.237 77.0851ZM980.713 71.8083C980.023 72.0593 979.666 72.8228 979.917 73.5137C980.168 74.2045 980.932 74.5611 981.622 74.31L980.713 71.8083ZM989.053 71.7045C989.75 71.4693 990.124 70.7141 989.888 70.0177C989.653 69.3213 988.898 68.9475 988.202 69.1827L989.053 71.7045ZM995.784 66.7218C995.082 66.9403 994.69 67.6863 994.909 68.3881C995.127 69.0899 995.873 69.4818 996.575 69.2634L995.784 66.7218ZM1004.11 67.0189C1004.82 66.818 1005.23 66.0819 1005.03 65.3749C1004.83 64.6678 1004.09 64.2575 1003.39 64.4585L1004.11 67.0189ZM1011.06 62.3834C1010.35 62.5661 1009.92 63.2913 1010.1 64.0033C1010.29 64.7153 1011.01 65.1444 1011.72 64.9617L1011.06 62.3834ZM1019.4 63.0993C1020.12 62.9355 1020.57 62.2219 1020.4 61.5054C1020.24 60.7888 1019.53 60.3407 1018.81 60.5044L1019.4 63.0993ZM1026.56 58.8425C1025.84 58.987 1025.37 59.6883 1025.51 60.409C1025.66 61.1297 1026.36 61.5968 1027.08 61.4524L1026.56 58.8425ZM1034.86 60.0036C1035.58 59.879 1036.07 59.1907 1035.95 58.4663C1035.82 57.7419 1035.13 57.2557 1034.41 57.3804L1034.86 60.0036ZM1042.23 56.1436C1041.51 56.2484 1041 56.9231 1041.11 57.6506C1041.21 58.3781 1041.89 58.8829 1042.61 58.7782L1042.23 56.1436ZM1050.44 57.7614C1051.17 57.6768 1051.69 57.0163 1051.61 56.2862C1051.52 55.556 1050.86 55.0327 1050.13 55.1174L1050.44 57.7614ZM1058.04 54.3106C1057.31 54.3751 1056.77 55.021 1056.83 55.7532C1056.9 56.4854 1057.54 57.0266 1058.28 56.9621L1058.04 54.3106ZM1066.12 56.3787C1066.86 56.3342 1067.42 55.7034 1067.37 54.9697C1067.33 54.236 1066.7 53.6773 1065.96 53.7218L1066.12 56.3787ZM1073.93 53.3474C1073.2 53.3719 1072.62 53.9874 1072.64 54.722C1072.67 55.4566 1073.28 56.0322 1074.02 56.0077L1073.93 53.3474ZM1081.87 55.8499C1082.6 55.8449 1083.2 55.245 1083.19 54.51C1083.19 53.7749 1082.59 53.1832 1081.85 53.1882L1081.87 55.8499ZM1089.84 53.2392C1089.11 53.2248 1088.5 53.8089 1088.48 54.5438C1088.47 55.2787 1089.05 55.8861 1089.79 55.9004L1089.84 53.2392ZM1097.62 56.1537C1098.36 56.1868 1098.98 55.6184 1099.01 54.8841C1099.05 54.1499 1098.48 53.5278 1097.74 53.4947L1097.62 56.1537ZM1105.73 53.9558C1104.99 53.9042 1104.36 54.4568 1104.3 55.19C1104.25 55.9232 1104.81 56.5594 1105.54 56.611L1105.73 53.9558ZM1113.35 57.2565C1114.08 57.3259 1114.73 56.789 1114.8 56.0573C1114.87 55.3255 1114.33 54.6761 1113.6 54.6067L1113.35 57.2565ZM1121.54 55.456C1120.81 55.3692 1120.15 55.8905 1120.06 56.6204C1119.98 57.3502 1120.5 58.0123 1121.23 58.0992L1121.54 55.456ZM1129.01 59.1165C1129.74 59.2201 1130.41 58.7141 1130.52 57.9864C1130.62 57.2587 1130.11 56.5849 1129.39 56.4813L1129.01 59.1165ZM1137.26 57.6918C1136.53 57.5719 1135.85 58.0627 1135.73 58.7879C1135.61 59.5131 1136.1 60.1981 1136.82 60.3179L1137.26 57.6918ZM1.02821 315.615C1.86354 314.598 2.69476 313.581 3.52198 312.562L1.45546 310.884C0.631542 311.899 -0.196312 312.913 -1.02821 313.925L1.02821 315.615ZM8.43805 306.434C10.0701 304.376 11.6869 302.314 13.2892 300.249L11.1861 298.617C9.58939 300.675 7.97849 302.73 6.35251 304.78L8.43805 306.434ZM18.0692 294.023C19.659 291.931 21.235 289.837 22.798 287.741L20.6642 286.15C19.1058 288.24 17.5347 290.327 15.95 292.412L18.0692 294.023ZM27.4588 281.435C29.0125 279.314 30.5538 277.193 32.0838 275.072L29.9249 273.515C28.3986 275.631 26.8612 277.747 25.3118 279.861L27.4588 281.435ZM36.6473 268.699C38.1704 266.557 39.6828 264.416 41.1854 262.277L39.0073 260.747C37.5073 262.882 35.9979 265.019 34.4781 267.156L36.6473 268.699ZM45.6766 255.848C47.1749 253.693 48.6643 251.54 50.1457 249.39L47.954 247.88C46.4743 250.027 44.987 252.177 43.4909 254.329L45.6766 255.848ZM54.5877 242.922C56.0688 240.759 57.5428 238.6 59.0107 236.446L56.8112 234.947C55.3441 237.1 53.8712 239.257 52.3914 241.418L54.5877 242.922ZM63.4288 229.956C64.8996 227.793 66.3688 225.631 67.8302 223.482L65.6291 221.985C64.165 224.139 62.7007 226.293 61.2278 228.459L63.4288 229.956ZM72.2517 216.987C73.7264 214.823 75.1979 212.668 76.6673 210.522L74.4712 209.018C73.0004 211.166 71.5278 213.323 70.0523 215.487L72.2517 216.987ZM81.1118 204.055C82.6004 201.897 84.088 199.749 85.5756 197.614L83.3915 196.093C81.9013 198.232 80.4114 200.382 78.9208 202.543L81.1118 204.055ZM90.0686 191.204C91.5818 189.059 93.0962 186.927 94.6131 184.81L92.4492 183.26C90.9283 185.383 89.4102 187.52 87.8936 189.669L90.0686 191.204ZM99.1908 178.476C100.738 176.355 102.289 174.25 103.845 172.162L101.711 170.572C100.149 172.667 98.5928 174.78 97.0404 176.907L99.1908 178.476ZM108.557 165.915C110.145 163.835 111.739 161.774 113.342 159.732L111.248 158.089C109.638 160.14 108.036 162.211 106.441 164.3L108.557 165.915ZM118.224 153.605C119.868 151.574 121.522 149.564 123.186 147.577L121.146 145.868C119.471 147.867 117.808 149.888 116.155 151.931L118.224 153.605ZM128.266 141.625C129.983 139.65 131.712 137.701 133.456 135.779L131.484 133.991C129.728 135.928 127.986 137.89 126.257 139.878L128.266 141.625ZM138.757 130.061C140.558 128.162 142.375 126.291 144.21 124.45L142.324 122.572C140.474 124.428 138.641 126.315 136.825 128.229L138.757 130.061ZM149.791 118.995C151.679 117.199 153.587 115.434 155.515 113.702L153.736 111.722C151.789 113.471 149.862 115.253 147.956 117.067L149.791 118.995ZM161.403 108.574C163.393 106.895 165.405 105.251 167.441 103.644L165.792 101.555C163.732 103.18 161.698 104.842 159.686 106.54L161.403 108.574ZM173.641 98.9205C175.736 97.3821 177.856 95.882 180.004 94.4216L178.507 92.2204C176.332 93.6993 174.185 95.2181 172.066 96.7752L173.641 98.9205ZM186.527 90.1643C188.726 88.7883 190.954 87.4532 193.212 86.1604L191.89 83.8503C189.6 85.1607 187.343 86.5137 185.115 87.9079L186.527 90.1643ZM200.039 82.4323C202.335 81.2382 204.662 80.0868 207.022 78.9795L205.892 76.5697C203.498 77.6926 201.138 78.8601 198.811 80.0709L200.039 82.4323ZM214.14 75.8183C216.515 74.8219 218.923 73.869 221.366 72.9609L220.439 70.4659C217.961 71.3869 215.519 72.3533 213.111 73.3638L214.14 75.8183ZM228.739 70.3922C231.182 69.597 233.66 68.8452 236.173 68.1381L235.452 65.5758C232.904 66.2926 230.392 67.0548 227.915 67.8612L228.739 70.3922ZM243.704 66.1799C246.215 65.5796 248.762 65.0226 251.344 64.51L250.826 61.8992C248.21 62.4184 245.63 62.9828 243.085 63.5911L243.704 66.1799ZM258.971 63.1432C261.523 62.7342 264.11 62.3673 266.732 62.0434L266.406 59.4017C263.752 59.7295 261.134 60.1009 258.55 60.515L258.971 63.1432ZM274.439 61.2256C277.005 60.9971 279.604 60.8086 282.238 60.6609L282.089 58.0033C279.426 58.1526 276.798 58.3432 274.203 58.5743L274.439 61.2256ZM290.014 60.3469C292.583 60.2827 295.185 60.2562 297.819 60.2681L297.832 57.6063C295.171 57.5943 292.544 57.6211 289.947 57.6859L290.014 60.3469ZM305.62 60.4133C306.936 60.4561 308.259 60.5081 309.591 60.5695L309.714 57.9106C308.37 57.8486 307.034 57.7961 305.706 57.753L305.62 60.4133ZM309.591 60.5695C310.937 60.6316 312.276 60.7073 313.609 60.7964L313.786 58.1406C312.435 58.0502 311.078 57.9735 309.714 57.9106L309.591 60.5695ZM321.527 61.491C324.171 61.7783 326.789 62.119 329.382 62.5111L329.78 59.8792C327.15 59.4816 324.495 59.1362 321.815 58.8448L321.527 61.491ZM337.22 63.8659C339.825 64.373 342.405 64.9324 344.962 65.542L345.579 62.9529C342.987 62.3347 340.37 61.7675 337.728 61.2532L337.22 63.8659ZM352.657 67.5478C355.208 68.2696 357.736 69.0416 360.24 69.8617L361.069 67.3321C358.53 66.5009 355.968 65.7184 353.382 64.9866L352.657 67.5478ZM367.745 72.4863C370.228 73.4104 372.689 74.3816 375.129 75.398L376.153 72.9409C373.682 71.9117 371.189 70.9279 368.673 69.9917L367.745 72.4863ZM382.41 78.5912C384.816 79.6994 387.201 80.851 389.567 82.0441L390.765 79.6673C388.372 78.4605 385.958 77.2953 383.524 76.1736L382.41 78.5912ZM396.606 85.7439C398.93 87.0148 401.235 88.3249 403.523 89.6723L404.874 87.3786C402.562 86.0174 400.232 84.6934 397.884 83.4087L396.606 85.7439ZM410.318 93.8117C412.559 95.2228 414.785 96.6687 416.996 98.1475L418.476 95.935C416.245 94.4431 413.999 92.9837 411.736 91.5591L410.318 93.8117ZM423.554 102.66C425.718 104.189 427.869 105.749 430.006 107.337L431.594 105.201C429.44 103.601 427.273 102.028 425.091 100.486L423.554 102.66ZM436.346 112.159C438.44 113.787 440.522 115.441 442.593 117.119L444.268 115.051C442.184 113.362 440.088 111.697 437.98 110.058L436.346 112.159ZM448.738 122.193C450.769 123.902 452.791 125.632 454.805 127.382L456.551 125.373C454.527 123.614 452.494 121.874 450.451 120.156L448.738 122.193ZM460.782 132.657C462.761 134.43 464.733 136.221 466.698 138.027L468.5 136.068C466.527 134.254 464.546 132.455 462.558 130.675L460.782 132.657ZM472.537 143.46C474.474 145.283 476.406 147.12 478.332 148.969L480.175 147.048C478.243 145.194 476.305 143.351 474.361 141.521L472.537 143.46ZM484.064 154.519C485.968 156.379 487.869 158.25 489.767 160.129L491.64 158.238C489.738 156.355 487.833 154.48 485.923 152.615L484.064 154.519ZM495.423 165.763C497.305 167.648 499.185 169.541 501.063 171.438L502.955 169.565C501.074 167.666 499.192 165.771 497.306 163.882L495.423 165.763ZM506.675 177.125C508.545 179.024 510.413 180.927 512.282 182.832L514.182 180.967C512.313 179.062 510.443 177.158 508.572 175.257L506.675 177.125ZM517.882 188.542C519.749 190.445 521.617 192.349 523.486 194.251L525.384 192.385C523.516 190.484 521.649 188.581 519.782 186.678L517.882 188.542ZM529.103 199.954C530.978 201.852 532.855 203.747 534.736 205.637L536.623 203.76C534.745 201.872 532.87 199.98 530.997 198.083L529.103 199.954ZM540.399 211.301C542.293 213.184 544.19 215.061 546.093 216.929L547.958 215.03C546.06 213.166 544.166 211.293 542.277 209.414L540.399 211.301ZM551.831 222.52C553.753 224.378 555.681 226.226 557.616 228.061L559.448 226.131C557.519 224.301 555.597 222.459 553.681 220.607L551.831 222.52ZM563.458 233.546C565.419 235.367 567.388 237.174 569.365 238.966L571.153 236.993C569.184 235.209 567.223 233.41 565.269 231.596L563.458 233.546ZM575.341 244.306C577.351 246.077 579.371 247.831 581.401 249.565L583.13 247.541C581.111 245.816 579.101 244.072 577.101 242.309L575.341 244.306ZM587.54 254.719C589.608 256.426 591.688 258.111 593.78 259.772L595.435 257.688C593.357 256.037 591.29 254.363 589.234 252.666L587.54 254.719ZM600.109 264.695C602.244 266.32 604.392 267.92 606.555 269.492L608.12 267.338C605.974 265.778 603.841 264.191 601.721 262.577L600.109 264.695ZM613.1 274.13C615.308 275.656 617.532 277.151 619.773 278.615L621.228 276.386C619.007 274.935 616.803 273.453 614.613 271.94L613.1 274.13ZM626.552 282.912C628.838 284.317 631.142 285.687 633.465 287.022L634.791 284.714C632.491 283.393 630.21 282.036 627.946 280.644L626.552 282.912ZM640.492 290.917C642.857 292.179 645.241 293.404 647.647 294.588L648.822 292.2C646.444 291.029 644.085 289.818 641.745 288.569L640.492 290.917ZM654.922 298.016C657.363 299.115 659.826 300.172 662.311 301.185L663.316 298.72C660.861 297.719 658.428 296.675 656.015 295.589L654.922 298.016ZM669.824 304.086C672.333 305.001 674.865 305.872 677.421 306.695L678.237 304.161C675.714 303.349 673.214 302.489 670.736 301.585L669.824 304.086ZM685.147 309.017C687.711 309.734 690.3 310.402 692.914 311.022L693.528 308.432C690.949 307.821 688.394 307.161 685.863 306.454L685.147 309.017ZM700.818 312.729C703.421 313.236 706.048 313.695 708.701 314.103L709.106 311.472C706.488 311.069 703.896 310.617 701.327 310.116L700.818 312.729ZM716.736 315.174C719.36 315.47 722.009 315.717 724.683 315.914L724.878 313.259C722.239 313.065 719.625 312.821 717.035 312.529L716.736 315.174ZM732.769 316.35C735.408 316.441 738.071 316.483 740.76 316.474L740.752 313.812C738.096 313.821 735.466 313.779 732.86 313.69L732.769 316.35ZM748.826 316.3C750.182 316.245 751.545 316.178 752.915 316.098L752.76 313.441C751.406 313.52 750.06 313.586 748.719 313.64L748.826 316.3ZM752.915 316.098C754.257 316.02 755.598 315.928 756.937 315.823L756.728 313.169C755.407 313.273 754.084 313.364 752.76 313.441L752.915 316.098ZM764.957 315.024C767.628 314.702 770.289 314.325 772.937 313.892L772.507 311.265C769.896 311.692 767.272 312.064 764.638 312.381L764.957 315.024ZM780.863 312.421C783.498 311.874 786.117 311.27 788.718 310.609L788.063 308.029C785.5 308.68 782.918 309.275 780.321 309.815L780.863 312.421ZM796.487 308.449C799.064 307.67 801.62 306.833 804.151 305.938L803.264 303.428C800.772 304.309 798.255 305.133 795.717 305.901L796.487 308.449ZM811.691 303.072C814.185 302.056 816.651 300.981 819.088 299.847L817.965 297.434C815.568 298.549 813.141 299.607 810.687 300.607L811.691 303.072ZM826.318 296.262C828.699 295.007 831.047 293.692 833.36 292.317L832 290.029C829.727 291.38 827.418 292.673 825.077 293.908L826.318 296.262ZM840.19 288.013C842.427 286.519 844.626 284.966 846.783 283.352L845.189 281.221C843.07 282.805 840.91 284.331 838.712 285.799L840.19 288.013ZM853.117 278.343C855.178 276.619 857.195 274.836 859.166 272.992L857.348 271.048C855.413 272.857 853.433 274.608 851.409 276.301L853.117 278.343ZM864.91 267.313C866.764 265.374 868.57 263.376 870.325 261.319L868.301 259.591C866.578 261.609 864.805 263.57 862.986 265.473L864.91 267.313ZM875.395 255.03C877.016 252.898 878.586 250.71 880.102 248.465L877.896 246.975C876.408 249.179 874.867 251.327 873.276 253.419L875.395 255.03ZM884.433 241.647C885.803 239.353 887.12 237.004 888.381 234.602L886.024 233.365C884.785 235.724 883.493 238.03 882.148 240.283L884.433 241.647ZM891.939 227.354C893.049 224.93 894.106 222.456 895.106 219.93L892.632 218.95C891.648 221.432 890.61 223.864 889.519 226.246L891.939 227.354ZM897.885 212.356C898.739 209.836 899.538 207.269 900.282 204.655L897.722 203.926C896.99 206.498 896.203 209.024 895.364 211.502L897.885 212.356ZM902.306 196.85C902.912 194.263 903.466 191.633 903.967 188.96L901.35 188.47C900.857 191.104 900.311 193.695 899.714 196.242L902.306 196.85ZM905.277 181.004C905.653 178.374 905.978 175.704 906.252 172.995L903.604 172.728C903.334 175.401 903.013 178.034 902.642 180.628L905.277 181.004ZM906.904 164.946C907.066 162.306 907.181 159.632 907.247 156.922L904.586 156.857C904.521 159.535 904.407 162.176 904.247 164.783L906.904 164.946ZM907.299 148.886C907.284 147.54 907.258 146.186 907.219 144.823L904.559 144.898C904.596 146.245 904.623 147.585 904.637 148.916L907.299 148.886ZM907.219 144.823C907.181 143.457 907.13 142.1 907.067 140.752L904.408 140.876C904.47 142.208 904.521 143.548 904.559 144.898L907.219 144.823ZM906.536 132.713C906.305 130.006 906.023 127.337 905.692 124.707L903.051 125.039C903.378 127.634 903.656 130.267 903.884 132.94L906.536 132.713ZM904.513 116.697C904.059 114.006 903.551 111.358 902.993 108.754L900.391 109.312C900.941 111.878 901.441 114.487 901.889 117.141L904.513 116.697ZM901.12 100.891C900.427 98.2532 899.68 95.6644 898.882 93.1247L896.342 93.9229C897.128 96.4219 897.863 98.9701 898.545 101.567L901.12 100.891ZM896.269 85.4757C895.323 82.9178 894.323 80.4145 893.272 77.9662L890.826 79.0163C891.859 81.4224 892.842 83.8833 893.772 86.3986L896.269 85.4757ZM889.885 70.6212C888.677 68.1757 887.415 65.7911 886.103 63.4679L883.785 64.7771C885.073 67.0574 886.312 69.3986 887.499 71.8003L889.885 70.6212ZM881.922 56.5356C880.447 54.241 878.921 52.0139 877.346 49.8549L875.195 51.4237C876.739 53.5402 878.237 55.7241 879.683 57.9749L881.922 56.5356ZM872.376 43.4579C870.638 41.3564 868.852 39.3293 867.021 37.3774L865.079 39.1984C866.872 41.1098 868.622 43.0952 870.325 45.1542L872.376 43.4579ZM861.291 31.6467C859.302 29.7825 857.271 27.9998 855.2 26.2994L853.511 28.3565C855.536 30.0198 857.524 31.764 859.47 33.5884L861.291 31.6467ZM848.766 21.3688C846.55 19.7865 844.297 18.2927 842.011 16.8882L840.618 19.156C842.851 20.5283 845.053 21.9882 847.22 23.5351L848.766 21.3688ZM834.952 12.8861C832.535 11.6273 830.089 10.4642 827.62 9.39763L826.565 11.8413C828.975 12.8822 831.362 14.0176 833.722 15.2468L834.952 12.8861ZM820.052 6.45651C817.481 5.566 814.89 4.77755 812.285 4.09213L811.608 6.66627C814.147 7.33439 816.673 8.10314 819.181 8.97171L820.052 6.45651ZM804.359 2.3321C801.684 1.84685 798.999 1.46952 796.313 1.20114L796.048 3.84973C798.664 4.11101 801.278 4.47844 803.884 4.95115L804.359 2.3321ZM788.198 0.722913C785.483 0.67438 782.773 0.738208 780.071 0.915446L780.246 3.5715C782.872 3.39915 785.509 3.33704 788.15 3.38426L788.198 0.722913ZM771.988 1.79086C769.309 2.19693 766.647 2.71774 764.007 3.3543L764.631 5.94191C767.196 5.32339 769.783 4.81726 772.387 4.42256L771.988 1.79086ZM756.192 5.60173C754.907 6.03256 753.629 6.49214 752.359 6.98059L753.315 9.46494C754.549 8.99042 755.79 8.54395 757.038 8.12541L756.192 5.60173ZM752.359 6.98059C751.065 7.47854 749.799 8.00089 748.562 8.5467L749.636 10.982C750.833 10.4537 752.06 9.94769 753.315 9.46494L752.359 6.98059ZM741.295 12.2017C738.88 13.5779 736.599 15.054 734.45 16.6203L736.017 18.7715C738.085 17.2645 740.283 15.8421 742.613 14.5142L741.295 12.2017ZM728.133 21.8237C726.105 23.7107 724.232 25.691 722.51 27.7521L724.553 29.4583C726.203 27.4829 728 25.5835 729.946 23.7721L728.133 21.8237ZM717.682 34.3533C716.204 36.6758 714.892 39.0723 713.745 41.5283L716.157 42.6546C717.256 40.3021 718.512 38.0069 719.928 35.7826L717.682 34.3533ZM710.77 49.1453C709.94 51.749 709.279 54.3986 708.784 57.0787L711.402 57.5621C711.877 54.9901 712.511 52.449 713.306 49.9532L710.77 49.1453ZM707.796 65.1927C707.631 67.9044 707.629 70.6314 707.787 73.3587L710.444 73.2051C710.292 70.5813 710.295 67.9594 710.452 65.3538L707.796 65.1927ZM708.727 81.4717C709.192 84.1382 709.809 86.791 710.577 89.416L713.131 88.6691C712.392 86.1388 711.797 83.5827 711.349 81.0146L708.727 81.4717ZM713.293 97.1098C714.329 99.6039 715.507 102.058 716.825 104.46L719.158 103.18C717.887 100.862 716.751 98.4939 715.75 96.088L713.293 97.1098ZM721.117 111.388C722.657 113.601 724.325 115.753 726.121 117.831L728.135 116.091C726.4 114.083 724.789 112.005 723.303 109.868L721.117 111.388ZM731.754 123.711C733.707 125.55 735.775 127.312 737.956 128.986L739.576 126.874C737.466 125.255 735.467 123.551 733.579 121.773L731.754 123.711ZM744.657 133.621C746.93 135.035 749.303 136.36 751.774 137.589L752.959 135.205C750.563 134.014 748.263 132.73 746.062 131.361L744.657 133.621ZM759.203 140.866C761.682 141.829 764.245 142.701 766.891 143.474L767.638 140.919C765.064 140.167 762.573 139.32 760.166 138.385L759.203 140.866ZM774.769 145.428C776.092 145.7 777.434 145.949 778.794 146.173L779.228 143.547C777.902 143.328 776.594 143.086 775.305 142.82L774.769 145.428ZM778.794 146.173C780.131 146.394 781.463 146.589 782.791 146.759L783.129 144.119C781.833 143.953 780.533 143.763 779.228 143.547L778.794 146.173ZM790.757 147.488C793.44 147.636 796.106 147.685 798.758 147.641L798.714 144.979C796.124 145.022 793.521 144.975 790.904 144.83L790.757 147.488ZM806.757 147.229C809.416 147.001 812.064 146.684 814.703 146.284L814.304 143.653C811.72 144.044 809.13 144.354 806.529 144.577L806.757 147.229ZM822.563 144.851C825.156 144.3 827.742 143.674 830.324 142.981L829.633 140.41C827.094 141.092 824.554 141.707 822.01 142.247L822.563 144.851ZM837.977 140.727C840.493 139.924 843.008 139.061 845.524 138.145L844.613 135.644C842.128 136.549 839.647 137.4 837.167 138.192L837.977 140.727ZM852.971 135.284C855.407 134.302 857.846 133.274 860.29 132.208L859.226 129.768C856.802 130.826 854.386 131.843 851.975 132.815L852.971 135.284ZM867.529 128.946C869.912 127.84 872.303 126.702 874.703 125.535L873.539 123.141C871.152 124.301 868.776 125.433 866.409 126.531L867.529 128.946ZM881.827 122.009C884.172 120.83 886.527 119.628 888.895 118.409L887.677 116.042C885.315 117.259 882.967 118.456 880.631 119.631L881.827 122.009ZM895.918 114.764C898.243 113.549 900.581 112.322 902.935 111.085L901.697 108.729C899.344 109.965 897.007 111.192 894.686 112.404L895.918 114.764ZM909.959 107.395C912.277 106.179 914.612 104.957 916.964 103.734L915.735 101.372C913.379 102.598 911.042 103.821 908.722 105.038L909.959 107.395ZM923.985 100.108C926.32 98.9115 928.673 97.7169 931.046 96.5272L929.853 94.1478C927.472 95.3414 925.112 96.5395 922.771 97.7387L923.985 100.108ZM938.133 93.0203C940.483 91.8741 942.853 90.7354 945.244 89.6074L944.108 87.2001C941.706 88.3334 939.325 89.4771 936.966 90.628L938.133 93.0203ZM952.419 86.2872C954.805 85.2054 957.212 84.1366 959.643 83.0837L958.585 80.6413C956.139 81.7005 953.718 82.7754 951.32 83.8631L952.419 86.2872ZM966.9 80.0182C969.322 79.0218 971.767 78.0432 974.237 77.0851L973.274 74.6036C970.787 75.5684 968.325 76.5537 965.887 77.5566L966.9 80.0182ZM981.622 74.31C984.075 73.4189 986.552 72.5495 989.053 71.7045L988.202 69.1827C985.68 70.0344 983.184 70.9105 980.713 71.8083L981.622 74.31ZM996.575 69.2634C999.063 68.4891 1001.58 67.7402 1004.11 67.0189L1003.39 64.4585C1000.83 65.186 998.292 65.9412 995.784 66.7218L996.575 69.2634ZM1011.72 64.9617C1014.26 64.3117 1016.82 63.6902 1019.4 63.0993L1018.81 60.5044C1016.2 61.1007 1013.62 61.7277 1011.06 62.3834L1011.72 64.9617ZM1027.08 61.4524C1029.65 60.938 1032.24 60.4544 1034.86 60.0036L1034.41 57.3804C1031.76 57.8354 1029.15 58.3234 1026.56 58.8425L1027.08 61.4524ZM1042.61 58.7782C1045.2 58.4064 1047.8 58.0669 1050.44 57.7614L1050.13 55.1174C1047.47 55.4257 1044.84 55.7683 1042.23 56.1436L1042.61 58.7782ZM1058.28 56.9621C1060.87 56.7339 1063.48 56.5389 1066.12 56.3787L1065.96 53.7218C1063.3 53.8835 1060.66 54.0803 1058.04 54.3106L1058.28 56.9621ZM1074.02 56.0077C1076.61 55.921 1079.23 55.868 1081.87 55.8499L1081.85 53.1882C1079.18 53.2064 1076.54 53.26 1073.93 53.3474L1074.02 56.0077ZM1089.79 55.9004C1092.38 55.9509 1094.99 56.0349 1097.62 56.1537L1097.74 53.4947C1095.08 53.3748 1092.45 53.2901 1089.84 53.2392L1089.79 55.9004ZM1105.54 56.611C1108.12 56.7926 1110.72 57.0074 1113.35 57.2565L1113.6 54.6067C1110.95 54.3555 1108.33 54.1389 1105.73 53.9558L1105.54 56.611ZM1121.23 58.0992C1123.8 58.4052 1126.39 58.744 1129.01 59.1165L1129.39 56.4813C1126.75 56.1059 1124.13 55.7645 1121.54 55.456L1121.23 58.0992ZM1136.82 60.3179C1138.14 60.5349 1139.46 60.7603 1140.78 60.9942L1141.24 58.373C1139.91 58.1374 1138.58 57.9103 1137.26 57.6918L1136.82 60.3179Z" fill="#D9D9D9"/>
</svg>
