<svg width="1145" height="317" viewBox="0 0 1145 317" fill="none" xmlns="http://www.w3.org/2000/svg">
<path d="M311.653 59.2019L311.591 60.5314L311.653 59.2019ZM754.837 314.732L754.76 313.403L754.837 314.732ZM907.889 144.822L906.559 144.86L907.889 144.822ZM754.837 8.18468L755.315 9.42685L754.837 8.18468ZM781.011 144.822L781.228 143.509L781.011 144.822ZM1143.77 60.7359C1144.38 60.3145 1144.52 59.4847 1144.1 58.8825L1137.23 49.0688C1136.81 48.4666 1135.98 48.32 1135.38 48.7415C1134.78 49.1629 1134.63 49.9927 1135.05 50.5949L1141.16 59.3182L1132.44 65.4227C1131.83 65.8441 1131.69 66.674 1132.11 67.2762C1132.53 67.8784 1133.36 68.0249 1133.96 67.6035L1143.77 60.7359ZM5.52198 312.524C5.98525 311.953 5.8982 311.115 5.32754 310.652C4.75689 310.188 3.91873 310.275 3.45546 310.846L5.52198 312.524ZM8.35251 304.742C7.89579 305.318 7.9924 306.155 8.5683 306.612C9.14421 307.069 9.98132 306.972 10.438 306.396L8.35251 304.742ZM15.2892 300.211C15.7397 299.63 15.6342 298.794 15.0534 298.343C14.4727 297.893 13.6366 297.998 13.1861 298.579L15.2892 300.211ZM17.95 292.374C17.5052 292.96 17.6191 293.795 18.2043 294.239C18.7895 294.684 19.6244 294.57 20.0692 293.985L17.95 292.374ZM24.798 287.703C25.2374 287.113 25.1159 286.28 24.5267 285.84C23.9374 285.401 23.1036 285.522 22.6642 286.112L24.798 287.703ZM27.3118 279.823C26.8773 280.416 27.0058 281.249 27.5987 281.683C28.1915 282.118 29.0244 281.989 29.4588 281.397L27.3118 279.823ZM34.0838 275.034C34.5137 274.438 34.379 273.606 33.7829 273.176C33.1867 272.746 32.3549 272.881 31.9249 273.477L34.0838 275.034ZM36.4781 267.118C36.0521 267.717 36.1924 268.548 36.7914 268.974C37.3904 269.4 38.2213 269.26 38.6473 268.661L36.4781 267.118ZM43.1854 262.239C43.6079 261.637 43.4628 260.807 42.8613 260.385C42.2598 259.962 41.4298 260.107 41.0073 260.709L43.1854 262.239ZM45.4909 254.291C45.0714 254.895 45.2206 255.724 45.8242 256.143C46.4277 256.563 47.2571 256.414 47.6766 255.81L45.4909 254.291ZM52.1457 249.352C52.5628 248.747 52.4103 247.918 51.805 247.501C51.1998 247.084 50.371 247.236 49.954 247.841L52.1457 249.352ZM54.3914 241.38C53.9762 241.987 54.1312 242.815 54.7377 243.23C55.3442 243.645 56.1725 243.49 56.5877 242.884L54.3914 241.38ZM61.0107 236.408C61.4247 235.801 61.2679 234.973 60.6605 234.559C60.0532 234.145 59.2252 234.302 58.8112 234.909L61.0107 236.408ZM63.2278 228.421C62.8145 229.029 62.9721 229.856 63.5799 230.27C64.1877 230.683 65.0155 230.525 65.4288 229.918L63.2278 228.421ZM69.8302 223.444C70.2435 222.836 70.0858 222.009 69.478 221.595C68.8702 221.182 68.0424 221.34 67.6291 221.947L69.8302 223.444ZM72.0523 215.449C71.6383 216.057 71.7951 216.885 72.4024 217.299C73.0098 217.713 73.8377 217.556 74.2517 216.948L72.0523 215.449ZM78.6673 210.484C79.0826 209.878 78.9277 209.049 78.3212 208.634C77.7148 208.219 76.8865 208.374 76.4712 208.98L78.6673 210.484ZM80.9208 202.505C80.5034 203.11 80.6556 203.939 81.2606 204.356C81.8656 204.774 82.6945 204.621 83.1118 204.016L80.9208 202.505ZM87.5756 197.576C87.9957 196.973 87.8474 196.143 87.2443 195.723C86.6412 195.303 85.8117 195.451 85.3915 196.055L87.5756 197.576ZM89.8936 189.631C89.4699 190.232 89.6133 191.062 90.2139 191.486C90.8145 191.91 91.6449 191.766 92.0686 191.166L89.8936 189.631ZM96.6131 184.772C97.0411 184.174 96.9037 183.343 96.3062 182.915C95.7087 182.487 94.8773 182.624 94.4492 183.222L96.6131 184.772ZM99.0404 176.869C98.6072 177.463 98.7374 178.296 99.3312 178.729C99.925 179.162 100.758 179.032 101.191 178.438L99.0404 176.869ZM105.845 172.124C106.285 171.535 106.163 170.701 105.573 170.262C104.984 169.822 104.15 169.944 103.711 170.534L105.845 172.124ZM108.441 164.262C107.995 164.846 108.107 165.681 108.691 166.127C109.275 166.573 110.111 166.461 110.557 165.877L108.441 164.262ZM115.342 159.694C115.795 159.116 115.695 158.28 115.116 157.826C114.538 157.372 113.701 157.473 113.248 158.051L115.342 159.694ZM118.155 151.893C117.692 152.464 117.781 153.302 118.352 153.764C118.923 154.227 119.761 154.139 120.224 153.567L118.155 151.893ZM125.186 147.539C125.658 146.976 125.584 146.136 125.02 145.664C124.457 145.192 123.618 145.266 123.146 145.83L125.186 147.539ZM128.257 139.84C127.775 140.394 127.833 141.235 128.388 141.717C128.942 142.2 129.783 142.141 130.266 141.587L128.257 139.84ZM135.456 135.74C135.95 135.196 135.908 134.354 135.364 133.861C134.819 133.367 133.978 133.408 133.484 133.953L135.456 135.74ZM138.825 128.191C138.319 128.724 138.342 129.567 138.875 130.073C139.408 130.578 140.251 130.556 140.757 130.023L138.825 128.191ZM146.21 124.412C146.728 123.892 146.727 123.049 146.206 122.53C145.686 122.011 144.843 122.013 144.324 122.533L146.21 124.412ZM149.956 117.029C149.424 117.535 149.403 118.378 149.909 118.91C150.416 119.443 151.258 119.464 151.791 118.957L149.956 117.029ZM157.515 113.664C158.062 113.173 158.107 112.332 157.616 111.785C157.125 111.238 156.283 111.193 155.736 111.684L157.515 113.664ZM161.686 106.501C161.125 106.976 161.054 107.815 161.528 108.377C162.002 108.939 162.841 109.01 163.403 108.536L161.686 106.501ZM169.441 103.606C170.018 103.15 170.116 102.314 169.661 101.737C169.206 101.16 168.369 101.061 167.792 101.516L169.441 103.606ZM174.066 96.7372C173.473 97.1723 173.346 98.0053 173.781 98.5976C174.216 99.19 175.049 99.3175 175.641 98.8824L174.066 96.7372ZM182.004 94.3835C182.612 93.9702 182.77 93.1424 182.356 92.5346C181.943 91.9268 181.115 91.769 180.507 92.1823L182.004 94.3835ZM187.115 87.8698C186.492 88.2597 186.303 89.0809 186.693 89.704C187.083 90.3271 187.904 90.5161 188.527 90.1262L187.115 87.8698ZM195.212 86.1223C195.85 85.7571 196.071 84.944 195.706 84.3061C195.341 83.6682 194.528 83.4471 193.89 83.8122L195.212 86.1223ZM200.811 80.0328C200.159 80.372 199.905 81.1756 200.244 81.8277C200.583 82.4797 201.387 82.7334 202.039 82.3942L200.811 80.0328ZM209.022 78.9414C209.688 78.6292 209.974 77.8367 209.662 77.1713C209.35 76.5058 208.557 76.2194 207.892 76.5316L209.022 78.9414ZM215.111 73.3257C214.433 73.6101 214.114 74.3901 214.398 75.0679C214.683 75.7457 215.463 76.0646 216.14 75.7802L215.111 73.3257ZM223.366 72.9228C224.055 72.6667 224.406 71.9005 224.15 71.2116C223.894 70.5226 223.128 70.1717 222.439 70.4278L223.366 72.9228ZM229.915 67.8231C229.216 68.0506 228.834 68.8016 229.061 69.5006C229.289 70.1995 230.04 70.5817 230.739 70.3542L229.915 67.8231ZM238.173 68.1C238.881 67.9009 239.293 67.166 239.094 66.4584C238.895 65.7508 238.16 65.3386 237.452 65.5377L238.173 68.1ZM245.085 63.553C244.371 63.7239 243.93 64.442 244.101 65.1568C244.271 65.8717 244.989 66.3127 245.704 66.1418L245.085 63.553ZM253.344 64.4719C254.065 64.3288 254.533 63.6284 254.39 62.9074C254.247 62.1864 253.547 61.718 252.826 61.8611L253.344 64.4719ZM260.55 60.4769C259.824 60.5932 259.33 61.2758 259.447 62.0016C259.563 62.7274 260.246 63.2214 260.971 63.1051L260.55 60.4769ZM268.732 62.0053C269.461 61.9152 269.98 61.2508 269.89 60.5213C269.8 59.7918 269.135 59.2735 268.406 59.3636L268.732 62.0053ZM276.203 58.5362C275.47 58.6014 274.93 59.2478 274.995 59.9799C275.06 60.712 275.707 61.2527 276.439 61.1875L276.203 58.5362ZM284.238 60.6228C284.972 60.5817 285.533 59.9534 285.492 59.2195C285.451 58.4857 284.823 57.9241 284.089 57.9653L284.238 60.6228ZM291.947 57.6479C291.213 57.6662 290.632 58.2768 290.65 59.0116C290.668 59.7464 291.279 60.3272 292.014 60.3088L291.947 57.6479ZM299.819 60.23C300.555 60.2333 301.153 59.6402 301.156 58.9052C301.16 58.1701 300.567 57.5716 299.832 57.5683L299.819 60.23ZM307.706 57.7149C306.971 57.691 306.357 58.2673 306.333 59.0019C306.309 59.7365 306.885 60.3514 307.62 60.3753L307.706 57.7149ZM315.609 60.7584C316.342 60.8074 316.976 60.2527 317.025 59.5193C317.075 58.7859 316.52 58.1516 315.786 58.1025L315.609 60.7584ZM323.815 58.8067C323.084 58.7273 322.427 59.2553 322.348 59.986C322.269 60.7167 322.797 61.3735 323.527 61.4529L323.815 58.8067ZM331.382 62.473C332.109 62.5829 332.787 62.0828 332.897 61.3561C333.007 60.6293 332.507 59.9511 331.78 59.8412L331.382 62.473ZM339.728 61.2151C339.007 61.0746 338.308 61.5457 338.168 62.2672C338.027 62.9886 338.498 63.6874 339.22 63.8278L339.728 61.2151ZM346.962 65.5039C347.677 65.6745 348.394 65.2331 348.565 64.5181C348.735 63.8032 348.294 63.0853 347.579 62.9148L346.962 65.5039ZM355.382 64.9485C354.674 64.7484 353.939 65.1595 353.739 65.8668C353.539 66.5741 353.95 67.3096 354.657 67.5097L355.382 64.9485ZM362.24 69.8236C362.939 70.0524 363.691 69.6715 363.919 68.973C364.148 68.2745 363.767 67.5228 363.069 67.294L362.24 69.8236ZM370.673 69.9536C369.984 69.6973 369.218 70.0479 368.962 70.7368C368.705 71.4257 369.056 72.1919 369.745 72.4482L370.673 69.9536ZM377.129 75.3599C377.808 75.6426 378.587 75.3216 378.87 74.6431C379.152 73.9646 378.831 73.1854 378.153 72.9028L377.129 75.3599ZM385.524 76.1355C384.856 75.828 384.065 76.1198 383.758 76.7874C383.45 77.455 383.742 78.2455 384.41 78.5531L385.524 76.1355ZM391.567 82.006C392.223 82.3369 393.024 82.0731 393.355 81.4168C393.686 80.7605 393.422 79.9602 392.765 79.6293L391.567 82.006ZM399.884 83.3706C399.239 83.0178 398.43 83.2546 398.077 83.8995C397.725 84.5444 397.961 85.3531 398.606 85.7058L399.884 83.3706ZM405.523 89.6342C406.157 90.0071 406.972 89.796 407.345 89.1626C407.718 88.5293 407.507 87.7135 406.874 87.3405L405.523 89.6342ZM413.736 91.521C413.114 91.1294 412.292 91.3162 411.901 91.9383C411.509 92.5603 411.696 93.382 412.318 93.7736L413.736 91.521ZM418.996 98.1094C419.607 98.518 420.433 98.3541 420.842 97.7431C421.251 97.1322 421.087 96.3056 420.476 95.8969L418.996 98.1094ZM427.091 100.448C426.491 100.024 425.66 100.166 425.236 100.766C424.812 101.367 424.954 102.197 425.554 102.621L427.091 100.448ZM432.006 107.299C432.596 107.738 433.43 107.615 433.868 107.025C434.307 106.435 434.184 105.601 433.594 105.163L432.006 107.299ZM439.98 110.02C439.4 109.569 438.564 109.673 438.113 110.253C437.661 110.834 437.766 111.67 438.346 112.121L439.98 110.02ZM444.593 117.081C445.164 117.544 446.002 117.456 446.465 116.885C446.927 116.314 446.839 115.476 446.268 115.013L444.593 117.081ZM452.451 120.118C451.888 119.645 451.049 119.717 450.576 120.28C450.103 120.843 450.175 121.682 450.738 122.155L452.451 120.118ZM456.805 127.344C457.359 127.826 458.2 127.767 458.682 127.213C459.164 126.658 459.106 125.817 458.551 125.335L456.805 127.344ZM464.558 130.636C464.01 130.146 463.169 130.192 462.678 130.74C462.188 131.288 462.234 132.129 462.782 132.619L464.558 130.636ZM468.698 137.989C469.239 138.487 470.081 138.451 470.578 137.91C471.076 137.369 471.041 136.527 470.5 136.03L468.698 137.989ZM476.361 141.483C475.826 140.98 474.983 141.005 474.48 141.541C473.976 142.076 474.002 142.918 474.537 143.422L476.361 141.483ZM480.332 148.931C480.862 149.44 481.704 149.422 482.213 148.892C482.722 148.362 482.705 147.519 482.175 147.01L480.332 148.931ZM487.923 152.577C487.397 152.063 486.555 152.073 486.041 152.599C485.528 153.125 485.538 153.968 486.064 154.481L487.923 152.577ZM491.767 160.091C492.289 160.608 493.132 160.604 493.649 160.082C494.166 159.559 494.162 158.717 493.64 158.199L491.767 160.091ZM499.306 163.844C498.787 163.324 497.944 163.323 497.424 163.843C496.904 164.362 496.903 165.205 497.423 165.725L499.306 163.844ZM503.063 171.4C503.581 171.922 504.423 171.927 504.946 171.41C505.468 170.892 505.472 170.05 504.955 169.527L503.063 171.4ZM510.572 175.219C510.057 174.695 509.214 174.689 508.69 175.204C508.166 175.72 508.16 176.563 508.675 177.086L510.572 175.219ZM514.282 182.793C514.797 183.318 515.639 183.326 516.164 182.811C516.689 182.297 516.697 181.454 516.182 180.929L514.282 182.793ZM521.782 186.64C521.268 186.115 520.425 186.107 519.9 186.621C519.375 187.136 519.367 187.979 519.882 188.503L521.782 186.64ZM525.486 194.213C526.001 194.737 526.844 194.744 527.368 194.229C527.892 193.714 527.9 192.871 527.384 192.347L525.486 194.213ZM532.997 198.045C532.481 197.522 531.638 197.517 531.115 198.034C530.592 198.55 530.587 199.393 531.103 199.916L532.997 198.045ZM536.736 205.599C537.255 206.12 538.097 206.122 538.618 205.604C539.139 205.085 539.141 204.243 538.623 203.722L536.736 205.599ZM544.277 209.376C543.756 208.857 542.913 208.859 542.394 209.381C541.876 209.902 541.878 210.744 542.399 211.263L544.277 209.376ZM548.093 216.891C548.617 217.406 549.46 217.398 549.975 216.874C550.49 216.349 550.482 215.506 549.958 214.991L548.093 216.891ZM555.681 220.569C555.152 220.058 554.31 220.072 553.799 220.601C553.288 221.129 553.302 221.972 553.831 222.482L555.681 220.569ZM559.616 228.023C560.149 228.529 560.991 228.507 561.497 227.974C562.003 227.441 561.981 226.598 561.448 226.092L559.616 228.023ZM567.269 231.558C566.731 231.058 565.889 231.089 565.388 231.628C564.888 232.166 564.92 233.008 565.458 233.508L567.269 231.558ZM571.365 238.928C571.91 239.421 572.752 239.38 573.245 238.835C573.739 238.29 573.697 237.448 573.153 236.955L571.365 238.928ZM579.101 242.271C578.55 241.785 577.709 241.838 577.223 242.39C576.737 242.941 576.79 243.782 577.341 244.268L579.101 242.271ZM583.401 249.527C583.96 250.004 584.8 249.938 585.278 249.379C585.755 248.82 585.689 247.98 585.13 247.503L583.401 249.527ZM591.234 252.628C590.667 252.16 589.828 252.241 589.36 252.808C588.892 253.375 588.973 254.214 589.54 254.681L591.234 252.628ZM595.78 259.734C596.356 260.191 597.193 260.095 597.65 259.52C598.107 258.944 598.011 258.107 597.435 257.65L595.78 259.734ZM603.721 262.539C603.137 262.094 602.302 262.207 601.856 262.792C601.411 263.376 601.524 264.212 602.109 264.657L603.721 262.539ZM608.556 269.454C609.15 269.886 609.982 269.754 610.415 269.159C610.847 268.565 610.715 267.732 610.12 267.3L608.556 269.454ZM616.613 271.902C616.008 271.484 615.179 271.636 614.761 272.241C614.343 272.846 614.495 273.675 615.1 274.092L616.613 271.902ZM621.773 278.576C622.388 278.978 623.213 278.805 623.615 278.19C624.017 277.575 623.844 276.75 623.228 276.348L621.773 278.576ZM629.946 280.606C629.32 280.221 628.5 280.417 628.115 281.043C627.73 281.67 627.926 282.489 628.552 282.874L629.946 280.606ZM635.465 286.984C636.102 287.35 636.915 287.13 637.282 286.493C637.648 285.856 637.428 285.042 636.791 284.676L635.465 286.984ZM643.745 288.53C643.097 288.184 642.291 288.429 641.944 289.078C641.598 289.726 641.843 290.532 642.492 290.879L643.745 288.53ZM649.647 294.55C650.306 294.874 651.104 294.603 651.429 293.943C651.753 293.284 651.482 292.486 650.822 292.162L649.647 294.55ZM658.015 295.551C657.345 295.249 656.557 295.548 656.255 296.218C655.953 296.888 656.252 297.676 656.922 297.978L658.015 295.551ZM664.311 301.147C664.992 301.424 665.768 301.097 666.046 300.416C666.323 299.736 665.996 298.959 665.316 298.682L664.311 301.147ZM672.736 301.547C672.045 301.295 671.281 301.651 671.03 302.341C670.778 303.032 671.133 303.796 671.824 304.048L672.736 301.547ZM679.421 306.657C680.121 306.882 680.871 306.498 681.096 305.798C681.322 305.098 680.937 304.349 680.237 304.123L679.421 306.657ZM687.863 306.416C687.155 306.218 686.421 306.631 686.223 307.339C686.025 308.047 686.439 308.781 687.147 308.979L687.863 306.416ZM694.914 310.984C695.629 311.153 696.346 310.711 696.516 309.996C696.686 309.281 696.243 308.563 695.528 308.394L694.914 310.984ZM703.327 310.078C702.606 309.937 701.907 310.408 701.766 311.13C701.626 311.851 702.097 312.55 702.818 312.691L703.327 310.078ZM710.701 314.065C711.428 314.176 712.107 313.678 712.219 312.952C712.331 312.225 711.832 311.546 711.106 311.434L710.701 314.065ZM719.035 312.491C718.304 312.408 717.646 312.934 717.563 313.664C717.481 314.394 718.006 315.053 718.736 315.136L719.035 312.491ZM726.683 315.876C727.416 315.93 728.054 315.379 728.108 314.646C728.162 313.913 727.611 313.275 726.878 313.221L726.683 315.876ZM734.86 313.652C734.126 313.626 733.51 314.201 733.484 314.936C733.459 315.67 734.034 316.286 734.769 316.312L734.86 313.652ZM742.76 316.436C743.495 316.434 744.089 315.836 744.087 315.101C744.084 314.366 743.487 313.772 742.752 313.774L742.76 316.436ZM750.719 313.602C749.985 313.631 749.413 314.25 749.442 314.985C749.472 315.719 750.091 316.291 750.826 316.261L750.719 313.602ZM758.937 315.785C759.67 315.727 760.217 315.086 760.159 314.353C760.101 313.621 759.461 313.073 758.728 313.131L758.937 315.785ZM766.638 312.343C765.908 312.431 765.388 313.094 765.476 313.824C765.564 314.554 766.227 315.074 766.957 314.986L766.638 312.343ZM774.937 313.854C775.662 313.735 776.154 313.051 776.036 312.325C775.917 311.6 775.233 311.108 774.507 311.227L774.937 313.854ZM782.321 309.777C781.601 309.927 781.139 310.632 781.289 311.351C781.438 312.071 782.143 312.533 782.863 312.383L782.321 309.777ZM790.718 310.571C791.431 310.39 791.862 309.665 791.681 308.953C791.5 308.241 790.775 307.81 790.063 307.991L790.718 310.571ZM797.717 305.863C797.013 306.076 796.615 306.819 796.828 307.522C797.041 308.226 797.784 308.624 798.487 308.411L797.717 305.863ZM806.151 305.9C806.844 305.655 807.207 304.895 806.962 304.201C806.718 303.508 805.957 303.145 805.264 303.39L806.151 305.9ZM812.687 300.569C812.006 300.846 811.679 301.623 811.956 302.303C812.234 302.984 813.01 303.311 813.691 303.034L812.687 300.569ZM821.088 299.809C821.754 299.499 822.043 298.707 821.733 298.041C821.423 297.375 820.631 297.086 819.965 297.396L821.088 299.809ZM827.077 293.87C826.426 294.213 826.177 295.018 826.52 295.668C826.863 296.318 827.668 296.567 828.318 296.224L827.077 293.87ZM835.36 292.279C835.992 291.903 836.2 291.087 835.824 290.455C835.448 289.823 834.632 289.615 834 289.991L835.36 292.279ZM840.712 285.761C840.1 286.169 839.936 286.995 840.344 287.607C840.752 288.218 841.578 288.383 842.19 287.975L840.712 285.761ZM848.783 283.314C849.372 282.874 849.492 282.04 849.052 281.452C848.612 280.863 847.778 280.743 847.189 281.183L848.783 283.314ZM853.409 276.263C852.845 276.734 852.77 277.574 853.242 278.138C853.713 278.701 854.553 278.776 855.117 278.305L853.409 276.263ZM861.166 272.954C861.703 272.452 861.731 271.61 861.229 271.073C860.727 270.536 859.885 270.508 859.348 271.01L861.166 272.954ZM864.986 265.435C864.478 265.967 864.497 266.809 865.028 267.317C865.559 267.825 866.402 267.806 866.91 267.275L864.986 265.435ZM872.325 261.281C872.803 260.722 872.736 259.882 872.177 259.405C871.618 258.928 870.778 258.994 870.301 259.553L872.325 261.281ZM875.276 253.381C874.831 253.966 874.945 254.801 875.53 255.246C876.115 255.69 876.95 255.577 877.395 254.992L875.276 253.381ZM882.102 248.427C882.513 247.818 882.353 246.99 881.743 246.579C881.134 246.168 880.307 246.328 879.896 246.937L882.102 248.427ZM884.148 240.245C883.771 240.876 883.977 241.693 884.608 242.07C885.239 242.446 886.056 242.24 886.433 241.609L884.148 240.245ZM890.381 234.564C890.722 233.913 890.472 233.108 889.821 232.767C889.17 232.425 888.365 232.676 888.024 233.327L890.381 234.564ZM891.519 226.208C891.213 226.876 891.506 227.666 892.175 227.972C892.843 228.278 893.633 227.984 893.939 227.316L891.519 226.208ZM897.106 219.892C897.377 219.209 897.042 218.436 896.359 218.165C895.676 217.894 894.902 218.229 894.632 218.912L897.106 219.892ZM897.364 211.464C897.129 212.16 897.502 212.916 898.198 213.152C898.894 213.387 899.65 213.014 899.885 212.318L897.364 211.464ZM902.282 204.617C902.484 203.91 902.074 203.174 901.367 202.972C900.66 202.771 899.924 203.181 899.722 203.888L902.282 204.617ZM901.714 196.204C901.547 196.92 901.991 197.636 902.706 197.804C903.422 197.971 904.138 197.527 904.306 196.811L901.714 196.204ZM905.967 188.922C906.102 188.2 905.626 187.504 904.903 187.369C904.181 187.234 903.486 187.71 903.35 188.432L905.967 188.922ZM904.642 180.59C904.538 181.317 905.044 181.991 905.772 182.095C906.499 182.199 907.173 181.694 907.277 180.966L904.642 180.59ZM908.252 172.957C908.326 172.226 907.793 171.573 907.061 171.499C906.33 171.426 905.677 171.959 905.604 172.69L908.252 172.957ZM906.247 164.744C906.202 165.478 906.76 166.109 907.494 166.154C908.228 166.2 908.859 165.641 908.904 164.908L906.247 164.744ZM909.247 156.884C909.264 156.149 908.683 155.539 907.948 155.521C907.214 155.503 906.603 156.084 906.586 156.819L909.247 156.884ZM906.637 148.878C906.645 149.613 907.248 150.202 907.983 150.194C908.718 150.186 909.307 149.583 909.299 148.848L906.637 148.878ZM909.067 140.713C909.032 139.979 908.409 139.412 907.675 139.446C906.941 139.481 906.373 140.104 906.408 140.838L909.067 140.713ZM905.884 132.902C905.947 133.634 906.591 134.177 907.324 134.114C908.056 134.052 908.599 133.407 908.536 132.675L905.884 132.902ZM907.692 124.669C907.6 123.939 906.935 123.423 906.205 123.514C905.476 123.606 904.959 124.272 905.051 125.001L907.692 124.669ZM903.889 117.103C904.011 117.827 904.698 118.316 905.423 118.193C906.148 118.071 906.636 117.384 906.513 116.659L903.889 117.103ZM904.993 108.716C904.839 107.997 904.132 107.539 903.413 107.694C902.694 107.848 902.236 108.555 902.391 109.274L904.993 108.716ZM900.545 101.529C900.732 102.24 901.46 102.665 902.171 102.478C902.882 102.291 903.306 101.564 903.12 100.853L900.545 101.529ZM900.882 93.0866C900.661 92.3854 899.914 91.9956 899.213 92.2161C898.512 92.4365 898.122 93.1836 898.342 93.8848L900.882 93.0866ZM895.772 86.3605C896.027 87.05 896.792 87.4022 897.482 87.1474C898.171 86.8925 898.524 86.127 898.269 85.4376L895.772 86.3605ZM895.272 77.9281C894.982 77.2527 894.2 76.9402 893.524 77.2302C892.849 77.5202 892.536 78.3028 892.826 78.9782L895.272 77.9281ZM889.499 71.7622C889.824 72.4212 890.623 72.6914 891.282 72.3658C891.941 72.0402 892.211 71.242 891.885 70.5831L889.499 71.7622ZM888.103 63.4298C887.741 62.7898 886.929 62.5641 886.289 62.9256C885.649 63.2871 885.423 64.099 885.785 64.739L888.103 63.4298ZM881.683 57.9368C882.081 58.5551 882.904 58.7341 883.523 58.3367C884.141 57.9392 884.32 57.1158 883.922 56.4975L881.683 57.9368ZM879.346 49.8168C878.912 49.223 878.08 49.0928 877.486 49.526C876.892 49.9592 876.762 50.7918 877.195 51.3856L879.346 49.8168ZM872.325 45.1162C872.793 45.6826 873.632 45.762 874.198 45.2936C874.765 44.8252 874.844 43.9862 874.376 43.4198L872.325 45.1162ZM869.021 37.3393C868.518 36.8032 867.676 36.7763 867.139 37.2791C866.603 37.782 866.576 38.6242 867.079 39.1603L869.021 37.3393ZM861.47 33.5503C862.006 34.0531 862.848 34.026 863.351 33.4898C863.854 32.9536 863.827 32.1114 863.291 31.6086L861.47 33.5503ZM857.2 26.2613C856.632 25.7949 855.793 25.8772 855.327 26.4453C854.86 27.0134 854.943 27.852 855.511 28.3184L857.2 26.2613ZM849.22 23.497C849.818 23.9241 850.649 23.7854 851.076 23.1872C851.503 22.589 851.364 21.7579 850.766 21.3307L849.22 23.497ZM844.011 16.8501C843.385 16.4653 842.565 16.661 842.18 17.2872C841.796 17.9135 841.991 18.7331 842.618 19.1179L844.011 16.8501ZM835.722 15.2087C836.374 15.5483 837.178 15.2951 837.517 14.6432C837.857 13.9913 837.604 13.1876 836.952 12.848L835.722 15.2087ZM829.62 9.35954C828.945 9.06812 828.162 9.3789 827.87 10.0537C827.579 10.7285 827.89 11.5117 828.565 11.8032L829.62 9.35954ZM821.181 8.93363C821.876 9.17417 822.634 8.80611 822.874 8.11156C823.115 7.417 822.747 6.65896 822.052 6.41842L821.181 8.93363ZM814.285 4.05405C813.575 3.86699 812.847 4.2916 812.66 5.00242C812.473 5.71325 812.897 6.44113 813.608 6.62818L814.285 4.05405ZM805.884 4.91307C806.608 5.04422 807.3 4.56425 807.431 3.84102C807.563 3.11779 807.083 2.42517 806.359 2.29402L805.884 4.91307ZM798.313 1.16306C797.581 1.09 796.929 1.62368 796.856 2.35507C796.783 3.08645 797.317 3.73859 798.048 3.81164L798.313 1.16306ZM790.15 3.34617C790.885 3.35931 791.492 2.7742 791.505 2.03929C791.518 1.30438 790.933 0.697966 790.198 0.684827L790.15 3.34617ZM782.071 0.87736C781.338 0.925487 780.782 1.55908 780.831 2.29253C780.879 3.02598 781.512 3.58154 782.246 3.53342L782.071 0.87736ZM774.387 4.38448C775.114 4.2743 775.613 3.59587 775.503 2.86914C775.393 2.14242 774.715 1.64261 773.988 1.75278L774.387 4.38448ZM766.007 3.31621C765.292 3.48851 764.853 4.20744 765.025 4.92199C765.197 5.63654 765.916 6.07612 766.631 5.90382L766.007 3.31621ZM759.038 8.08732C759.735 7.85365 760.111 7.09927 759.877 6.40238C759.643 5.70549 758.889 5.32997 758.192 5.56364L759.038 8.08732ZM750.562 8.50862C749.889 8.80529 749.584 9.59096 749.881 10.2635C750.178 10.9359 750.963 11.2406 751.636 10.9439L750.562 8.50862ZM744.613 14.4761C745.251 14.1121 745.474 13.2994 745.11 12.6608C744.746 12.0222 743.933 11.7996 743.295 12.1637L744.613 14.4761ZM736.45 16.5822C735.855 17.0151 735.725 17.8476 736.158 18.4416C736.591 19.0357 737.423 19.1663 738.017 18.7335L736.45 16.5822ZM731.946 23.734C732.484 23.2332 732.515 22.3911 732.014 21.853C731.513 21.315 730.671 21.2848 730.133 21.7856L731.946 23.734ZM724.51 27.714C724.039 28.2782 724.115 29.1175 724.679 29.5886C725.243 30.0598 726.082 29.9844 726.553 29.4202L724.51 27.714ZM721.928 35.7445C722.323 35.1244 722.14 34.3018 721.52 33.9071C720.9 33.5124 720.077 33.6951 719.682 34.3152L721.928 35.7445ZM715.746 41.4902C715.434 42.1562 715.722 42.9482 716.388 43.2592C717.054 43.5702 717.846 43.2825 718.157 42.6165L715.746 41.4902ZM715.306 49.9151C715.529 49.2147 715.142 48.4661 714.442 48.243C713.741 48.02 712.993 48.4069 712.77 49.1072L715.306 49.9151ZM710.784 57.0406C710.651 57.7634 711.129 58.4576 711.851 58.5911C712.574 58.7246 713.268 58.2468 713.402 57.524L710.784 57.0406ZM712.452 65.3157C712.497 64.582 711.938 63.9512 711.205 63.9067C710.471 63.8623 709.84 64.421 709.796 65.1547L712.452 65.3157ZM709.787 73.3206C709.829 74.0544 710.458 74.6149 711.192 74.5724C711.926 74.53 712.486 73.9008 712.444 73.167L709.787 73.3206ZM713.349 80.9765C713.223 80.2524 712.534 79.7677 711.81 79.894C711.086 80.0202 710.601 80.7095 710.727 81.4336L713.349 80.9765ZM712.577 89.3779C712.783 90.0834 713.522 90.4881 714.227 90.2818C714.933 90.0756 715.338 89.3365 715.131 88.631L712.577 89.3779ZM717.75 96.0499C717.468 95.3712 716.689 95.0497 716.011 95.3319C715.332 95.614 715.01 96.3929 715.293 97.0717L717.75 96.0499ZM718.825 104.422C719.178 105.067 719.987 105.303 720.631 104.949C721.276 104.596 721.512 103.787 721.158 103.142L718.825 104.422ZM725.303 109.83C724.883 109.226 724.054 109.077 723.45 109.497C722.847 109.917 722.698 110.746 723.117 111.349L725.303 109.83ZM728.121 117.793C728.601 118.35 729.442 118.411 729.998 117.931C730.554 117.45 730.615 116.61 730.135 116.053L728.121 117.793ZM735.579 121.735C735.044 121.231 734.202 121.256 733.698 121.791C733.194 122.326 733.219 123.169 733.754 123.673L735.579 121.735ZM739.956 128.948C740.539 129.395 741.374 129.285 741.822 128.702C742.269 128.119 742.159 127.284 741.576 126.836L739.956 128.948ZM748.062 131.323C747.438 130.935 746.617 131.126 746.229 131.75C745.841 132.375 746.032 133.195 746.657 133.583L748.062 131.323ZM753.774 137.551C754.433 137.878 755.231 137.609 755.559 136.951C755.886 136.293 755.617 135.494 754.959 135.167L753.774 137.551ZM762.166 138.347C761.481 138.081 760.71 138.42 760.444 139.106C760.178 139.791 760.517 140.562 761.203 140.828L762.166 138.347ZM768.891 143.436C769.597 143.642 770.336 143.237 770.542 142.531C770.748 141.826 770.343 141.087 769.638 140.881L768.891 143.436ZM777.305 142.782C776.585 142.634 775.881 143.098 775.733 143.818C775.585 144.538 776.049 145.241 776.769 145.389L777.305 142.782ZM784.791 146.721C785.52 146.815 786.187 146.299 786.28 145.57C786.374 144.841 785.858 144.175 785.129 144.081L784.791 146.721ZM792.904 144.792C792.17 144.752 791.542 145.314 791.502 146.048C791.461 146.782 792.023 147.41 792.757 147.45L792.904 144.792ZM800.758 147.602C801.493 147.59 802.079 146.985 802.067 146.25C802.055 145.515 801.449 144.929 800.714 144.941L800.758 147.602ZM808.529 144.539C807.797 144.602 807.254 145.247 807.317 145.979C807.38 146.711 808.024 147.254 808.757 147.191L808.529 144.539ZM816.703 146.246C817.43 146.136 817.929 145.458 817.819 144.731C817.709 144.004 817.031 143.504 816.304 143.615L816.703 146.246ZM824.01 142.209C823.291 142.362 822.832 143.069 822.985 143.788C823.138 144.507 823.845 144.966 824.564 144.813L824.01 142.209ZM832.324 142.943C833.034 142.752 833.454 142.022 833.264 141.312C833.073 140.602 832.343 140.181 831.633 140.372L832.324 142.943ZM839.167 138.154C838.467 138.377 838.081 139.126 838.304 139.826C838.528 140.527 839.277 140.913 839.977 140.689L839.167 138.154ZM847.524 138.107C848.215 137.855 848.571 137.092 848.319 136.401C848.068 135.71 847.304 135.354 846.613 135.606L847.524 138.107ZM853.975 132.777C853.294 133.052 852.964 133.828 853.239 134.509C853.514 135.191 854.289 135.521 854.971 135.246L853.975 132.777ZM862.29 132.169C862.964 131.875 863.272 131.091 862.978 130.417C862.684 129.744 861.899 129.436 861.226 129.73L862.29 132.169ZM868.409 126.493C867.742 126.802 867.452 127.594 867.762 128.26C868.071 128.927 868.862 129.217 869.529 128.908L868.409 126.493ZM876.703 125.497C877.364 125.176 877.639 124.379 877.318 123.718C876.997 123.057 876.2 122.782 875.539 123.103L876.703 125.497ZM882.631 119.593C881.974 119.923 881.71 120.723 882.04 121.38C882.37 122.037 883.17 122.301 883.827 121.971L882.631 119.593ZM890.895 118.371C891.549 118.034 891.806 117.232 891.469 116.578C891.133 115.925 890.33 115.668 889.677 116.004L890.895 118.371ZM896.686 112.366C896.034 112.707 895.782 113.511 896.122 114.162C896.463 114.814 897.267 115.066 897.918 114.726L896.686 112.366ZM904.935 111.047C905.586 110.705 905.836 109.9 905.494 109.25C905.152 108.599 904.347 108.349 903.697 108.691L904.935 111.047ZM910.722 105C910.071 105.341 909.82 106.146 910.162 106.797C910.503 107.448 911.308 107.698 911.959 107.357L910.722 105ZM918.964 103.696C919.616 103.357 919.869 102.553 919.53 101.901C919.191 101.249 918.387 100.995 917.735 101.334L918.964 103.696ZM924.771 97.7006C924.117 98.0358 923.858 98.8378 924.193 99.492C924.528 100.146 925.33 100.405 925.985 100.07L924.771 97.7006ZM933.046 96.4891C933.703 96.1596 933.968 95.3599 933.639 94.7028C933.309 94.0458 932.51 93.7802 931.853 94.1097L933.046 96.4891ZM938.966 90.5899C938.305 90.9122 938.031 91.7089 938.353 92.3695C938.675 93.0302 939.472 93.3045 940.133 92.9822L938.966 90.5899ZM947.244 89.5693C947.909 89.2557 948.193 88.4626 947.88 87.7979C947.566 87.1331 946.773 86.8484 946.108 87.162L947.244 89.5693ZM953.32 83.825C952.65 84.1285 952.354 84.9173 952.657 85.5867C952.961 86.2561 953.749 86.5527 954.419 86.2492L953.32 83.825ZM961.643 83.0456C962.317 82.7534 962.627 81.9698 962.335 81.2953C962.043 80.6209 961.259 80.311 960.585 80.6032L961.643 83.0456ZM967.887 77.5185C967.207 77.7981 966.883 78.5758 967.163 79.2556C967.442 79.9354 968.22 80.2597 968.9 79.9801L967.887 77.5185ZM976.237 77.047C976.922 76.7812 977.262 76.0101 976.996 75.3249C976.73 74.6396 975.959 74.2996 975.274 74.5655L976.237 77.047ZM982.713 71.7702C982.023 72.0212 981.666 72.7848 981.917 73.4756C982.168 74.1664 982.932 74.523 983.622 74.2719L982.713 71.7702ZM991.053 71.6664C991.75 71.4312 992.124 70.676 991.888 69.9796C991.653 69.2832 990.898 68.9094 990.202 69.1446L991.053 71.6664ZM997.784 66.6837C997.082 66.9022 996.69 67.6482 996.909 68.35C997.127 69.0518 997.873 69.4437 998.575 69.2253L997.784 66.6837ZM1006.11 66.9808C1006.82 66.7799 1007.23 66.0438 1007.03 65.3368C1006.83 64.6298 1006.09 64.2195 1005.39 64.4204L1006.11 66.9808ZM1013.06 62.3453C1012.35 62.528 1011.92 63.2532 1012.1 63.9652C1012.29 64.6772 1013.01 65.1063 1013.72 64.9236L1013.06 62.3453ZM1021.4 63.0612C1022.12 62.8975 1022.57 62.1838 1022.4 61.4673C1022.24 60.7507 1021.53 60.3026 1020.81 60.4663L1021.4 63.0612ZM1028.56 58.8044C1027.84 58.9489 1027.37 59.6502 1027.51 60.3709C1027.66 61.0916 1028.36 61.5588 1029.08 61.4143L1028.56 58.8044ZM1036.86 59.9655C1037.58 59.8409 1038.07 59.1526 1037.95 58.4282C1037.82 57.7038 1037.13 57.2177 1036.41 57.3423L1036.86 59.9655ZM1044.23 56.1055C1043.51 56.2103 1043 56.885 1043.11 57.6125C1043.21 58.34 1043.89 58.8449 1044.61 58.7401L1044.23 56.1055ZM1052.44 57.7234C1053.17 57.6387 1053.69 56.9782 1053.61 56.2481C1053.52 55.5179 1052.86 54.9947 1052.13 55.0793L1052.44 57.7234ZM1060.04 54.2725C1059.31 54.337 1058.77 54.9829 1058.83 55.7151C1058.9 56.4473 1059.54 56.9885 1060.28 56.924L1060.04 54.2725ZM1068.12 56.3406C1068.86 56.2961 1069.42 55.6653 1069.37 54.9316C1069.33 54.1979 1068.7 53.6392 1067.96 53.6837L1068.12 56.3406ZM1075.93 53.3093C1075.2 53.3339 1074.62 53.9493 1074.64 54.6839C1074.67 55.4185 1075.28 55.9941 1076.02 55.9696L1075.93 53.3093ZM1083.87 55.8118C1084.6 55.8068 1085.2 55.2069 1085.19 54.4719C1085.19 53.7369 1084.59 53.1451 1083.85 53.1501L1083.87 55.8118ZM1091.84 53.2011C1091.11 53.1867 1090.5 53.7709 1090.48 54.5057C1090.47 55.2406 1091.05 55.848 1091.79 55.8623L1091.84 53.2011ZM1099.62 56.1157C1100.36 56.1488 1100.98 55.5803 1101.01 54.8461C1101.05 54.1118 1100.48 53.4897 1099.74 53.4566L1099.62 56.1157ZM1107.73 53.9177C1106.99 53.8661 1106.36 54.4187 1106.3 55.1519C1106.25 55.8851 1106.81 56.5213 1107.54 56.5729L1107.73 53.9177ZM1115.35 57.2185C1116.08 57.2879 1116.73 56.7509 1116.8 56.0192C1116.87 55.2874 1116.33 54.638 1115.6 54.5686L1115.35 57.2185ZM1123.54 55.4179C1122.81 55.3311 1122.15 55.8524 1122.06 56.5823C1121.98 57.3121 1122.5 57.9742 1123.23 58.0611L1123.54 55.4179ZM1131.01 59.0784C1131.74 59.182 1132.41 58.676 1132.52 57.9483C1132.62 57.2206 1132.12 56.5468 1131.39 56.4432L1131.01 59.0784ZM1139.26 57.6537C1138.53 57.5339 1137.85 58.0246 1137.73 58.7498C1137.61 59.475 1138.1 60.16 1138.82 60.2798L1139.26 57.6537ZM3.02821 315.577C3.86354 314.56 4.69476 313.543 5.52198 312.524L3.45546 310.846C2.63154 311.861 1.80369 312.874 0.971787 313.887L3.02821 315.577ZM10.438 306.396C12.0701 304.338 13.6869 302.276 15.2892 300.211L13.1861 298.579C11.5894 300.637 9.97849 302.692 8.35251 304.742L10.438 306.396ZM20.0692 293.985C21.659 291.893 23.235 289.799 24.798 287.703L22.6642 286.112C21.1058 288.201 19.5347 290.289 17.95 292.374L20.0692 293.985ZM29.4588 281.397C31.0125 279.276 32.5538 277.155 34.0838 275.034L31.9249 273.477C30.3986 275.593 28.8612 277.709 27.3118 279.823L29.4588 281.397ZM38.6473 268.661C40.1704 266.519 41.6828 264.378 43.1854 262.239L41.0073 260.709C39.5073 262.844 37.9979 264.981 36.4781 267.118L38.6473 268.661ZM47.6766 255.81C49.1749 253.655 50.6643 251.502 52.1457 249.352L49.954 247.841C48.4743 249.989 46.987 252.139 45.4909 254.291L47.6766 255.81ZM56.5877 242.884C58.0688 240.721 59.5428 238.562 61.0107 236.408L58.8112 234.909C57.3441 237.061 55.8712 239.219 54.3914 241.38L56.5877 242.884ZM65.4288 229.918C66.8996 227.755 68.3688 225.593 69.8302 223.444L67.6291 221.947C66.165 224.1 64.7007 226.255 63.2278 228.421L65.4288 229.918ZM74.2517 216.948C75.7264 214.785 77.1979 212.63 78.6673 210.484L76.4712 208.98C75.0004 211.128 73.5278 213.285 72.0523 215.449L74.2517 216.948ZM83.1118 204.016C84.6004 201.859 86.088 199.711 87.5756 197.576L85.3915 196.055C83.9013 198.194 82.4114 200.344 80.9208 202.505L83.1118 204.016ZM92.0686 191.166C93.5818 189.021 95.0962 186.889 96.6131 184.772L94.4492 183.222C92.9283 185.345 91.4102 187.482 89.8936 189.631L92.0686 191.166ZM101.191 178.438C102.738 176.317 104.289 174.212 105.845 172.124L103.711 170.534C102.149 172.629 100.593 174.742 99.0404 176.869L101.191 178.438ZM110.557 165.877C112.145 163.797 113.739 161.736 115.342 159.694L113.248 158.051C111.638 160.102 110.036 162.173 108.441 164.262L110.557 165.877ZM120.224 153.567C121.868 151.536 123.522 149.526 125.186 147.539L123.146 145.83C121.471 147.829 119.808 149.85 118.155 151.893L120.224 153.567ZM130.266 141.587C131.983 139.612 133.712 137.663 135.456 135.74L133.484 133.953C131.728 135.889 129.986 137.852 128.257 139.84L130.266 141.587ZM140.757 130.023C142.558 128.124 144.375 126.253 146.21 124.412L144.324 122.533C142.474 124.39 140.641 126.277 138.825 128.191L140.757 130.023ZM151.791 118.957C153.679 117.161 155.587 115.396 157.515 113.664L155.736 111.684C153.789 113.433 151.862 115.215 149.956 117.029L151.791 118.957ZM163.403 108.536C165.393 106.857 167.405 105.213 169.441 103.606L167.792 101.516C165.732 103.142 163.698 104.804 161.686 106.501L163.403 108.536ZM175.641 98.8824C177.736 97.344 179.856 95.8439 182.004 94.3835L180.507 92.1823C178.332 93.6613 176.185 95.18 174.066 96.7372L175.641 98.8824ZM188.527 90.1262C190.726 88.7502 192.954 87.4151 195.212 86.1223L193.89 83.8122C191.6 85.1226 189.343 86.4756 187.115 87.8698L188.527 90.1262ZM202.039 82.3942C204.335 81.2001 206.662 80.0487 209.022 78.9414L207.892 76.5316C205.498 77.6545 203.138 78.8221 200.811 80.0328L202.039 82.3942ZM216.14 75.7802C218.515 74.7839 220.923 73.8309 223.366 72.9228L222.439 70.4278C219.961 71.3488 217.519 72.3152 215.111 73.3257L216.14 75.7802ZM230.739 70.3542C233.182 69.5589 235.66 68.8071 238.173 68.1L237.452 65.5377C234.904 66.2545 232.392 67.0167 229.915 67.8231L230.739 70.3542ZM245.704 66.1418C248.215 65.5415 250.762 64.9845 253.344 64.4719L252.826 61.8611C250.21 62.3804 247.63 62.9447 245.085 63.553L245.704 66.1418ZM260.971 63.1051C263.523 62.6961 266.11 62.3292 268.732 62.0053L268.406 59.3636C265.752 59.6914 263.134 60.0628 260.55 60.4769L260.971 63.1051ZM276.439 61.1875C279.005 60.959 281.604 60.7705 284.238 60.6228L284.089 57.9653C281.426 58.1145 278.798 58.3051 276.203 58.5362L276.439 61.1875ZM292.014 60.3088C294.583 60.2446 297.185 60.2181 299.819 60.23L299.832 57.5683C297.171 57.5562 294.544 57.583 291.947 57.6479L292.014 60.3088ZM307.62 60.3753C308.936 60.418 310.259 60.47 311.591 60.5314L311.714 57.8725C310.37 57.8105 309.034 57.758 307.706 57.7149L307.62 60.3753ZM311.591 60.5314C312.937 60.5935 314.276 60.6692 315.609 60.7584L315.786 58.1025C314.435 58.0121 313.078 57.9354 311.714 57.8725L311.591 60.5314ZM323.527 61.4529C326.171 61.7403 328.789 62.0809 331.382 62.473L331.78 59.8412C329.15 59.4435 326.495 59.0981 323.815 58.8067L323.527 61.4529ZM339.22 63.8278C341.825 64.3349 344.405 64.8943 346.962 65.5039L347.579 62.9148C344.987 62.2966 342.37 61.7294 339.728 61.2151L339.22 63.8278ZM354.657 67.5097C357.208 68.2315 359.736 69.0035 362.24 69.8236L363.069 67.294C360.53 66.4628 357.968 65.6803 355.382 64.9485L354.657 67.5097ZM369.745 72.4482C372.228 73.3723 374.689 74.3436 377.129 75.3599L378.153 72.9028C375.682 71.8736 373.189 70.8898 370.673 69.9536L369.745 72.4482ZM384.41 78.5531C386.816 79.6613 389.201 80.813 391.567 82.006L392.765 79.6293C390.372 78.4225 387.958 77.2572 385.524 76.1355L384.41 78.5531ZM398.606 85.7058C400.93 86.9767 403.235 88.2868 405.523 89.6342L406.874 87.3405C404.562 85.9793 402.232 84.6553 399.884 83.3706L398.606 85.7058ZM412.318 93.7736C414.559 95.1847 416.785 96.6306 418.996 98.1094L420.476 95.8969C418.245 94.405 415.999 92.9457 413.736 91.521L412.318 93.7736ZM425.554 102.621C427.718 104.151 429.869 105.711 432.006 107.299L433.594 105.163C431.44 103.562 429.273 101.99 427.091 100.448L425.554 102.621ZM438.346 112.121C440.44 113.749 442.522 115.403 444.593 117.081L446.268 115.013C444.184 113.324 442.088 111.659 439.98 110.02L438.346 112.121ZM450.738 122.155C452.769 123.863 454.791 125.594 456.805 127.344L458.551 125.335C456.527 123.576 454.494 121.836 452.451 120.118L450.738 122.155ZM462.782 132.619C464.761 134.392 466.733 136.183 468.698 137.989L470.5 136.03C468.527 134.216 466.546 132.417 464.558 130.636L462.782 132.619ZM474.537 143.422C476.474 145.245 478.406 147.081 480.332 148.931L482.175 147.01C480.243 145.156 478.305 143.313 476.361 141.483L474.537 143.422ZM486.064 154.481C487.968 156.341 489.869 158.212 491.767 160.091L493.64 158.199C491.738 156.316 489.833 154.442 487.923 152.577L486.064 154.481ZM497.423 165.725C499.305 167.61 501.185 169.503 503.063 171.4L504.955 169.527C503.074 167.628 501.192 165.733 499.306 163.844L497.423 165.725ZM508.675 177.086C510.545 178.986 512.413 180.889 514.282 182.793L516.182 180.929C514.313 179.024 512.443 177.12 510.572 175.219L508.675 177.086ZM519.882 188.503C521.749 190.407 523.617 192.311 525.486 194.213L527.384 192.347C525.516 190.446 523.649 188.543 521.782 186.64L519.882 188.503ZM531.103 199.916C532.978 201.814 534.855 203.709 536.736 205.599L538.623 203.722C536.745 201.834 534.87 199.942 532.997 198.045L531.103 199.916ZM542.399 211.263C544.293 213.146 546.19 215.023 548.093 216.891L549.958 214.991C548.06 213.128 546.166 211.255 544.277 209.376L542.399 211.263ZM553.831 222.482C555.753 224.34 557.681 226.188 559.616 228.023L561.448 226.092C559.519 224.263 557.597 222.421 555.681 220.569L553.831 222.482ZM565.458 233.508C567.419 235.329 569.388 237.136 571.365 238.928L573.153 236.955C571.184 235.171 569.223 233.372 567.269 231.558L565.458 233.508ZM577.341 244.268C579.351 246.039 581.371 247.793 583.401 249.527L585.13 247.503C583.111 245.778 581.101 244.034 579.101 242.271L577.341 244.268ZM589.54 254.681C591.608 256.388 593.688 258.073 595.78 259.734L597.435 257.65C595.357 255.999 593.29 254.325 591.234 252.628L589.54 254.681ZM602.109 264.657C604.244 266.282 606.392 267.882 608.556 269.454L610.12 267.3C607.974 265.74 605.841 264.153 603.721 262.539L602.109 264.657ZM615.1 274.092C617.308 275.618 619.532 277.113 621.773 278.576L623.228 276.348C621.007 274.897 618.803 273.415 616.613 271.902L615.1 274.092ZM628.552 282.874C630.838 284.279 633.142 285.649 635.465 286.984L636.791 284.676C634.491 283.355 632.21 281.998 629.946 280.606L628.552 282.874ZM642.492 290.879C644.857 292.141 647.241 293.365 649.647 294.55L650.822 292.162C648.444 290.991 646.085 289.78 643.745 288.53L642.492 290.879ZM656.922 297.978C659.363 299.077 661.826 300.134 664.311 301.147L665.316 298.682C662.861 297.681 660.428 296.637 658.015 295.551L656.922 297.978ZM671.824 304.048C674.333 304.963 676.865 305.833 679.421 306.657L680.237 304.123C677.714 303.31 675.214 302.451 672.736 301.547L671.824 304.048ZM687.147 308.979C689.711 309.695 692.3 310.364 694.914 310.984L695.528 308.394C692.949 307.783 690.394 307.122 687.863 306.416L687.147 308.979ZM702.818 312.691C705.421 313.198 708.048 313.657 710.701 314.065L711.106 311.434C708.488 311.031 705.896 310.579 703.327 310.078L702.818 312.691ZM718.736 315.136C721.36 315.432 724.009 315.679 726.683 315.876L726.878 313.221C724.239 313.027 721.624 312.783 719.035 312.491L718.736 315.136ZM734.769 316.312C737.408 316.403 740.071 316.445 742.76 316.436L742.752 313.774C740.096 313.783 737.466 313.741 734.86 313.652L734.769 316.312ZM750.826 316.261C752.182 316.207 753.545 316.14 754.915 316.06L754.76 313.403C753.406 313.482 752.06 313.548 750.719 313.602L750.826 316.261ZM754.915 316.06C756.257 315.982 757.598 315.89 758.937 315.785L758.728 313.131C757.407 313.235 756.084 313.326 754.76 313.403L754.915 316.06ZM766.957 314.986C769.628 314.664 772.289 314.287 774.937 313.854L774.507 311.227C771.896 311.654 769.272 312.026 766.638 312.343L766.957 314.986ZM782.863 312.383C785.498 311.836 788.117 311.231 790.718 310.571L790.063 307.991C787.5 308.642 784.918 309.237 782.321 309.777L782.863 312.383ZM798.487 308.411C801.064 307.631 803.62 306.795 806.151 305.9L805.264 303.39C802.772 304.271 800.255 305.095 797.717 305.863L798.487 308.411ZM813.691 303.034C816.185 302.018 818.651 300.943 821.088 299.809L819.965 297.396C817.568 298.511 815.141 299.569 812.687 300.569L813.691 303.034ZM828.318 296.224C830.699 294.969 833.047 293.654 835.36 292.279L834 289.991C831.727 291.342 829.418 292.635 827.077 293.87L828.318 296.224ZM842.19 287.975C844.427 286.481 846.626 284.928 848.783 283.314L847.189 281.183C845.07 282.767 842.91 284.293 840.712 285.761L842.19 287.975ZM855.117 278.305C857.178 276.581 859.195 274.797 861.166 272.954L859.348 271.01C857.413 272.819 855.433 274.57 853.409 276.263L855.117 278.305ZM866.91 267.275C868.764 265.336 870.57 263.338 872.325 261.281L870.301 259.553C868.578 261.571 866.805 263.532 864.986 265.435L866.91 267.275ZM877.395 254.992C879.016 252.86 880.586 250.672 882.102 248.427L879.896 246.937C878.408 249.141 876.867 251.289 875.276 253.381L877.395 254.992ZM886.433 241.609C887.803 239.315 889.12 236.966 890.381 234.564L888.024 233.327C886.785 235.686 885.493 237.992 884.148 240.245L886.433 241.609ZM893.939 227.316C895.049 224.892 896.106 222.418 897.106 219.892L894.632 218.912C893.648 221.394 892.61 223.826 891.519 226.208L893.939 227.316ZM899.885 212.318C900.739 209.798 901.538 207.231 902.282 204.617L899.722 203.888C898.99 206.46 898.203 208.986 897.364 211.464L899.885 212.318ZM904.306 196.811C904.912 194.225 905.466 191.595 905.967 188.922L903.35 188.432C902.857 191.066 902.311 193.657 901.714 196.204L904.306 196.811ZM907.277 180.966C907.653 178.336 907.978 175.666 908.252 172.957L905.604 172.69C905.334 175.363 905.013 177.996 904.642 180.59L907.277 180.966ZM908.904 164.908C909.066 162.268 909.181 159.594 909.247 156.884L906.586 156.819C906.521 159.497 906.407 162.138 906.247 164.744L908.904 164.908ZM909.299 148.848C909.284 147.502 909.258 146.148 909.219 144.785L906.559 144.86C906.596 146.207 906.623 147.547 906.637 148.878L909.299 148.848ZM909.219 144.785C909.181 143.419 909.13 142.062 909.067 140.713L906.408 140.838C906.47 142.17 906.521 143.51 906.559 144.86L909.219 144.785ZM908.536 132.675C908.305 129.968 908.023 127.299 907.692 124.669L905.051 125.001C905.378 127.596 905.656 130.229 905.884 132.902L908.536 132.675ZM906.513 116.659C906.059 113.968 905.551 111.32 904.993 108.716L902.391 109.274C902.941 111.839 903.441 114.449 903.889 117.103L906.513 116.659ZM903.12 100.853C902.427 98.2151 901.68 95.6263 900.882 93.0866L898.342 93.8848C899.128 96.3838 899.863 98.932 900.545 101.529L903.12 100.853ZM898.269 85.4376C897.323 82.8797 896.324 80.3764 895.272 77.9281L892.826 78.9782C893.86 81.3843 894.842 83.8452 895.772 86.3605L898.269 85.4376ZM891.885 70.5831C890.677 68.1377 889.415 65.7531 888.103 63.4298L885.785 64.739C887.073 67.0193 888.312 69.3605 889.499 71.7622L891.885 70.5831ZM883.922 56.4975C882.447 54.2029 880.921 51.9758 879.346 49.8168L877.195 51.3856C878.739 53.5021 880.237 55.686 881.683 57.9368L883.922 56.4975ZM874.376 43.4198C872.638 41.3183 870.852 39.2912 869.021 37.3393L867.079 39.1603C868.872 41.0717 870.622 43.0571 872.325 45.1162L874.376 43.4198ZM863.291 31.6086C861.302 29.7444 859.271 27.9617 857.2 26.2613L855.511 28.3184C857.536 29.9817 859.524 31.7259 861.47 33.5503L863.291 31.6086ZM850.766 21.3307C848.55 19.7484 846.297 18.2546 844.011 16.8501L842.618 19.1179C844.851 20.4902 847.053 21.9501 849.22 23.497L850.766 21.3307ZM836.952 12.848C834.535 11.5892 832.09 10.4261 829.62 9.35954L828.565 11.8032C830.975 12.8441 833.362 13.9795 835.722 15.2087L836.952 12.848ZM822.052 6.41842C819.481 5.52791 816.89 4.73946 814.285 4.05405L813.608 6.62818C816.147 7.2963 818.673 8.06506 821.181 8.93363L822.052 6.41842ZM806.359 2.29402C803.684 1.80876 800.999 1.43144 798.313 1.16306L798.048 3.81164C800.664 4.07293 803.278 4.44036 805.884 4.91307L806.359 2.29402ZM790.198 0.684827C787.483 0.636294 784.773 0.700122 782.071 0.87736L782.246 3.53342C784.872 3.36107 787.509 3.29895 790.15 3.34617L790.198 0.684827ZM773.988 1.75278C771.309 2.15885 768.647 2.67965 766.007 3.31621L766.631 5.90382C769.196 5.28531 771.783 4.77917 774.387 4.38448L773.988 1.75278ZM758.192 5.56364C756.907 5.99447 755.629 6.45405 754.359 6.9425L755.315 9.42685C756.549 8.95234 757.79 8.50587 759.038 8.08732L758.192 5.56364ZM754.359 6.9425C753.065 7.44045 751.799 7.9628 750.562 8.50862L751.636 10.9439C752.833 10.4156 754.06 9.9096 755.315 9.42685L754.359 6.9425ZM743.295 12.1637C740.88 13.5398 738.599 15.0159 736.45 16.5822L738.017 18.7335C740.085 17.2264 742.283 15.804 744.613 14.4761L743.295 12.1637ZM730.133 21.7856C728.105 23.6726 726.232 25.6529 724.51 27.714L726.553 29.4202C728.203 27.4448 730 25.5454 731.946 23.734L730.133 21.7856ZM719.682 34.3152C718.204 36.6377 716.892 39.0342 715.746 41.4902L718.157 42.6165C719.256 40.264 720.512 37.9688 721.928 35.7445L719.682 34.3152ZM712.77 49.1072C711.94 51.7109 711.279 54.3605 710.784 57.0406L713.402 57.524C713.877 54.952 714.511 52.4109 715.306 49.9151L712.77 49.1072ZM709.796 65.1547C709.631 67.8664 709.629 70.5933 709.787 73.3206L712.444 73.167C712.292 70.5432 712.295 67.9213 712.452 65.3157L709.796 65.1547ZM710.727 81.4336C711.192 84.1001 711.809 86.7529 712.577 89.3779L715.131 88.631C714.392 86.1007 713.797 83.5446 713.349 80.9765L710.727 81.4336ZM715.293 97.0717C716.329 99.5658 717.507 102.02 718.825 104.422L721.158 103.142C719.887 100.824 718.751 98.4558 717.75 96.0499L715.293 97.0717ZM723.117 111.349C724.657 113.563 726.325 115.715 728.121 117.793L730.135 116.053C728.4 114.045 726.789 111.967 725.303 109.83L723.117 111.349ZM733.754 123.673C735.707 125.512 737.775 127.274 739.956 128.948L741.576 126.836C739.466 125.217 737.467 123.513 735.579 121.735L733.754 123.673ZM746.657 133.583C748.93 134.997 751.303 136.322 753.774 137.551L754.959 135.167C752.563 133.976 750.263 132.692 748.062 131.323L746.657 133.583ZM761.203 140.828C763.682 141.791 766.245 142.663 768.891 143.436L769.638 140.881C767.064 140.129 764.573 139.282 762.166 138.347L761.203 140.828ZM776.769 145.389C778.092 145.662 779.434 145.911 780.794 146.135L781.228 143.509C779.902 143.29 778.594 143.047 777.305 142.782L776.769 145.389ZM780.794 146.135C782.131 146.356 783.463 146.551 784.791 146.721L785.129 144.081C783.833 143.915 782.533 143.725 781.228 143.509L780.794 146.135ZM792.757 147.45C795.44 147.598 798.106 147.647 800.758 147.602L800.714 144.941C798.124 144.984 795.521 144.936 792.904 144.792L792.757 147.45ZM808.757 147.191C811.416 146.963 814.064 146.646 816.703 146.246L816.304 143.615C813.72 144.006 811.129 144.316 808.529 144.539L808.757 147.191ZM824.564 144.813C827.156 144.262 829.742 143.636 832.324 142.943L831.633 140.372C829.094 141.054 826.554 141.669 824.01 142.209L824.564 144.813ZM839.977 140.689C842.493 139.886 845.008 139.023 847.524 138.107L846.613 135.606C844.128 136.511 841.647 137.362 839.167 138.154L839.977 140.689ZM854.971 135.246C857.407 134.264 859.846 133.236 862.29 132.169L861.226 129.73C858.802 130.788 856.386 131.805 853.975 132.777L854.971 135.246ZM869.529 128.908C871.912 127.802 874.303 126.663 876.703 125.497L875.539 123.103C873.152 124.263 870.776 125.395 868.409 126.493L869.529 128.908ZM883.827 121.971C886.172 120.792 888.527 119.59 890.895 118.371L889.677 116.004C887.315 117.221 884.967 118.418 882.631 119.593L883.827 121.971ZM897.918 114.726C900.243 113.511 902.581 112.284 904.935 111.047L903.697 108.691C901.344 109.927 899.007 111.154 896.686 112.366L897.918 114.726ZM911.959 107.357C914.277 106.141 916.611 104.919 918.964 103.696L917.735 101.334C915.379 102.56 913.042 103.783 910.722 105L911.959 107.357ZM925.985 100.07C928.32 98.8734 930.673 97.6788 933.046 96.4891L931.853 94.1097C929.472 95.3033 927.112 96.5015 924.771 97.7006L925.985 100.07ZM940.133 92.9822C942.483 91.836 944.853 90.6974 947.244 89.5693L946.108 87.162C943.706 88.2953 941.325 89.439 938.966 90.5899L940.133 92.9822ZM954.419 86.2492C956.805 85.1673 959.212 84.0985 961.643 83.0456L960.585 80.6032C958.139 81.6624 955.718 82.7373 953.32 83.825L954.419 86.2492ZM968.9 79.9801C971.322 78.9837 973.767 78.0052 976.237 77.047L975.274 74.5655C972.787 75.5304 970.325 76.5156 967.887 77.5185L968.9 79.9801ZM983.622 74.2719C986.075 73.3808 988.552 72.5115 991.053 71.6664L990.202 69.1446C987.68 69.9963 985.184 70.8724 982.713 71.7702L983.622 74.2719ZM998.575 69.2253C1001.06 68.451 1003.58 67.7021 1006.11 66.9808L1005.39 64.4204C1002.83 65.1479 1000.29 65.9031 997.784 66.6837L998.575 69.2253ZM1013.72 64.9236C1016.26 64.2737 1018.82 63.6521 1021.4 63.0612L1020.81 60.4663C1018.2 61.0626 1015.62 61.6896 1013.06 62.3453L1013.72 64.9236ZM1029.08 61.4143C1031.65 60.8999 1034.24 60.4163 1036.86 59.9655L1036.41 57.3423C1033.76 57.7973 1031.15 58.2853 1028.56 58.8044L1029.08 61.4143ZM1044.61 58.7401C1047.2 58.3683 1049.8 58.0288 1052.44 57.7234L1052.13 55.0793C1049.47 55.3876 1046.84 55.7302 1044.23 56.1055L1044.61 58.7401ZM1060.28 56.924C1062.87 56.6958 1065.48 56.5008 1068.12 56.3406L1067.96 53.6837C1065.3 53.8454 1062.66 54.0422 1060.04 54.2725L1060.28 56.924ZM1076.02 55.9696C1078.61 55.8829 1081.23 55.8299 1083.87 55.8118L1083.85 53.1501C1081.18 53.1683 1078.54 53.2219 1075.93 53.3093L1076.02 55.9696ZM1091.79 55.8623C1094.38 55.9128 1096.99 55.9968 1099.62 56.1157L1099.74 53.4566C1097.08 53.3368 1094.45 53.252 1091.84 53.2011L1091.79 55.8623ZM1107.54 56.5729C1110.12 56.7545 1112.72 56.9693 1115.35 57.2185L1115.6 54.5686C1112.95 54.3174 1110.33 54.1008 1107.73 53.9177L1107.54 56.5729ZM1123.23 58.0611C1125.8 58.3671 1128.39 58.7059 1131.01 59.0784L1131.39 56.4432C1128.75 56.0678 1126.13 55.7264 1123.54 55.4179L1123.23 58.0611ZM1138.82 60.2798C1140.14 60.4968 1141.46 60.7222 1142.78 60.9561L1143.24 58.3349C1141.91 58.0993 1140.58 57.8722 1139.26 57.6537L1138.82 60.2798Z" fill="#D9D9D9"/>
</svg>
