<svg width="218" height="51" viewBox="0 0 218 51" fill="none" xmlns="http://www.w3.org/2000/svg">
<g clip-path="url(#clip0_503_13)">
<path d="M40.25 0H10.72C4.79951 0 0 4.79951 0 10.72V40.25C0 46.1705 4.79951 50.97 10.72 50.97H40.25C46.1705 50.97 50.97 46.1705 50.97 40.25V10.72C50.97 4.79951 46.1705 0 40.25 0Z" fill="#0A182D"/>
<path d="M38.5995 27.1602H12.3695C11.6239 27.1602 11.0195 27.7646 11.0195 28.5102V38.0502C11.0195 38.7957 11.6239 39.4002 12.3695 39.4002H38.5995C39.3451 39.4002 39.9495 38.7957 39.9495 38.0502V28.5102C39.9495 27.7646 39.3451 27.1602 38.5995 27.1602Z" fill="#FFB81D"/>
<path d="M25.7696 28.4902H12.8296C12.5645 28.4902 12.3496 28.7051 12.3496 28.9702V32.9302C12.3496 33.1953 12.5645 33.4102 12.8296 33.4102H25.7696C26.0347 33.4102 26.2496 33.1953 26.2496 32.9302V28.9702C26.2496 28.7051 26.0347 28.4902 25.7696 28.4902Z" fill="#0A182D"/>
<path d="M24.5396 36.9805H12.6896C12.5018 36.9805 12.3496 37.1327 12.3496 37.3205V37.7805C12.3496 37.9682 12.5018 38.1205 12.6896 38.1205H24.5396C24.7274 38.1205 24.8796 37.9682 24.8796 37.7805V37.3205C24.8796 37.1327 24.7274 36.9805 24.5396 36.9805Z" fill="#FFB81D"/>
<path d="M38.0103 36.9805H26.1603C25.9725 36.9805 25.8203 37.1327 25.8203 37.3205V37.7805C25.8203 37.9682 25.9725 38.1205 26.1603 38.1205H38.0103C38.1981 38.1205 38.3503 37.9682 38.3503 37.7805V37.3205C38.3503 37.1327 38.1981 36.9805 38.0103 36.9805Z" fill="#FFB81D"/>
<path d="M13.4802 35.7402H13.4402C13.0094 35.7402 12.6602 36.0895 12.6602 36.5202C12.6602 36.951 13.0094 37.3002 13.4402 37.3002H13.4802C13.9109 37.3002 14.2602 36.951 14.2602 36.5202C14.2602 36.0895 13.9109 35.7402 13.4802 35.7402Z" fill="#FFB81D"/>
<path d="M17.3005 35.7402H17.2605C16.8297 35.7402 16.4805 36.0895 16.4805 36.5202C16.4805 36.951 16.8297 37.3002 17.2605 37.3002H17.3005C17.7313 37.3002 18.0805 36.951 18.0805 36.5202C18.0805 36.0895 17.7313 35.7402 17.3005 35.7402Z" fill="#FFB81D"/>
<path d="M21.1198 35.7402H21.0798C20.649 35.7402 20.2998 36.0895 20.2998 36.5202C20.2998 36.951 20.649 37.3002 21.0798 37.3002H21.1198C21.5506 37.3002 21.8998 36.951 21.8998 36.5202C21.8998 36.0895 21.5506 35.7402 21.1198 35.7402Z" fill="#FFB81D"/>
<path d="M24.9499 35.7402H24.9099C24.4791 35.7402 24.1299 36.0895 24.1299 36.5202C24.1299 36.951 24.4791 37.3002 24.9099 37.3002H24.9499C25.3807 37.3002 25.7299 36.951 25.7299 36.5202C25.7299 36.0895 25.3807 35.7402 24.9499 35.7402Z" fill="#FFB81D"/>
<path d="M25.4805 7.87999C23.437 7.87223 21.4123 8.27044 19.524 9.05151C17.6357 9.83259 15.9214 10.981 14.4805 12.43L16.3105 14.26C18.7466 11.8357 22.0436 10.4747 25.4805 10.4747C28.9173 10.4747 32.2143 11.8357 34.6505 14.26L36.4505 12.47C35.0171 11.0164 33.3092 9.86217 31.4261 9.07421C29.5429 8.28626 27.5219 7.88033 25.4805 7.87999Z" fill="#FFB81D"/>
<path d="M22 20L23.83 21.84L23.89 21.78C24.3259 21.3507 24.9132 21.11 25.525 21.11C26.1368 21.11 26.7241 21.3507 27.16 21.78L29 20C28.5438 19.5344 27.9992 19.1645 27.3982 18.9119C26.7972 18.6594 26.1519 18.5293 25.5 18.5293C24.8481 18.5293 24.2028 18.6594 23.6018 18.9119C23.0008 19.1645 22.4562 19.5344 22 20Z" fill="#FFB81D"/>
<path d="M18.1797 16.0997L19.9997 17.9997C20.7207 17.2753 21.5778 16.7004 22.5217 16.3082C23.4655 15.9159 24.4776 15.714 25.4997 15.714C26.5218 15.714 27.5339 15.9159 28.4777 16.3082C29.4216 16.7004 30.2786 17.2753 30.9997 17.9997L32.8197 16.1897C31.8651 15.2211 30.7289 14.4503 29.476 13.9214C28.2232 13.3925 26.8783 13.116 25.5184 13.1076C24.1585 13.0993 22.8103 13.3592 21.551 13.8727C20.2917 14.3861 19.1461 15.1429 18.1797 16.0997Z" fill="#FFB81D"/>
<path d="M81.0001 17.8398H74.7001V36.3998H70.1101V17.8398H63.3701V13.5898H78.0001C78.2158 13.5898 78.4274 13.6485 78.6124 13.7594C78.7973 13.8704 78.9486 14.0295 79.0501 14.2198L81.0001 17.8398Z" fill="#FFB81D"/>
<path d="M90.8796 36.3996C90.6537 35.9326 90.5019 35.4333 90.4296 34.9196C89.9067 35.5061 89.2612 35.9705 88.5388 36.2798C87.8165 36.5891 87.035 36.7359 86.2496 36.7096C84.7873 36.7536 83.3611 36.2508 82.2496 35.2996C81.7352 34.8645 81.3246 34.3199 81.0477 33.7057C80.7709 33.0915 80.6349 32.4232 80.6496 31.7496C80.6171 30.9734 80.7783 30.2013 81.1188 29.503C81.4592 28.8047 81.9681 28.2021 82.5996 27.7496C84.2867 26.7016 86.257 26.202 88.2396 26.3196H90.2396V25.3196C90.2704 24.6583 90.0609 24.0083 89.6496 23.4896C89.4103 23.2436 89.1192 23.0541 88.7974 22.9347C88.4757 22.8154 88.1314 22.7692 87.7896 22.7996C87.1603 22.7632 86.539 22.9549 86.0396 23.3396C84.5296 24.4496 85.3896 25.4396 84.1796 23.4596L82.7196 20.9996C82.7196 20.9996 83.3096 20.7196 84.3896 20.2596C85.5428 19.7814 86.7813 19.5433 88.0296 19.5596C89.7825 19.4685 91.509 20.0156 92.8896 21.0996C93.4964 21.6391 93.9735 22.3088 94.2852 23.0586C94.5968 23.8084 94.7351 24.6189 94.6896 25.4296V32.5996C94.6284 33.8248 94.8544 35.0473 95.3496 36.1696V36.4296L90.8796 36.3996ZM87.2196 33.3196C87.8459 33.3268 88.4642 33.1791 89.0196 32.8896C89.5306 32.6347 89.955 32.2347 90.2396 31.7396V28.9996C90.2396 28.9757 90.2301 28.9528 90.2132 28.9359C90.1964 28.9191 90.1735 28.9096 90.1496 28.9096H88.5996C86.3796 28.9096 85.1996 29.6796 85.0596 31.2096V31.4696C85.0519 31.7248 85.0997 31.9786 85.1999 32.2134C85.3 32.4483 85.4501 32.6585 85.6396 32.8296C86.084 33.1894 86.6496 33.3649 87.2196 33.3196Z" fill="#FFB81D"/>
<path d="M105 33.1397C105.727 33.1763 106.441 32.937 107 32.4697C107.253 32.2457 107.456 31.97 107.594 31.6613C107.732 31.3525 107.802 31.0178 107.8 30.6797H111.95C111.947 31.7736 111.627 32.8432 111.03 33.7597C110.422 34.6968 109.567 35.4478 108.56 35.9297C107.48 36.4572 106.292 36.7244 105.09 36.7097C104.048 36.7609 103.008 36.5854 102.041 36.1951C101.075 35.8049 100.204 35.2094 99.4899 34.4497C98.0566 32.6982 97.3417 30.4679 97.4899 28.2097V27.9197C97.371 25.7048 98.0843 23.5255 99.4899 21.8097C100.188 21.0533 101.043 20.4578 101.994 20.0641C102.946 19.6704 103.971 19.4881 105 19.5297C106.834 19.4409 108.63 20.0766 110 21.2997C110.628 21.9068 111.123 22.6385 111.451 23.4479C111.78 24.2572 111.937 25.1264 111.91 25.9997H107.76C107.775 25.2225 107.489 24.4696 106.96 23.8997C106.662 23.6173 106.308 23.4002 105.922 23.2622C105.535 23.1243 105.124 23.0687 104.714 23.0988C104.305 23.1289 103.906 23.2442 103.544 23.4372C103.181 23.6302 102.863 23.8967 102.61 24.2197C101.994 25.3324 101.719 26.6018 101.82 27.8697V28.3297C101.719 29.6027 101.99 30.8776 102.6 31.9997C102.867 32.3812 103.229 32.6868 103.649 32.8867C104.07 33.0865 104.535 33.1737 105 33.1397Z" fill="#FFB81D"/>
<path d="M118.75 21.6496C119.274 20.9797 119.945 20.4398 120.712 20.0721C121.479 19.7043 122.32 19.5187 123.17 19.5296C126.76 19.5296 128.59 21.6196 128.64 25.7896V36.3997H124.21V25.9196C124.272 25.1653 124.055 24.4145 123.6 23.8096C123.332 23.5647 123.015 23.3779 122.671 23.2609C122.327 23.1439 121.963 23.0992 121.6 23.1296C121.037 23.0887 120.473 23.2078 119.974 23.4731C119.475 23.7385 119.061 24.1394 118.78 24.6296V36.3997H114.36V12.8896L118.65 13.9996L118.75 21.6496Z" fill="#FFB81D"/>
<path d="M131.28 28.0004C131.254 26.4802 131.579 24.9744 132.23 23.6004C132.826 22.3515 133.78 21.3075 134.97 20.6004C136.228 19.8782 137.659 19.5118 139.11 19.5404C140.113 19.503 141.113 19.6659 142.052 20.0196C142.991 20.3733 143.851 20.9107 144.58 21.6004C146.047 23.0884 146.892 25.0808 146.94 27.1704V28.3004C147.047 30.5343 146.288 32.7234 144.82 34.4104C143.284 35.8886 141.236 36.7144 139.105 36.7144C136.973 36.7144 134.925 35.8886 133.39 34.4104C131.896 32.6855 131.129 30.4489 131.25 28.1704L131.28 28.0004ZM135.71 28.3104C135.624 29.577 135.935 30.8387 136.6 31.9204C136.898 32.3064 137.28 32.619 137.718 32.834C138.156 33.0491 138.637 33.1609 139.125 33.1609C139.612 33.1609 140.094 33.0491 140.531 32.834C140.969 32.619 141.352 32.3064 141.65 31.9204C142.343 30.7255 142.657 29.3479 142.55 27.9704C142.624 26.7098 142.31 25.4568 141.65 24.3804C141.368 23.9714 140.987 23.6405 140.543 23.4184C140.099 23.1963 139.606 23.0904 139.11 23.1104C138.617 23.0879 138.127 23.193 137.688 23.4155C137.248 23.638 136.873 23.9704 136.6 24.3804C135.918 25.5615 135.608 26.9205 135.71 28.2804V28.3104Z" fill="#FFB81D"/>
<path d="M164.61 28.2697C164.721 30.4489 164.109 32.6037 162.87 34.3997C162.338 35.1398 161.632 35.7375 160.814 36.1404C159.996 36.5432 159.091 36.7387 158.18 36.7097C157.419 36.7434 156.66 36.6075 155.958 36.3118C155.256 36.016 154.628 35.5679 154.12 34.9997V42.8097L149.92 41.8097L149.7 19.8797L153.8 20.5797L153.95 21.4997C154.455 20.8772 155.097 20.3792 155.825 20.0445C156.553 19.7098 157.349 19.5474 158.15 19.5697C159.069 19.5299 159.983 19.716 160.813 20.1118C161.643 20.5075 162.363 21.1009 162.91 21.8397C164.138 23.6806 164.735 25.8705 164.61 28.0797V28.2697ZM160.18 27.9997C160.256 26.7588 159.971 25.5224 159.36 24.4397C159.119 24.0307 158.774 23.6935 158.359 23.4632C157.944 23.2328 157.475 23.1177 157 23.1297C156.419 23.0761 155.835 23.1991 155.325 23.4828C154.814 23.7665 154.401 24.1976 154.14 24.7197V31.4997C154.398 32.0276 154.809 32.466 155.319 32.7583C155.828 33.0507 156.414 33.1835 157 33.1397C159.13 33.1397 160.18 31.4097 160.18 27.9997Z" fill="#FFB81D"/>
<path d="M167.31 15.55C167.302 15.2467 167.358 14.9453 167.474 14.6647C167.589 14.3841 167.761 14.1305 167.98 13.92C168.49 13.5007 169.13 13.2715 169.79 13.2715C170.45 13.2715 171.09 13.5007 171.6 13.92C171.82 14.129 171.994 14.3823 172.109 14.6632C172.225 14.9442 172.28 15.2464 172.27 15.55C172.282 15.8593 172.228 16.1676 172.11 16.454C171.993 16.7404 171.815 16.9982 171.59 17.21C171.083 17.6234 170.449 17.8492 169.795 17.8492C169.141 17.8492 168.507 17.6234 168 17.21C167.773 16.9987 167.594 16.7412 167.475 16.4548C167.356 16.1685 167.3 15.86 167.31 15.55ZM172 36.4H167.61V19.84L172.05 20.54V36.35L172 36.4Z" fill="#FFB81D"/>
<path d="M180.32 36.3997H175.89V12.8896L180.32 13.5896V36.3997Z" fill="#FFB81D"/>
<path d="M183.28 27.9997C183.25 26.479 183.575 24.9722 184.23 23.5997C184.82 22.3495 185.771 21.3046 186.96 20.5997C188.219 19.8775 189.65 19.5111 191.1 19.5397C192.103 19.5012 193.104 19.6636 194.043 20.0173C194.983 20.3711 195.842 20.9091 196.57 21.5997C198.041 23.0868 198.889 25.079 198.94 27.1697V28.2997C199.05 30.5356 198.286 32.7264 196.81 34.4097C195.275 35.8879 193.227 36.7137 191.095 36.7137C188.964 36.7137 186.916 35.8879 185.38 34.4097C183.89 32.6838 183.126 30.447 183.25 28.1697L183.28 27.9997ZM187.7 28.3097C187.62 29.5759 187.93 30.8363 188.59 31.9197C188.889 32.2966 189.269 32.601 189.702 32.8103C190.135 33.0196 190.61 33.1283 191.09 33.1283C191.571 33.1283 192.046 33.0196 192.479 32.8103C192.912 32.601 193.292 32.2966 193.59 31.9197C194.284 30.7249 194.598 29.3472 194.49 27.9697C194.565 26.7092 194.251 25.4561 193.59 24.3797C193.309 23.9701 192.929 23.6386 192.485 23.4164C192.04 23.1943 191.547 23.0887 191.05 23.1097C190.558 23.0892 190.069 23.1951 189.63 23.4174C189.19 23.6398 188.815 23.9711 188.54 24.3797C187.881 25.568 187.589 26.9253 187.7 28.2797V28.3097Z" fill="#FFB81D"/>
<path d="M207 14.1396V19.8396H209.83V23.0796H207V31.3496C206.958 31.8171 207.082 32.2843 207.35 32.6696C207.537 32.8229 207.753 32.9365 207.985 33.0035C208.217 33.0706 208.46 33.0897 208.7 33.0597C209.134 33.0788 209.57 33.0587 210 32.9996V33.2696L207.32 36.7496C204.22 36.7496 202.637 35.183 202.57 32.0496V23.0796H200.16V19.8396H202.57V15.7696L207 14.1396Z" fill="#FFB81D"/>
<path d="M213 13.4404C213.287 13.3853 213.578 13.3585 213.87 13.3604C214.228 13.3309 214.584 13.4341 214.87 13.6504C214.962 13.7357 215.034 13.8397 215.082 13.9552C215.131 14.0707 215.154 14.1952 215.15 14.3204C215.152 14.5242 215.088 14.7232 214.967 14.8873C214.846 15.0515 214.675 15.1719 214.48 15.2304C214.622 15.2944 214.745 15.3946 214.836 15.5209C214.927 15.6473 214.984 15.7954 215 15.9504C215.06 16.2912 215.15 16.626 215.27 16.9504H214.8C214.692 16.6758 214.612 16.391 214.56 16.1004C214.46 15.6104 214.27 15.4304 213.85 15.4104H213.42V16.9504H213V13.4404ZM213.45 15.0504H214C214.49 15.0504 214.8 14.7804 214.8 14.3804C214.8 13.9804 214.47 13.7204 213.99 13.7104C213.838 13.6863 213.682 13.6863 213.53 13.7104L213.45 15.0504Z" fill="#0A182D"/>
<path d="M214 18.4295C213.341 18.4295 212.697 18.2342 212.15 17.8683C211.602 17.5024 211.175 16.9823 210.923 16.3739C210.671 15.7654 210.605 15.0958 210.734 14.4499C210.862 13.8039 211.18 13.2106 211.645 12.7449C212.111 12.2792 212.704 11.962 213.35 11.8335C213.996 11.705 214.666 11.771 215.274 12.023C215.883 12.2751 216.403 12.7019 216.769 13.2495C217.135 13.7971 217.33 14.4409 217.33 15.0995C217.33 15.9827 216.979 16.8297 216.355 17.4542C215.73 18.0787 214.883 18.4295 214 18.4295ZM214 12.1595C213.418 12.1694 212.853 12.351 212.374 12.6815C211.895 13.0121 211.525 13.4768 211.309 14.0172C211.094 14.5576 211.043 15.1496 211.164 15.7188C211.284 16.2879 211.57 16.8089 211.985 17.216C212.401 17.6232 212.927 17.8984 213.499 18.0072C214.07 18.1159 214.661 18.0532 215.197 17.827C215.733 17.6008 216.19 17.2211 216.511 16.7359C216.832 16.2506 217.002 15.6813 217 15.0995C217 14.7083 216.922 14.3211 216.771 13.9604C216.619 13.5997 216.397 13.2729 216.118 12.9991C215.838 12.7253 215.507 12.51 215.143 12.3659C214.78 12.2217 214.391 12.1515 214 12.1595Z" fill="#0A182D"/>
</g>
<defs>
<clipPath id="clip0_503_13">
<rect width="217.34" height="50.97" fill="white"/>
</clipPath>
</defs>
</svg>
