<svg width="119" height="119" viewBox="0 0 119 119" fill="none" xmlns="http://www.w3.org/2000/svg">
<path d="M0 59.0283C0 26.4281 26.4281 0 59.0283 0C61.6714 0.000156674 63.8145 2.14297 63.8145 4.78613C63.8145 7.4293 61.6714 9.57211 59.0283 9.57227C31.7146 9.57227 9.57227 31.7146 9.57227 59.0283C9.57242 86.3419 31.7147 108.483 59.0283 108.483V118.056C26.4282 118.056 0.000156683 91.6284 0 59.0283Z" fill="url(#paint0_linear_575_3349)"/>
<path d="M108.249 63.8813C108.365 62.6845 108.439 61.4743 108.469 60.2524L108.483 59.0259L108.49 58.7798C108.618 56.2512 110.709 54.2399 113.27 54.2397C115.913 54.2397 118.056 56.3827 118.056 59.0259C118.056 60.9754 117.962 62.9045 117.776 64.8081L108.249 63.8813ZM102.656 82.3403C104.173 79.5093 105.42 76.5142 106.367 73.3892L115.528 76.1645C114.396 79.9003 112.905 83.4791 111.094 86.8599L102.656 82.3403ZM90.4014 97.2593C92.9054 95.2019 95.2043 92.903 97.2617 90.3989L104.657 96.4761C102.204 99.4618 99.4633 102.203 96.4775 104.656L90.4014 97.2593ZM73.3916 106.366C76.5165 105.419 79.5109 104.17 82.3418 102.654L86.8613 111.092C83.4808 112.903 79.9024 114.394 76.167 115.526L73.3916 106.366ZM59.0283 118.054C57.0788 118.054 55.1497 117.959 53.2461 117.774L54.1729 108.248C55.7689 108.403 57.3888 108.482 59.0283 108.482L60.2539 108.467C61.4758 108.438 62.6859 108.364 63.8828 108.248L64.8105 117.774C62.9069 117.959 60.9779 118.054 59.0283 118.054ZM31.1943 111.092L35.7139 102.654C38.5449 104.17 41.5399 105.419 44.665 106.366L41.8896 115.526C38.154 114.394 34.575 112.903 31.1943 111.092ZM13.3984 96.4761L20.7949 90.3989C22.8524 92.9031 25.1511 95.2018 27.6553 97.2593L21.5781 104.656C18.5923 102.203 15.8516 99.4619 13.3984 96.4761ZM2.52832 76.1646L11.6885 73.3892C12.6353 76.5143 13.884 79.5093 15.4004 82.3403L6.96191 86.8599C5.15117 83.4792 3.66013 79.9002 2.52832 76.1646ZM0.00585678 58.7798C0.134078 56.251 2.22549 54.2397 4.78613 54.2397C7.4293 54.2397 9.57211 56.3828 9.57226 59.0259C9.57226 60.6654 9.65131 62.2853 9.80664 63.8813L0.280271 64.8081C0.0950208 62.9045 -2.49499e-06 60.9754 -2.58021e-06 59.0259L0.00585678 58.7798Z" fill="url(#paint1_linear_575_3349)"/>
<path d="M56.6992 57.7935V22.0435C56.6992 19.4002 58.8421 17.2573 61.4854 17.2573C64.1286 17.2573 66.2715 19.4002 66.2715 22.0435V57.7935C66.2715 60.4367 64.1286 62.5796 61.4854 62.5796C58.8421 62.5796 56.6992 60.4367 56.6992 57.7935Z" fill="url(#paint2_linear_575_3349)"/>
<path d="M56.8121 56.751C57.3898 54.1717 59.9486 52.5493 62.5279 53.127L84.5376 58.0567C87.1169 58.6344 88.7392 61.1933 88.1617 63.7725C87.5839 66.3518 85.0251 67.9751 82.4458 67.3975L60.4361 62.4668C57.8568 61.8891 56.2344 59.3303 56.8121 56.751Z" fill="url(#paint3_linear_575_3349)"/>
<defs>
<linearGradient id="paint0_linear_575_3349" x1="4.78613" y1="59.028" x2="59.028" y2="59.028" gradientUnits="userSpaceOnUse">
<stop stop-color="#0015AD"/>
<stop offset="0.271666" stop-color="#0014A1"/>
<stop offset="0.801666" stop-color="#001087"/>
<stop offset="1" stop-color="#830599"/>
</linearGradient>
<linearGradient id="paint1_linear_575_3349" x1="59.028" y1="113.268" x2="59.028" y2="59.0262" gradientUnits="userSpaceOnUse">
<stop stop-color="#0015AD"/>
<stop offset="0.271666" stop-color="#0014A1"/>
<stop offset="0.801666" stop-color="#001087"/>
<stop offset="1" stop-color="#830599"/>
</linearGradient>
<linearGradient id="paint2_linear_575_3349" x1="61.4854" y1="39.9186" x2="62.4854" y2="39.9186" gradientUnits="userSpaceOnUse">
<stop stop-color="#0015AD"/>
<stop offset="0.271666" stop-color="#0014A1"/>
<stop offset="0.801666" stop-color="#001087"/>
<stop offset="1" stop-color="#830599"/>
</linearGradient>
<linearGradient id="paint3_linear_575_3349" x1="61.482" y1="60.2619" x2="83.4918" y2="60.2619" gradientUnits="userSpaceOnUse">
<stop stop-color="#0015AD"/>
<stop offset="0.271666" stop-color="#0014A1"/>
<stop offset="0.801666" stop-color="#001087"/>
<stop offset="1" stop-color="#830599"/>
</linearGradient>
</defs>
</svg>
