<svg width="186" height="220" viewBox="0 0 186 220" fill="none" xmlns="http://www.w3.org/2000/svg">
<rect width="185.625" height="219.691" rx="26.9473" fill="#DFE3E8" fill-opacity="0.2"/>
<path d="M32.0525 178.612V198.969H28.5712V178.612H32.0525ZM38.4421 178.612V181.408H22.2376V178.612H38.4421ZM43.1678 186.721V198.969H39.7983V183.841H43.014L43.1678 186.721ZM47.7957 183.743L47.7677 186.875C47.5626 186.838 47.3389 186.81 47.0966 186.791C46.8636 186.772 46.6305 186.763 46.3975 186.763C45.8196 186.763 45.3116 186.847 44.8735 187.015C44.4355 187.173 44.0673 187.406 43.769 187.714C43.4801 188.012 43.2564 188.375 43.0979 188.804C42.9394 189.233 42.8462 189.713 42.8183 190.244L42.0493 190.3C42.0493 189.35 42.1425 188.469 42.3289 187.658C42.5153 186.847 42.795 186.134 43.1678 185.519C43.55 184.903 44.0253 184.423 44.5939 184.079C45.1718 183.734 45.8383 183.561 46.5933 183.561C46.7983 183.561 47.0174 183.58 47.2504 183.617C47.4927 183.654 47.6745 183.696 47.7957 183.743ZM59.0088 195.403V183.841H62.3923V198.969H59.2045L59.0088 195.403ZM59.4842 192.258L60.6167 192.23C60.6167 193.246 60.5048 194.182 60.2811 195.04C60.0574 195.888 59.7125 196.629 59.2465 197.263C58.7804 197.888 58.1839 198.377 57.4568 198.731C56.7298 199.076 55.8583 199.248 54.8423 199.248C54.106 199.248 53.4302 199.141 52.815 198.927C52.1998 198.712 51.6685 198.382 51.2211 197.934C50.783 197.487 50.4428 196.904 50.2005 196.186C49.9581 195.469 49.837 194.611 49.837 193.614V183.841H53.2065V193.642C53.2065 194.192 53.2717 194.653 53.4022 195.026C53.5327 195.389 53.7098 195.683 53.9335 195.907C54.1572 196.131 54.4182 196.289 54.7165 196.382C55.0148 196.475 55.3317 196.522 55.6672 196.522C56.6273 196.522 57.3823 196.336 57.9322 195.963C58.4915 195.581 58.8876 195.068 59.1206 194.425C59.363 193.782 59.4842 193.059 59.4842 192.258ZM72.0255 196.564C72.5755 196.564 73.0695 196.457 73.5076 196.242C73.955 196.019 74.3138 195.711 74.5841 195.32C74.8638 194.928 75.0176 194.476 75.0455 193.963H78.2193C78.2007 194.942 77.9117 195.832 77.3525 196.634C76.7932 197.435 76.0522 198.074 75.1294 198.549C74.2066 199.015 73.186 199.248 72.0675 199.248C70.9117 199.248 69.905 199.053 69.0475 198.661C68.1899 198.26 67.4769 197.71 66.9083 197.011C66.3397 196.312 65.911 195.506 65.622 194.593C65.3424 193.679 65.2026 192.7 65.2026 191.656V191.167C65.2026 190.123 65.3424 189.144 65.622 188.231C65.911 187.308 66.3397 186.497 66.9083 185.798C67.4769 185.099 68.1899 184.554 69.0475 184.162C69.905 183.762 70.907 183.561 72.0535 183.561C73.2652 183.561 74.3278 183.804 75.2413 184.288C76.1547 184.764 76.8724 185.43 77.3944 186.288C77.9257 187.136 78.2007 188.124 78.2193 189.252H75.0455C75.0176 188.692 74.8777 188.189 74.6261 187.742C74.3837 187.285 74.0389 186.921 73.5914 186.651C73.1534 186.381 72.6267 186.246 72.0115 186.246C71.3311 186.246 70.7672 186.385 70.3198 186.665C69.8724 186.935 69.5228 187.308 69.2712 187.784C69.0195 188.25 68.8378 188.776 68.7259 189.363C68.6234 189.941 68.5721 190.543 68.5721 191.167V191.656C68.5721 192.281 68.6234 192.887 68.7259 193.474C68.8284 194.061 69.0055 194.588 69.2572 195.054C69.5182 195.511 69.8724 195.879 70.3198 196.158C70.7672 196.429 71.3358 196.564 72.0255 196.564ZM84.2034 177.493V198.969H80.8199V177.493H84.2034ZM93.5989 183.841L87.0136 191.139L83.4064 194.83L82.5256 191.978L85.252 188.608L89.5303 183.841H93.5989ZM90.2573 198.969L85.3499 191.866L87.475 189.503L94.1582 198.969H90.2573ZM113.914 193.726C113.914 193.306 113.849 192.933 113.718 192.607C113.597 192.281 113.378 191.983 113.061 191.712C112.744 191.442 112.297 191.181 111.719 190.929C111.15 190.668 110.423 190.403 109.538 190.132C108.568 189.834 107.674 189.503 106.853 189.14C106.042 188.767 105.334 188.338 104.728 187.853C104.122 187.359 103.652 186.796 103.316 186.162C102.98 185.519 102.813 184.778 102.813 183.939C102.813 183.109 102.985 182.354 103.33 181.674C103.684 180.993 104.183 180.406 104.826 179.912C105.478 179.409 106.247 179.022 107.133 178.752C108.018 178.472 108.997 178.332 110.069 178.332C111.579 178.332 112.879 178.612 113.97 179.171C115.07 179.73 115.913 180.481 116.501 181.422C117.097 182.363 117.395 183.403 117.395 184.54H113.914C113.914 183.869 113.769 183.277 113.481 182.764C113.201 182.242 112.772 181.832 112.194 181.534C111.626 181.236 110.903 181.086 110.027 181.086C109.198 181.086 108.508 181.212 107.958 181.464C107.408 181.716 106.998 182.056 106.727 182.485C106.457 182.913 106.322 183.398 106.322 183.939C106.322 184.321 106.411 184.67 106.588 184.987C106.765 185.295 107.035 185.584 107.399 185.854C107.762 186.115 108.219 186.362 108.769 186.595C109.319 186.828 109.967 187.052 110.712 187.266C111.84 187.602 112.823 187.975 113.662 188.385C114.501 188.786 115.2 189.242 115.76 189.755C116.319 190.268 116.738 190.85 117.018 191.503C117.297 192.146 117.437 192.877 117.437 193.698C117.437 194.555 117.265 195.329 116.92 196.019C116.575 196.699 116.081 197.282 115.438 197.766C114.804 198.242 114.04 198.61 113.145 198.871C112.259 199.123 111.271 199.248 110.181 199.248C109.202 199.248 108.237 199.118 107.287 198.857C106.345 198.596 105.488 198.2 104.714 197.668C103.941 197.128 103.325 196.457 102.869 195.655C102.412 194.844 102.184 193.898 102.184 192.817H105.693C105.693 193.479 105.805 194.043 106.028 194.509C106.261 194.975 106.583 195.357 106.993 195.655C107.403 195.944 107.879 196.158 108.419 196.298C108.969 196.438 109.556 196.508 110.181 196.508C111.001 196.508 111.686 196.392 112.236 196.158C112.795 195.925 113.215 195.599 113.495 195.18C113.774 194.76 113.914 194.276 113.914 193.726ZM123.589 186.749V204.785H120.22V183.841H123.323L123.589 186.749ZM133.446 191.265V191.559C133.446 192.658 133.316 193.679 133.055 194.621C132.803 195.553 132.425 196.368 131.922 197.067C131.428 197.757 130.818 198.293 130.091 198.675C129.363 199.057 128.525 199.248 127.574 199.248C126.632 199.248 125.808 199.076 125.099 198.731C124.4 198.377 123.808 197.878 123.323 197.235C122.839 196.592 122.447 195.837 122.149 194.97C121.86 194.094 121.655 193.134 121.534 192.09V190.957C121.655 189.848 121.86 188.842 122.149 187.937C122.447 187.033 122.839 186.255 123.323 185.602C123.808 184.95 124.4 184.447 125.099 184.092C125.798 183.738 126.614 183.561 127.546 183.561C128.497 183.561 129.34 183.748 130.077 184.12C130.813 184.484 131.433 185.006 131.936 185.686C132.439 186.357 132.817 187.168 133.069 188.119C133.32 189.061 133.446 190.109 133.446 191.265ZM130.077 191.559V191.265C130.077 190.566 130.011 189.918 129.881 189.322C129.75 188.716 129.545 188.184 129.266 187.728C128.986 187.271 128.627 186.917 128.189 186.665C127.76 186.404 127.243 186.274 126.637 186.274C126.041 186.274 125.528 186.376 125.099 186.581C124.67 186.777 124.312 187.052 124.023 187.406C123.734 187.76 123.51 188.175 123.351 188.65C123.193 189.116 123.081 189.624 123.016 190.174V192.887C123.128 193.558 123.319 194.173 123.589 194.732C123.859 195.292 124.242 195.739 124.736 196.075C125.239 196.401 125.882 196.564 126.665 196.564C127.271 196.564 127.788 196.433 128.217 196.172C128.646 195.911 128.995 195.553 129.266 195.096C129.545 194.63 129.75 194.094 129.881 193.488C130.011 192.882 130.077 192.239 130.077 191.559ZM135.669 191.573V191.251C135.669 190.16 135.828 189.149 136.144 188.217C136.461 187.276 136.918 186.46 137.515 185.77C138.121 185.071 138.857 184.531 139.724 184.148C140.6 183.757 141.588 183.561 142.688 183.561C143.797 183.561 144.785 183.757 145.652 184.148C146.528 184.531 147.269 185.071 147.875 185.77C148.481 186.46 148.942 187.276 149.259 188.217C149.576 189.149 149.734 190.16 149.734 191.251V191.573C149.734 192.663 149.576 193.674 149.259 194.607C148.942 195.539 148.481 196.354 147.875 197.053C147.269 197.743 146.533 198.284 145.666 198.675C144.799 199.057 143.816 199.248 142.716 199.248C141.607 199.248 140.614 199.057 139.738 198.675C138.871 198.284 138.135 197.743 137.529 197.053C136.923 196.354 136.461 195.539 136.144 194.607C135.828 193.674 135.669 192.663 135.669 191.573ZM139.039 191.251V191.573C139.039 192.253 139.109 192.896 139.248 193.502C139.388 194.108 139.607 194.639 139.905 195.096C140.204 195.553 140.586 195.911 141.052 196.172C141.518 196.433 142.073 196.564 142.716 196.564C143.34 196.564 143.881 196.433 144.338 196.172C144.804 195.911 145.186 195.553 145.484 195.096C145.782 194.639 146.001 194.108 146.141 193.502C146.29 192.896 146.365 192.253 146.365 191.573V191.251C146.365 190.58 146.29 189.946 146.141 189.35C146.001 188.744 145.778 188.208 145.47 187.742C145.172 187.276 144.79 186.912 144.324 186.651C143.867 186.381 143.322 186.246 142.688 186.246C142.054 186.246 141.504 186.381 141.038 186.651C140.581 186.912 140.204 187.276 139.905 187.742C139.607 188.208 139.388 188.744 139.248 189.35C139.109 189.946 139.039 190.58 139.039 191.251ZM159.493 183.841V186.302H150.965V183.841H159.493ZM153.426 180.136H156.795V194.788C156.795 195.254 156.86 195.613 156.991 195.865C157.131 196.107 157.322 196.27 157.564 196.354C157.806 196.438 158.091 196.48 158.417 196.48C158.65 196.48 158.874 196.466 159.088 196.438C159.302 196.41 159.475 196.382 159.605 196.354L159.619 198.927C159.34 199.011 159.013 199.085 158.641 199.151C158.277 199.216 157.858 199.248 157.382 199.248C156.609 199.248 155.924 199.113 155.327 198.843C154.73 198.563 154.264 198.111 153.929 197.487C153.593 196.862 153.426 196.033 153.426 194.998V180.136Z" fill="white"/>
<rect width="141.059" height="141.059" rx="22.9098" transform="matrix(-1 0 0 1 162.004 21.0391)" fill="url(#paint0_linear_530_2899)"/>
<g filter="url(#filter0_i_530_2899)">
<rect x="20.9492" y="48.1758" width="67.7477" height="17.0187" fill="white" fill-opacity="0.32"/>
</g>
<g filter="url(#filter1_i_530_2899)">
<rect x="58.25" y="162.086" width="141.059" height="21.2734" transform="rotate(-90 58.25 162.086)" fill="white" fill-opacity="0.32"/>
</g>
<g filter="url(#filter2_i_530_2899)">
<rect x="20.9492" y="101.207" width="67.7477" height="17.0187" fill="white" fill-opacity="0.32"/>
</g>
<g filter="url(#filter3_i_530_2899)">
<path d="M58.2305 47.9297H100.945C111.493 47.9297 120.031 51.1936 126.559 57.7213C133.134 64.2018 136.422 72.74 136.422 83.3358C136.422 93.837 133.04 102.328 126.275 108.808C119.511 115.289 110.713 118.529 99.8805 118.529H79.6586V150.316H58.2305V47.9297ZM79.6586 65.5263V101.145H95.1975C101.394 101.145 106.172 99.6315 109.53 96.6042C112.936 93.5295 114.639 89.1303 114.639 83.4067C114.639 77.6358 112.96 73.213 109.601 70.1383C106.243 67.0636 101.465 65.5263 95.2685 65.5263H79.6586Z" fill="white"/>
</g>
<defs>
<filter id="filter0_i_530_2899" x="20.9492" y="48.1758" width="67.7461" height="18.3287" filterUnits="userSpaceOnUse" color-interpolation-filters="sRGB">
<feFlood flood-opacity="0" result="BackgroundImageFix"/>
<feBlend mode="normal" in="SourceGraphic" in2="BackgroundImageFix" result="shape"/>
<feColorMatrix in="SourceAlpha" type="matrix" values="0 0 0 0 0 0 0 0 0 0 0 0 0 0 0 0 0 0 127 0" result="hardAlpha"/>
<feOffset dy="1.30913"/>
<feGaussianBlur stdDeviation="0.654567"/>
<feComposite in2="hardAlpha" operator="arithmetic" k2="-1" k3="1"/>
<feColorMatrix type="matrix" values="0 0 0 0 0 0 0 0 0 0 0 0 0 0 0 0 0 0 0.25 0"/>
<feBlend mode="normal" in2="shape" result="effect1_innerShadow_530_2899"/>
</filter>
<filter id="filter1_i_530_2899" x="58.25" y="21.0273" width="21.2734" height="142.368" filterUnits="userSpaceOnUse" color-interpolation-filters="sRGB">
<feFlood flood-opacity="0" result="BackgroundImageFix"/>
<feBlend mode="normal" in="SourceGraphic" in2="BackgroundImageFix" result="shape"/>
<feColorMatrix in="SourceAlpha" type="matrix" values="0 0 0 0 0 0 0 0 0 0 0 0 0 0 0 0 0 0 127 0" result="hardAlpha"/>
<feOffset dy="1.30913"/>
<feGaussianBlur stdDeviation="0.654567"/>
<feComposite in2="hardAlpha" operator="arithmetic" k2="-1" k3="1"/>
<feColorMatrix type="matrix" values="0 0 0 0 0 0 0 0 0 0 0 0 0 0 0 0 0 0 0.25 0"/>
<feBlend mode="normal" in2="shape" result="effect1_innerShadow_530_2899"/>
</filter>
<filter id="filter2_i_530_2899" x="20.9492" y="101.207" width="67.7461" height="18.3287" filterUnits="userSpaceOnUse" color-interpolation-filters="sRGB">
<feFlood flood-opacity="0" result="BackgroundImageFix"/>
<feBlend mode="normal" in="SourceGraphic" in2="BackgroundImageFix" result="shape"/>
<feColorMatrix in="SourceAlpha" type="matrix" values="0 0 0 0 0 0 0 0 0 0 0 0 0 0 0 0 0 0 127 0" result="hardAlpha"/>
<feOffset dy="1.30913"/>
<feGaussianBlur stdDeviation="0.654567"/>
<feComposite in2="hardAlpha" operator="arithmetic" k2="-1" k3="1"/>
<feColorMatrix type="matrix" values="0 0 0 0 0 0 0 0 0 0 0 0 0 0 0 0 0 0 0.25 0"/>
<feBlend mode="normal" in2="shape" result="effect1_innerShadow_530_2899"/>
</filter>
<filter id="filter3_i_530_2899" x="58.2305" y="47.9297" width="78.1914" height="103.696" filterUnits="userSpaceOnUse" color-interpolation-filters="sRGB">
<feFlood flood-opacity="0" result="BackgroundImageFix"/>
<feBlend mode="normal" in="SourceGraphic" in2="BackgroundImageFix" result="shape"/>
<feColorMatrix in="SourceAlpha" type="matrix" values="0 0 0 0 0 0 0 0 0 0 0 0 0 0 0 0 0 0 127 0" result="hardAlpha"/>
<feOffset dy="1.30913"/>
<feGaussianBlur stdDeviation="2.1928"/>
<feComposite in2="hardAlpha" operator="arithmetic" k2="-1" k3="1"/>
<feColorMatrix type="matrix" values="0 0 0 0 0 0 0 0 0 0.249444 0 0 0 0 0.623611 0 0 0 0.7 0"/>
<feBlend mode="normal" in2="shape" result="effect1_innerShadow_530_2899"/>
</filter>
<linearGradient id="paint0_linear_530_2899" x1="117.69" y1="16.8464" x2="-47.072" y2="151.618" gradientUnits="userSpaceOnUse">
<stop stop-color="#0057D9"/>
<stop offset="1" stop-color="#DB4AFF"/>
</linearGradient>
</defs>
</svg>
