<svg width="179" height="221" viewBox="0 0 179 221" fill="none" xmlns="http://www.w3.org/2000/svg">
<g clip-path="url(#paint0_angular_530_2882_clip_path)" data-figma-skip-parse="true"><g transform="matrix(-0.0897738 -0.242878 0.188137 -0.0695403 133.304 220.133)"><foreignObject x="-980.825" y="-980.825" width="1961.65" height="1961.65"><div xmlns="http://www.w3.org/1999/xhtml" style="background:conic-gradient(from 90deg,rgba(217, 217, 217, 1) 0deg,rgba(171, 171, 171, 1) 50.4deg,rgba(192, 192, 192, 1) 61.2deg,rgba(167, 167, 167, 1) 77.4deg,rgba(189, 189, 189, 1) 97.2deg,rgba(197, 197, 197, 1) 108.938deg,rgba(176, 176, 176, 1) 131.253deg,rgba(193, 193, 193, 1) 147.042deg,rgba(167, 167, 167, 1) 176.4deg,rgba(206, 206, 206, 1) 226.8deg,rgba(162, 162, 162, 1) 248.4deg,rgba(195, 195, 195, 1) 270deg,rgba(136, 136, 136, 1) 284.4deg,rgba(180, 180, 180, 1) 307.961deg,rgba(201, 201, 201, 1) 313.715deg,rgba(185, 185, 185, 1) 327.6deg,rgba(183, 183, 183, 1) 337.571deg,rgba(217, 217, 217, 1) 360deg);height:100%;width:100%;opacity:1"></div></foreignObject></g></g><path d="M0.0625 6.44742C0.0625 2.88661 2.94911 0 6.50992 0H146.921H172.54C176.101 0 178.987 2.88661 178.987 6.44742V180.753C178.987 182.784 178.031 184.696 176.405 185.913L133.577 217.993C131.8 219.325 129.462 219.648 127.39 218.848L4.18842 171.298C1.70216 170.338 0.0625 167.948 0.0625 165.283V6.44742Z" data-figma-gradient-fill="{&#34;type&#34;:&#34;GRADIENT_ANGULAR&#34;,&#34;stops&#34;:[{&#34;color&#34;:{&#34;r&#34;:0.85098040103912354,&#34;g&#34;:0.85098040103912354,&#34;b&#34;:0.85098040103912354,&#34;a&#34;:1.0},&#34;position&#34;:0.0},{&#34;color&#34;:{&#34;r&#34;:0.67298042774200439,&#34;g&#34;:0.67298042774200439,&#34;b&#34;:0.67298042774200439,&#34;a&#34;:1.0},&#34;position&#34;:0.14000000059604645},{&#34;color&#34;:{&#34;r&#34;:0.75526612997055054,&#34;g&#34;:0.75526612997055054,&#34;b&#34;:0.75526612997055054,&#34;a&#34;:1.0},&#34;position&#34;:0.17000000178813934},{&#34;color&#34;:{&#34;r&#34;:0.65524822473526001,&#34;g&#34;:0.65524822473526001,&#34;b&#34;:0.65524822473526001,&#34;a&#34;:1.0},&#34;position&#34;:0.21500000357627869},{&#34;color&#34;:{&#34;r&#34;:0.74298042058944702,&#34;g&#34;:0.74298042058944702,&#34;b&#34;:0.74298042058944702,&#34;a&#34;:1.0},&#34;position&#34;:0.27000001072883606},{&#34;color&#34;:{&#34;r&#34;:0.77518647909164429,&#34;g&#34;:0.77518647909164429,&#34;b&#34;:0.77518647909164429,&#34;a&#34;:1.0},&#34;position&#34;:0.30260685086250305},{&#34;color&#34;:{&#34;r&#34;:0.69365495443344116,&#34;g&#34;:0.69365495443344116,&#34;b&#34;:0.69365495443344116,&#34;a&#34;:1.0},&#34;position&#34;:0.36459130048751831},{&#34;color&#34;:{&#34;r&#34;:0.75997549295425415,&#34;g&#34;:0.75997549295425415,&#34;b&#34;:0.75997549295425415,&#34;a&#34;:1.0},&#34;position&#34;:0.40844973921775818},{&#34;color&#34;:{&#34;r&#34;:0.65498042106628418,&#34;g&#34;:0.65498042106628418,&#34;b&#34;:0.65498042106628418,&#34;a&#34;:1.0},&#34;position&#34;:0.49000000953674316},{&#34;color&#34;:{&#34;r&#34;:0.81098043918609619,&#34;g&#34;:0.81098043918609619,&#34;b&#34;:0.81098043918609619,&#34;a&#34;:1.0},&#34;position&#34;:0.62999999523162842},{&#34;color&#34;:{&#34;r&#34;:0.63861674070358276,&#34;g&#34;:0.63861674070358276,&#34;b&#34;:0.63861674070358276,&#34;a&#34;:1.0},&#34;position&#34;:0.68999999761581421},{&#34;color&#34;:{&#34;r&#34;:0.76640897989273071,&#34;g&#34;:0.76640897989273071,&#34;b&#34;:0.76640897989273071,&#34;a&#34;:1.0},&#34;position&#34;:0.750},{&#34;color&#34;:{&#34;r&#34;:0.53498041629791260,&#34;g&#34;:0.53498041629791260,&#34;b&#34;:0.53498041629791260,&#34;a&#34;:1.0},&#34;position&#34;:0.79000002145767212},{&#34;color&#34;:{&#34;r&#34;:0.70776534080505371,&#34;g&#34;:0.70776534080505371,&#34;b&#34;:0.70776534080505371,&#34;a&#34;:1.0},&#34;position&#34;:0.85544818639755249},{&#34;color&#34;:{&#34;r&#34;:0.79153019189834595,&#34;g&#34;:0.79153019189834595,&#34;b&#34;:0.79153019189834595,&#34;a&#34;:1.0},&#34;position&#34;:0.87143003940582275},{&#34;color&#34;:{&#34;r&#34;:0.72740900516510010,&#34;g&#34;:0.72740900516510010,&#34;b&#34;:0.72740900516510010,&#34;a&#34;:1.0},&#34;position&#34;:0.91000002622604370},{&#34;color&#34;:{&#34;r&#34;:0.71764707565307617,&#34;g&#34;:0.71764707565307617,&#34;b&#34;:0.71764707565307617,&#34;a&#34;:1.0},&#34;position&#34;:0.93769657611846924}],&#34;stopsVar&#34;:[{&#34;color&#34;:{&#34;r&#34;:0.85098040103912354,&#34;g&#34;:0.85098040103912354,&#34;b&#34;:0.85098040103912354,&#34;a&#34;:1.0},&#34;position&#34;:0.0},{&#34;color&#34;:{&#34;r&#34;:0.67298042774200439,&#34;g&#34;:0.67298042774200439,&#34;b&#34;:0.67298042774200439,&#34;a&#34;:1.0},&#34;position&#34;:0.14000000059604645},{&#34;color&#34;:{&#34;r&#34;:0.75526612997055054,&#34;g&#34;:0.75526612997055054,&#34;b&#34;:0.75526612997055054,&#34;a&#34;:1.0},&#34;position&#34;:0.17000000178813934},{&#34;color&#34;:{&#34;r&#34;:0.65524822473526001,&#34;g&#34;:0.65524822473526001,&#34;b&#34;:0.65524822473526001,&#34;a&#34;:1.0},&#34;position&#34;:0.21500000357627869},{&#34;color&#34;:{&#34;r&#34;:0.74298042058944702,&#34;g&#34;:0.74298042058944702,&#34;b&#34;:0.74298042058944702,&#34;a&#34;:1.0},&#34;position&#34;:0.27000001072883606},{&#34;color&#34;:{&#34;r&#34;:0.77518647909164429,&#34;g&#34;:0.77518647909164429,&#34;b&#34;:0.77518647909164429,&#34;a&#34;:1.0},&#34;position&#34;:0.30260685086250305},{&#34;color&#34;:{&#34;r&#34;:0.69365495443344116,&#34;g&#34;:0.69365495443344116,&#34;b&#34;:0.69365495443344116,&#34;a&#34;:1.0},&#34;position&#34;:0.36459130048751831},{&#34;color&#34;:{&#34;r&#34;:0.75997549295425415,&#34;g&#34;:0.75997549295425415,&#34;b&#34;:0.75997549295425415,&#34;a&#34;:1.0},&#34;position&#34;:0.40844973921775818},{&#34;color&#34;:{&#34;r&#34;:0.65498042106628418,&#34;g&#34;:0.65498042106628418,&#34;b&#34;:0.65498042106628418,&#34;a&#34;:1.0},&#34;position&#34;:0.49000000953674316},{&#34;color&#34;:{&#34;r&#34;:0.81098043918609619,&#34;g&#34;:0.81098043918609619,&#34;b&#34;:0.81098043918609619,&#34;a&#34;:1.0},&#34;position&#34;:0.62999999523162842},{&#34;color&#34;:{&#34;r&#34;:0.63861674070358276,&#34;g&#34;:0.63861674070358276,&#34;b&#34;:0.63861674070358276,&#34;a&#34;:1.0},&#34;position&#34;:0.68999999761581421},{&#34;color&#34;:{&#34;r&#34;:0.76640897989273071,&#34;g&#34;:0.76640897989273071,&#34;b&#34;:0.76640897989273071,&#34;a&#34;:1.0},&#34;position&#34;:0.750},{&#34;color&#34;:{&#34;r&#34;:0.53498041629791260,&#34;g&#34;:0.53498041629791260,&#34;b&#34;:0.53498041629791260,&#34;a&#34;:1.0},&#34;position&#34;:0.79000002145767212},{&#34;color&#34;:{&#34;r&#34;:0.70776534080505371,&#34;g&#34;:0.70776534080505371,&#34;b&#34;:0.70776534080505371,&#34;a&#34;:1.0},&#34;position&#34;:0.85544818639755249},{&#34;color&#34;:{&#34;r&#34;:0.79153019189834595,&#34;g&#34;:0.79153019189834595,&#34;b&#34;:0.79153019189834595,&#34;a&#34;:1.0},&#34;position&#34;:0.87143003940582275},{&#34;color&#34;:{&#34;r&#34;:0.72740900516510010,&#34;g&#34;:0.72740900516510010,&#34;b&#34;:0.72740900516510010,&#34;a&#34;:1.0},&#34;position&#34;:0.91000002622604370},{&#34;color&#34;:{&#34;r&#34;:0.71764707565307617,&#34;g&#34;:0.71764707565307617,&#34;b&#34;:0.71764707565307617,&#34;a&#34;:1.0},&#34;position&#34;:0.93769657611846924}],&#34;transform&#34;:{&#34;m00&#34;:-179.54754638671875,&#34;m01&#34;:376.27471923828125,&#34;m02&#34;:34.940299987792969,&#34;m10&#34;:-485.75595092773438,&#34;m11&#34;:-139.08068847656250,&#34;m12&#34;:532.55163574218750},&#34;opacity&#34;:1.0,&#34;blendMode&#34;:&#34;NORMAL&#34;,&#34;visible&#34;:true}"/>
<path d="M42.9874 46.2879C42.9874 48.0043 42.7728 49.5828 42.3437 51.0233C41.9453 52.4639 41.317 53.7052 40.4588 54.7473C39.6006 55.7894 38.4818 56.6016 37.1026 57.1839C35.754 57.7663 34.1296 58.0575 32.2293 58.0575C28.4287 58.0575 25.5016 57.1533 23.4481 55.345C21.4252 53.5673 20.4137 50.5023 20.4137 46.15V28.0819C20.4137 27.4995 20.3218 27.0245 20.1379 26.6567C19.9846 26.2582 19.6935 25.9824 19.2644 25.8291C18.8353 25.7065 18.4675 25.6146 18.161 25.5533C17.8851 25.492 17.548 25.446 17.1495 25.4153C16.8737 25.4153 16.6898 25.3847 16.5978 25.3234C16.5059 25.2314 16.4599 25.0016 16.4599 24.6338C16.4599 24.2966 16.5212 24.0974 16.6438 24.0361C16.797 23.9748 16.9963 23.9442 17.2415 23.9442C17.3947 23.9442 17.7165 23.9595 18.2069 23.9901C18.728 23.9901 19.2644 23.9901 19.8161 23.9901C20.3678 24.0208 20.8888 24.0361 21.3792 24.0361C21.9002 24.0361 22.2527 24.0361 22.4366 24.0361C22.6205 24.0361 22.973 24.0361 23.494 24.0361C24.0151 24.0361 24.5821 24.0208 25.1951 23.9901C25.7775 23.9901 26.3138 23.9901 26.8042 23.9901C27.3253 23.9595 27.6624 23.9442 27.8157 23.9442C28.0302 23.9442 28.2141 23.9748 28.3674 24.0361C28.5206 24.0974 28.5972 24.2966 28.5972 24.6338C28.5972 24.8177 28.5819 24.9556 28.5513 25.0475C28.5206 25.1395 28.4746 25.2161 28.4133 25.2774C28.3521 25.3081 28.2754 25.3387 28.1835 25.3694C28.1222 25.3694 28.0302 25.3694 27.9076 25.3694C27.4479 25.4 27.0341 25.4613 26.6663 25.5533C26.3292 25.6146 25.9614 25.7065 25.5629 25.8291C25.1032 25.9824 24.7967 26.2429 24.6434 26.6107C24.4902 26.9785 24.4135 27.4536 24.4135 28.0359V45.3224C24.4135 48.8472 25.0265 51.3758 26.2525 52.9083C27.5092 54.4408 29.6547 55.207 32.689 55.207C35.3555 55.207 37.3325 54.4255 38.6198 52.8623C39.9377 51.2992 40.5967 48.9085 40.5967 45.6902V35.162C40.5967 34.7636 40.5814 34.2119 40.5507 33.5069C40.5201 32.802 40.4894 32.0664 40.4588 31.3001C40.4281 30.5645 40.3975 29.8749 40.3668 29.2313C40.3362 28.5876 40.3055 28.1125 40.2749 27.806C40.1829 27.2237 40.045 26.7793 39.8611 26.4728C39.7078 26.1356 39.4167 25.9057 38.9876 25.7831C38.5891 25.6912 38.2213 25.6146 37.8842 25.5533C37.5777 25.4613 37.2099 25.4 36.7808 25.3694C36.6275 25.3694 36.5049 25.3694 36.413 25.3694C36.3517 25.3387 36.2904 25.3081 36.2291 25.2774C36.1678 25.2161 36.1218 25.1395 36.0911 25.0475C36.0911 24.9556 36.0911 24.8177 36.0911 24.6338C36.0911 24.2966 36.1524 24.0974 36.275 24.0361C36.4283 23.9748 36.6275 23.9442 36.8727 23.9442C36.9953 23.9442 37.2865 23.9595 37.7462 23.9901C38.206 23.9901 38.7117 23.9901 39.2634 23.9901C39.7845 24.0208 40.2749 24.0361 40.7346 24.0361C41.225 24.0361 41.5775 24.0361 41.792 24.0361C41.9453 24.0361 42.2364 24.0361 42.6655 24.0361C43.0946 24.0361 43.5544 24.0208 44.0448 23.9901C44.5352 23.9901 44.9949 23.9901 45.424 23.9901C45.8531 23.9595 46.1596 23.9442 46.3435 23.9442C46.5581 23.9442 46.742 23.9748 46.8952 24.0361C47.0485 24.0974 47.1251 24.2966 47.1251 24.6338C47.1251 25.0016 47.0638 25.2314 46.9412 25.3234C46.8493 25.3847 46.6807 25.4153 46.4355 25.4153C46.2516 25.446 46.083 25.4766 45.9298 25.5073C45.7765 25.5073 45.6386 25.5226 45.516 25.5533C45.3627 25.5839 45.2095 25.6146 45.0562 25.6452C44.903 25.6759 44.7344 25.7065 44.5505 25.7372C44.0908 25.8291 43.7689 26.0437 43.585 26.3808C43.4318 26.718 43.3245 27.1777 43.2632 27.7601C43.2019 28.0666 43.1559 28.557 43.1253 29.2313C43.0946 29.8749 43.064 30.5798 43.0333 31.3461C43.0333 32.0817 43.018 32.802 42.9874 33.5069C42.9874 34.1812 42.9874 34.6716 42.9874 34.9781V46.2879ZM55.3194 46.4258V28.1279C55.3194 27.5455 55.2274 27.0704 55.0435 26.7026C54.8596 26.3042 54.5685 26.0437 54.17 25.9211C53.7409 25.8291 53.3578 25.7525 53.0207 25.6912C52.7142 25.6299 52.3004 25.5686 51.7793 25.5073C51.5035 25.5073 51.3196 25.4766 51.2276 25.4153C51.1357 25.3234 51.0897 25.0935 51.0897 24.7257C51.0897 24.3886 51.151 24.1893 51.2736 24.128C51.4269 24.0361 51.6261 23.9901 51.8713 23.9901C51.9939 23.9901 52.2851 24.0055 52.7448 24.0361C53.2352 24.0361 53.7563 24.0361 54.3079 24.0361C54.829 24.0667 55.3041 24.0821 55.7332 24.0821C56.1929 24.0821 56.4841 24.0821 56.6067 24.0821C56.7906 24.0821 57.2044 24.0821 57.848 24.0821C58.4917 24.0821 58.9054 24.0821 59.0893 24.0821C59.1813 24.0821 59.2579 24.0974 59.3192 24.128C59.3805 24.1587 59.4265 24.22 59.4571 24.3119L76.9735 48.4947V35.0241C76.9735 34.6256 76.9582 34.0893 76.9276 33.415C76.8969 32.71 76.8663 32.0051 76.8356 31.3001C76.805 30.5952 76.7743 29.9362 76.7437 29.3232C76.713 28.6796 76.6824 28.2045 76.6517 27.898C76.5598 27.3156 76.4218 26.8712 76.2379 26.5647C76.0847 26.2582 75.7935 26.0283 75.3644 25.8751C74.9353 25.7525 74.5522 25.6605 74.215 25.5992C73.9085 25.5073 73.5408 25.446 73.1117 25.4153C72.8358 25.4153 72.6519 25.3847 72.56 25.3234C72.468 25.2314 72.422 25.0016 72.422 24.6338C72.422 24.2966 72.4833 24.0974 72.6059 24.0361C72.7592 23.9748 72.9584 23.9442 73.2036 23.9442C73.3262 23.9442 73.6174 23.9595 74.0771 23.9901C74.5369 23.9901 75.0273 23.9901 75.5483 23.9901C76.0694 24.0208 76.5598 24.0361 77.0195 24.0361C77.5099 24.0361 77.8624 24.0361 78.0769 24.0361C78.2302 24.0361 78.5214 24.0361 78.9505 24.0361C79.3796 24.0361 79.8393 24.0208 80.3297 23.9901C80.7894 23.9901 81.2339 23.9901 81.663 23.9901C82.0921 23.9595 82.3986 23.9442 82.5825 23.9442C82.797 23.9442 82.9809 23.9748 83.1342 24.0361C83.2874 24.0974 83.364 24.2966 83.364 24.6338C83.364 25.0016 83.3027 25.2314 83.1801 25.3234C83.0882 25.4153 82.9196 25.4613 82.6744 25.4613C82.3066 25.492 81.9541 25.5379 81.617 25.5992C81.2798 25.6605 80.958 25.7372 80.6515 25.8291C80.1918 25.9517 79.87 26.1816 79.6861 26.5187C79.5328 26.8252 79.4255 27.2697 79.3642 27.852C79.3029 28.1585 79.257 28.6336 79.2263 29.2772C79.1957 29.8902 79.165 30.5492 79.1344 31.2541C79.1344 31.9591 79.119 32.664 79.0884 33.369C79.0884 34.0739 79.0884 34.6256 79.0884 35.0241V58.1034C79.0884 58.4712 78.9964 58.6705 78.8125 58.7011C78.6593 58.7624 78.4907 58.6551 78.3068 58.3793L57.4802 29.645V46.3799C57.4802 46.8396 57.4802 47.4373 57.4802 48.1729C57.5109 48.9085 57.5415 49.6594 57.5722 50.4256C57.6028 51.1612 57.6335 51.8662 57.6641 52.5405C57.6948 53.1841 57.7407 53.6439 57.802 53.9197C57.8633 54.5634 57.9859 55.0078 58.1698 55.253C58.3537 55.5289 58.6449 55.7434 59.0434 55.8967C59.4418 56.0806 59.7636 56.2032 60.0088 56.2645C60.2847 56.3258 60.6525 56.3717 61.1122 56.4024C61.2348 56.433 61.3268 56.4484 61.3881 56.4484C61.48 56.479 61.5566 56.5097 61.6179 56.5403C61.6792 56.6016 61.7252 56.6782 61.7559 56.7702C61.7865 56.8621 61.8018 56.9847 61.8018 57.138C61.8018 57.5058 61.7252 57.705 61.572 57.7356C61.4187 57.7969 61.2348 57.8276 61.0203 57.8276C60.867 57.8276 60.5605 57.8276 60.1008 57.8276C59.6717 57.8276 59.2119 57.8123 58.7215 57.7816C58.2311 57.7816 57.7561 57.7663 57.2963 57.7356C56.8366 57.7356 56.5147 57.7356 56.3308 57.7356C56.1469 57.7356 55.8098 57.7356 55.3194 57.7356C54.829 57.7663 54.3079 57.7816 53.7563 57.7816C53.2046 57.8123 52.6835 57.8276 52.1931 57.8276C51.7027 57.8276 51.3809 57.8276 51.2276 57.8276C50.9824 57.8276 50.7832 57.7969 50.63 57.7356C50.5074 57.705 50.4461 57.5058 50.4461 57.138C50.4461 56.8008 50.492 56.5863 50.584 56.4943C50.6759 56.4024 50.8598 56.3411 51.1357 56.3104C51.5035 56.3104 51.9326 56.2798 52.423 56.2185C52.9134 56.1572 53.3731 56.0806 53.8022 55.9886C54.2007 55.8967 54.4765 55.6974 54.6298 55.3909C54.8137 55.0844 54.9516 54.6094 55.0435 53.9657C55.0742 53.6899 55.1048 53.2301 55.1355 52.5865C55.1661 51.9122 55.1968 51.1919 55.2274 50.4256C55.2274 49.6901 55.2428 48.9545 55.2734 48.2189C55.3041 47.4833 55.3194 46.8856 55.3194 46.4258ZM92.9875 57.6897C92.8036 57.6897 92.4511 57.6897 91.9301 57.6897C91.409 57.7203 90.842 57.7356 90.229 57.7356C89.6467 57.7663 89.0796 57.7816 88.5279 57.7816C88.0069 57.7816 87.6697 57.7816 87.5165 57.7816C87.2713 57.7816 87.0721 57.751 86.9188 57.6897C86.7962 57.659 86.7349 57.4598 86.7349 57.092C86.7349 56.7549 86.7809 56.5403 86.8728 56.4484C86.9648 56.3871 87.1487 56.3411 87.4245 56.3104C87.823 56.3104 88.2214 56.2645 88.6199 56.1725C89.049 56.1112 89.4781 56.0039 89.9072 55.8507C90.3056 55.7281 90.5968 55.4982 90.7807 55.1611C90.9646 54.7933 91.0566 54.2875 91.0566 53.6439V28.0819C91.0566 27.4995 90.9646 27.0245 90.7807 26.6567C90.5968 26.2889 90.3056 26.0283 89.9072 25.8751C89.4781 25.7525 89.049 25.6605 88.6199 25.5992C88.2214 25.5073 87.823 25.446 87.4245 25.4153C87.1487 25.4153 86.9648 25.3847 86.8728 25.3234C86.7809 25.2314 86.7349 25.0016 86.7349 24.6338C86.7349 24.2966 86.7962 24.0974 86.9188 24.0361C87.0721 23.9748 87.2713 23.9442 87.5165 23.9442C87.6697 23.9442 88.0069 23.9595 88.5279 23.9901C89.0796 23.9901 89.6467 23.9901 90.229 23.9901C90.842 24.0208 91.409 24.0361 91.9301 24.0361C92.4511 24.0361 92.8036 24.0361 92.9875 24.0361C93.1407 24.0361 93.4779 24.0361 93.9989 24.0361C94.5506 24.0361 95.1177 24.0208 95.7 23.9901C96.313 23.9901 96.88 23.9901 97.4011 23.9901C97.9221 23.9595 98.2746 23.9442 98.4585 23.9442C98.6731 23.9442 98.857 23.9748 99.0102 24.0361C99.1634 24.0974 99.2401 24.2966 99.2401 24.6338C99.2401 25.0016 99.1788 25.2314 99.0562 25.3234C98.9642 25.3847 98.7957 25.4153 98.5505 25.4153C98.1214 25.446 97.6923 25.5073 97.2632 25.5992C96.8647 25.6605 96.4663 25.7525 96.0678 25.8751C95.6081 26.0283 95.2862 26.2889 95.1023 26.6567C94.9491 27.0245 94.8725 27.4995 94.8725 28.0819V53.6439C94.8725 54.2875 94.9491 54.7933 95.1023 55.1611C95.2862 55.4982 95.6081 55.7281 96.0678 55.8507C96.4663 56.0039 96.8647 56.1112 97.2632 56.1725C97.6923 56.2645 98.1214 56.3104 98.5505 56.3104C98.7957 56.3411 98.9642 56.3871 99.0562 56.4484C99.1788 56.5403 99.2401 56.7549 99.2401 57.092C99.2401 57.4598 99.1634 57.659 99.0102 57.6897C98.857 57.751 98.6731 57.7816 98.4585 57.7816C98.2746 57.7816 97.9221 57.7816 97.4011 57.7816C96.88 57.7816 96.313 57.7663 95.7 57.7356C95.1177 57.7356 94.5506 57.7203 93.9989 57.6897C93.4779 57.6897 93.1407 57.6897 92.9875 57.6897ZM128.828 56.4024C127.418 56.9541 126.008 57.3678 124.598 57.6437C123.188 57.9195 121.472 58.0575 119.449 58.0575C117.334 58.0575 115.311 57.705 113.38 57C111.449 56.2951 109.748 55.2377 108.277 53.8278C106.806 52.4179 105.626 50.6862 104.737 48.6326C103.879 46.5791 103.45 44.2037 103.45 41.5065C103.45 38.2883 103.925 35.5605 104.875 33.323C105.856 31.0549 107.112 29.2159 108.645 27.806C110.177 26.3961 111.894 25.3694 113.794 24.7257C115.694 24.0514 117.579 23.7143 119.449 23.7143C121.686 23.7143 123.556 23.8675 125.058 24.174C126.56 24.4805 128.016 24.8636 129.425 25.3234C129.548 25.3847 129.655 25.4613 129.747 25.5533C129.839 25.6146 129.9 25.7218 129.931 25.8751C130.023 26.9785 130.1 28.0206 130.161 29.0014C130.253 29.9822 130.345 31.0243 130.437 32.1277C130.437 32.3729 130.406 32.5414 130.345 32.6334C130.314 32.7253 130.176 32.7866 129.931 32.8173C129.655 32.8786 129.487 32.8786 129.425 32.8173C129.364 32.7253 129.318 32.5568 129.287 32.3116C129.196 31.7599 128.981 31.1009 128.644 30.3347C128.307 29.5684 127.908 28.9248 127.449 28.4037C126.621 27.5762 125.564 26.9325 124.276 26.4728C122.989 26.013 121.472 25.7831 119.725 25.7831C118.345 25.7831 116.966 26.1203 115.587 26.7946C114.208 27.4689 112.966 28.4344 111.863 29.691C110.76 30.9783 109.855 32.5568 109.151 34.4264C108.476 36.2654 108.139 38.3802 108.139 40.7709C108.139 43.0697 108.4 45.1539 108.921 47.0235C109.442 48.8625 110.208 50.441 111.219 51.7589C112.2 53.0769 113.411 54.1036 114.851 54.8392C116.292 55.5442 117.916 55.8967 119.725 55.8967C121.502 55.8967 123.081 55.6821 124.46 55.253C125.87 54.8239 126.836 54.2875 127.357 53.6439C127.847 53.0309 128.261 52.3259 128.598 51.529C128.935 50.7321 129.226 49.9659 129.471 49.2303C129.563 48.9851 129.64 48.8319 129.701 48.7706C129.763 48.7093 129.931 48.7093 130.207 48.7706C130.422 48.8625 130.544 48.9545 130.575 49.0464C130.636 49.1384 130.651 49.3069 130.621 49.5521C130.437 50.6555 130.222 51.7589 129.977 52.8623C129.763 53.9351 129.517 54.9772 129.242 55.9886C129.18 56.1112 129.119 56.2032 129.058 56.2645C128.996 56.3258 128.92 56.3717 128.828 56.4024ZM151.632 43.2996C151.816 43.2996 151.938 43.2689 151.999 43.2076C152.091 43.1463 152.122 43.0084 152.091 42.7938C151.724 41.6291 151.356 40.4644 150.988 39.2997C150.62 38.135 150.252 36.9704 149.885 35.8057C149.547 34.641 149.195 33.4763 148.827 32.3116C148.459 31.1469 148.092 29.9669 147.724 28.7715C147.356 29.9669 146.973 31.2082 146.574 32.4955C146.176 33.7521 145.793 34.9934 145.425 36.2194C145.027 37.4454 144.643 38.6254 144.276 39.7595C143.939 40.8935 143.647 41.9203 143.402 42.8398C143.371 43.0237 143.402 43.1463 143.494 43.2076C143.617 43.2689 143.785 43.2996 144 43.2996H151.632ZM159.861 53.414C160.045 53.9657 160.26 54.4714 160.505 54.9312C160.75 55.3603 161.01 55.6208 161.286 55.7128C161.47 55.8047 161.639 55.8813 161.792 55.9426C161.976 56.0039 162.145 56.0499 162.298 56.0806C162.482 56.1419 162.666 56.1878 162.849 56.2185C163.064 56.2798 163.309 56.3104 163.585 56.3104C163.708 56.3411 163.8 56.3564 163.861 56.3564C163.953 56.3871 164.029 56.4177 164.091 56.4484C164.152 56.5097 164.198 56.5863 164.229 56.6782C164.259 56.7702 164.275 56.8928 164.275 57.046C164.275 57.4138 164.198 57.613 164.045 57.6437C163.892 57.705 163.708 57.7356 163.493 57.7356C163.309 57.7356 162.941 57.7356 162.39 57.7356C161.838 57.7356 161.256 57.7203 160.643 57.6897C160.03 57.659 159.447 57.6284 158.896 57.5977C158.344 57.5977 157.991 57.5977 157.838 57.5977C157.654 57.5977 157.287 57.5977 156.735 57.5977C156.183 57.6284 155.601 57.659 154.988 57.6897C154.375 57.7203 153.808 57.7356 153.287 57.7356C152.766 57.7356 152.444 57.7356 152.321 57.7356C152.076 57.7356 151.877 57.705 151.724 57.6437C151.601 57.613 151.54 57.4138 151.54 57.046C151.54 56.7089 151.586 56.4943 151.678 56.4024C151.77 56.3411 151.953 56.2951 152.229 56.2645C152.597 56.2645 153.011 56.2185 153.471 56.1265C153.93 56.0652 154.344 55.9886 154.712 55.8967C155.141 55.8047 155.371 55.6055 155.402 55.299C155.463 55.0231 155.448 54.64 155.356 54.1496C155.172 53.5366 154.972 52.893 154.758 52.2187C154.574 51.5444 154.375 50.8701 154.16 50.1958C153.946 49.5215 153.746 48.8472 153.563 48.1729C153.379 47.4986 153.195 46.8396 153.011 46.196C152.95 46.0427 152.873 45.9201 152.781 45.8282C152.689 45.7362 152.582 45.6902 152.459 45.6902H143.218C143.034 45.6902 142.881 45.7362 142.758 45.8282C142.636 45.9201 142.559 46.0427 142.529 46.196C142.314 46.8396 142.084 47.4986 141.839 48.1729C141.624 48.8472 141.425 49.5368 141.241 50.2418C141.027 50.916 140.828 51.6057 140.644 52.3106C140.46 52.9849 140.322 53.6132 140.23 54.1956C140.138 54.6247 140.107 54.9925 140.138 55.299C140.169 55.6055 140.352 55.8047 140.69 55.8967C141.088 56.0499 141.456 56.1572 141.793 56.2185C142.161 56.3104 142.621 56.3717 143.172 56.4024C143.387 56.433 143.54 56.479 143.632 56.5403C143.755 56.6323 143.816 56.8162 143.816 57.092C143.816 57.2759 143.785 57.4138 143.724 57.5058C143.693 57.5977 143.647 57.659 143.586 57.6897C143.525 57.7203 143.448 57.7356 143.356 57.7356C143.264 57.7356 143.172 57.7356 143.08 57.7356C142.927 57.7356 142.636 57.7356 142.207 57.7356C141.778 57.7356 141.318 57.7203 140.828 57.6897C140.337 57.659 139.877 57.6284 139.448 57.5977C139.019 57.5977 138.713 57.5977 138.529 57.5977C138.345 57.5977 138.038 57.5977 137.609 57.5977C137.211 57.6284 136.782 57.659 136.322 57.6897C135.832 57.7203 135.372 57.7356 134.943 57.7356C134.544 57.7356 134.268 57.7356 134.115 57.7356C133.931 57.7356 133.763 57.705 133.609 57.6437C133.487 57.613 133.426 57.4138 133.426 57.046C133.426 56.7089 133.472 56.4943 133.564 56.4024C133.655 56.3411 133.839 56.2951 134.115 56.2645C134.452 56.2645 134.759 56.2185 135.035 56.1265C135.341 56.0346 135.632 55.9426 135.908 55.8507C136.337 55.6974 136.659 55.3909 136.874 54.9312C137.119 54.4714 137.333 53.9657 137.517 53.414C139.111 48.8778 140.72 44.1577 142.345 39.2538C144 34.3191 145.563 29.5378 147.034 24.9096C147.034 24.879 147.034 24.833 147.034 24.7717C147.065 24.7104 147.08 24.6644 147.08 24.6338C147.111 24.5725 147.141 24.5265 147.172 24.4958C147.203 24.4345 147.249 24.3886 147.31 24.3579L149.977 23.0706C150.068 23.04 150.145 23.0553 150.206 23.1166C150.298 23.1473 150.375 23.2392 150.436 23.3925C151.172 25.8444 151.923 28.3424 152.689 30.8863C153.455 33.3996 154.237 35.9129 155.034 38.4262C155.8 40.9702 156.582 43.4988 157.378 46.0121C158.206 48.5254 159.034 50.9927 159.861 53.414ZM18.1702 83.4484C18.0783 83.4484 17.902 83.4484 17.6415 83.4484C17.381 83.4637 17.0975 83.4713 16.791 83.4713C16.4998 83.4867 16.2163 83.4943 15.9404 83.4943C15.6799 83.4943 15.5113 83.4943 15.4347 83.4943C15.3121 83.4943 15.2125 83.479 15.1359 83.4484C15.0746 83.433 15.0439 83.3334 15.0439 83.1495C15.0439 82.9809 15.0669 82.8737 15.1129 82.8277C15.1589 82.797 15.2508 82.7741 15.3887 82.7587C15.588 82.7587 15.7872 82.7357 15.9864 82.6898C16.201 82.6591 16.4155 82.6055 16.6301 82.5289C16.8293 82.4676 16.9749 82.3526 17.0668 82.184C17.1588 82.0001 17.2047 81.7473 17.2047 81.4255V68.6445C17.2047 68.3533 17.1588 68.1157 17.0668 67.9318C16.9749 67.7479 16.8293 67.6177 16.6301 67.5411C16.4155 67.4798 16.201 67.4338 15.9864 67.4031C15.7872 67.3572 15.588 67.3265 15.3887 67.3112C15.2508 67.3112 15.1589 67.2959 15.1129 67.2652C15.0669 67.2192 15.0439 67.1043 15.0439 66.9204C15.0439 66.7518 15.0746 66.6522 15.1359 66.6216C15.2125 66.5909 15.3121 66.5756 15.4347 66.5756C15.5113 66.5756 15.6799 66.5833 15.9404 66.5986C16.2163 66.5986 16.4998 66.5986 16.791 66.5986C17.0975 66.6139 17.381 66.6216 17.6415 66.6216C17.902 66.6216 18.0783 66.6216 18.1702 66.6216C18.2468 66.6216 18.4154 66.6216 18.6759 66.6216C18.9518 66.6216 19.2353 66.6139 19.5265 66.5986C19.833 66.5986 20.1165 66.5986 20.377 66.5986C20.6375 66.5833 20.8138 66.5756 20.9057 66.5756C21.013 66.5756 21.1049 66.5909 21.1816 66.6216C21.2582 66.6522 21.2965 66.7518 21.2965 66.9204C21.2965 67.1043 21.2659 67.2192 21.2046 67.2652C21.1586 67.2959 21.0743 67.3112 20.9517 67.3112C20.7371 67.3265 20.5226 67.3572 20.308 67.4031C20.1088 67.4338 19.9096 67.4798 19.7104 67.5411C19.4805 67.6177 19.3196 67.7479 19.2276 67.9318C19.151 68.1157 19.1127 68.3533 19.1127 68.6445V81.4255C19.1127 81.7473 19.151 82.0001 19.2276 82.184C19.3196 82.3526 19.4805 82.4676 19.7104 82.5289C19.9096 82.6055 20.1088 82.6591 20.308 82.6898C20.5226 82.7357 20.7371 82.7587 20.9517 82.7587C21.0743 82.7741 21.1586 82.797 21.2046 82.8277C21.2659 82.8737 21.2965 82.9809 21.2965 83.1495C21.2965 83.3334 21.2582 83.433 21.1816 83.4484C21.1049 83.479 21.013 83.4943 20.9057 83.4943C20.8138 83.4943 20.6375 83.4943 20.377 83.4943C20.1165 83.4943 19.833 83.4867 19.5265 83.4713C19.2353 83.4713 18.9518 83.4637 18.6759 83.4484C18.4154 83.4484 18.2468 83.4484 18.1702 83.4484ZM25.3092 77.8164V68.6674C25.3092 68.3763 25.2633 68.1387 25.1713 67.9548C25.0794 67.7556 24.9338 67.6253 24.7346 67.564C24.52 67.5181 24.3284 67.4798 24.1599 67.4491C24.0066 67.4185 23.7997 67.3878 23.5392 67.3572C23.4013 67.3572 23.3093 67.3418 23.2634 67.3112C23.2174 67.2652 23.1944 67.1503 23.1944 66.9664C23.1944 66.7978 23.225 66.6982 23.2863 66.6675C23.363 66.6216 23.4626 66.5986 23.5852 66.5986C23.6465 66.5986 23.7921 66.6062 24.0219 66.6216C24.2671 66.6216 24.5277 66.6216 24.8035 66.6216C25.064 66.6369 25.3016 66.6446 25.5161 66.6446C25.746 66.6446 25.8916 66.6446 25.9529 66.6446C26.0448 66.6446 26.2517 66.6446 26.5735 66.6446C26.8954 66.6446 27.1023 66.6446 27.1942 66.6446C27.2402 66.6446 27.2785 66.6522 27.3091 66.6675C27.3398 66.6829 27.3628 66.7135 27.3781 66.7595L36.1363 78.8509V72.1156C36.1363 71.9163 36.1286 71.6481 36.1133 71.311C36.098 70.9585 36.0827 70.6061 36.0673 70.2536C36.052 69.9011 36.0367 69.5716 36.0214 69.2651C36.006 68.9433 35.9907 68.7058 35.9754 68.5525C35.9294 68.2613 35.8605 68.0391 35.7685 67.8859C35.6919 67.7326 35.5463 67.6177 35.3318 67.5411C35.1172 67.4798 34.9256 67.4338 34.7571 67.4031C34.6038 67.3572 34.4199 67.3265 34.2054 67.3112C34.0674 67.3112 33.9755 67.2959 33.9295 67.2652C33.8835 67.2192 33.8606 67.1043 33.8606 66.9204C33.8606 66.7518 33.8912 66.6522 33.9525 66.6216C34.0291 66.5909 34.1287 66.5756 34.2513 66.5756C34.3126 66.5756 34.4582 66.5833 34.6881 66.5986C34.918 66.5986 35.1632 66.5986 35.4237 66.5986C35.6842 66.6139 35.9294 66.6216 36.1593 66.6216C36.4045 66.6216 36.5807 66.6216 36.688 66.6216C36.7646 66.6216 36.9102 66.6216 37.1248 66.6216C37.3393 66.6216 37.5692 66.6139 37.8144 66.5986C38.0443 66.5986 38.2665 66.5986 38.481 66.5986C38.6956 66.5833 38.8488 66.5756 38.9408 66.5756C39.0481 66.5756 39.14 66.5909 39.2166 66.6216C39.2932 66.6522 39.3316 66.7518 39.3316 66.9204C39.3316 67.1043 39.3009 67.2192 39.2396 67.2652C39.1936 67.3112 39.1094 67.3342 38.9868 67.3342C38.8029 67.3495 38.6266 67.3725 38.458 67.4031C38.2895 67.4338 38.1286 67.4721 37.9753 67.5181C37.7454 67.5794 37.5845 67.6943 37.4926 67.8629C37.4159 68.0161 37.3623 68.2383 37.3317 68.5295C37.301 68.6828 37.278 68.9203 37.2627 69.2421C37.2474 69.5486 37.232 69.8781 37.2167 70.2306C37.2167 70.5831 37.2091 70.9355 37.1937 71.288C37.1937 71.6405 37.1937 71.9163 37.1937 72.1156V83.6552C37.1937 83.8391 37.1478 83.9387 37.0558 83.9541C36.9792 83.9847 36.8949 83.9311 36.8029 83.7932L26.3896 69.426V77.7934C26.3896 78.0233 26.3896 78.3222 26.3896 78.69C26.405 79.0578 26.4203 79.4332 26.4356 79.8163C26.4509 80.1841 26.4663 80.5366 26.4816 80.8738C26.4969 81.1956 26.5199 81.4255 26.5506 81.5634C26.5812 81.8852 26.6425 82.1074 26.7345 82.23C26.8264 82.3679 26.972 82.4752 27.1712 82.5518C27.3704 82.6438 27.5314 82.7051 27.654 82.7357C27.7919 82.7664 27.9758 82.7894 28.2057 82.8047C28.267 82.82 28.3129 82.8277 28.3436 82.8277C28.3896 82.843 28.4279 82.8583 28.4585 82.8737C28.4892 82.9043 28.5122 82.9426 28.5275 82.9886C28.5428 83.0346 28.5505 83.0959 28.5505 83.1725C28.5505 83.3564 28.5122 83.456 28.4355 83.4713C28.3589 83.502 28.267 83.5173 28.1597 83.5173C28.0831 83.5173 27.9298 83.5173 27.6999 83.5173C27.4854 83.5173 27.2555 83.5097 27.0103 83.4943C26.7651 83.4943 26.5276 83.4867 26.2977 83.4713C26.0678 83.4713 25.9069 83.4713 25.815 83.4713C25.723 83.4713 25.5544 83.4713 25.3092 83.4713C25.064 83.4867 24.8035 83.4943 24.5277 83.4943C24.2518 83.5097 23.9913 83.5173 23.7461 83.5173C23.5009 83.5173 23.34 83.5173 23.2634 83.5173C23.1408 83.5173 23.0411 83.502 22.9645 83.4713C22.9032 83.456 22.8726 83.3564 22.8726 83.1725C22.8726 83.0039 22.8956 82.8967 22.9415 82.8507C22.9875 82.8047 23.0795 82.7741 23.2174 82.7587C23.4013 82.7587 23.6158 82.7434 23.861 82.7128C24.1062 82.6821 24.3361 82.6438 24.5507 82.5978C24.7499 82.5518 24.8878 82.4522 24.9644 82.299C25.0564 82.1457 25.1253 81.9082 25.1713 81.5864C25.1866 81.4484 25.202 81.2186 25.2173 80.8967C25.2326 80.5596 25.2479 80.1995 25.2633 79.8163C25.2633 79.4485 25.2709 79.0807 25.2863 78.7129C25.3016 78.3451 25.3092 78.0463 25.3092 77.8164ZM43.2008 77.8164V68.6674C43.2008 68.3763 43.1548 68.1387 43.0629 67.9548C42.9709 67.7556 42.8253 67.6253 42.6261 67.564C42.4116 67.5181 42.22 67.4798 42.0514 67.4491C41.8982 67.4185 41.6913 67.3878 41.4308 67.3572C41.2929 67.3572 41.2009 67.3418 41.1549 67.3112C41.109 67.2652 41.086 67.1503 41.086 66.9664C41.086 66.7978 41.1166 66.6982 41.1779 66.6675C41.2545 66.6216 41.3542 66.5986 41.4768 66.5986C41.5381 66.5986 41.6836 66.6062 41.9135 66.6216C42.1587 66.6216 42.4192 66.6216 42.6951 66.6216C42.9556 66.6369 43.1931 66.6446 43.4077 66.6446C43.6376 66.6446 43.7832 66.6446 43.8445 66.6446C43.9364 66.6446 44.1433 66.6446 44.4651 66.6446C44.7869 66.6446 44.9938 66.6446 45.0858 66.6446C45.1318 66.6446 45.1701 66.6522 45.2007 66.6675C45.2314 66.6829 45.2544 66.7135 45.2697 66.7595L54.0279 78.8509V72.1156C54.0279 71.9163 54.0202 71.6481 54.0049 71.311C53.9896 70.9585 53.9742 70.6061 53.9589 70.2536C53.9436 69.9011 53.9283 69.5716 53.9129 69.2651C53.8976 68.9433 53.8823 68.7058 53.867 68.5525C53.821 68.2613 53.752 68.0391 53.6601 67.8859C53.5835 67.7326 53.4379 67.6177 53.2233 67.5411C53.0088 67.4798 52.8172 67.4338 52.6486 67.4031C52.4954 67.3572 52.3115 67.3265 52.0969 67.3112C51.959 67.3112 51.8671 67.2959 51.8211 67.2652C51.7751 67.2192 51.7521 67.1043 51.7521 66.9204C51.7521 66.7518 51.7828 66.6522 51.8441 66.6216C51.9207 66.5909 52.0203 66.5756 52.1429 66.5756C52.2042 66.5756 52.3498 66.5833 52.5797 66.5986C52.8095 66.5986 53.0547 66.5986 53.3153 66.5986C53.5758 66.6139 53.821 66.6216 54.0509 66.6216C54.2961 66.6216 54.4723 66.6216 54.5796 66.6216C54.6562 66.6216 54.8018 66.6216 55.0163 66.6216C55.2309 66.6216 55.4608 66.6139 55.706 66.5986C55.9358 66.5986 56.158 66.5986 56.3726 66.5986C56.5871 66.5833 56.7404 66.5756 56.8323 66.5756C56.9396 66.5756 57.0316 66.5909 57.1082 66.6216C57.1848 66.6522 57.2231 66.7518 57.2231 66.9204C57.2231 67.1043 57.1925 67.2192 57.1312 67.2652C57.0852 67.3112 57.0009 67.3342 56.8783 67.3342C56.6944 67.3495 56.5182 67.3725 56.3496 67.4031C56.181 67.4338 56.0201 67.4721 55.8669 67.5181C55.637 67.5794 55.4761 67.6943 55.3841 67.8629C55.3075 68.0161 55.2539 68.2383 55.2232 68.5295C55.1926 68.6828 55.1696 68.9203 55.1543 69.2421C55.1389 69.5486 55.1236 69.8781 55.1083 70.2306C55.1083 70.5831 55.1006 70.9355 55.0853 71.288C55.0853 71.6405 55.0853 71.9163 55.0853 72.1156V83.6552C55.0853 83.8391 55.0393 83.9387 54.9474 83.9541C54.8708 83.9847 54.7865 83.9311 54.6945 83.7932L44.2812 69.426V77.7934C44.2812 78.0233 44.2812 78.3222 44.2812 78.69C44.2965 79.0578 44.3119 79.4332 44.3272 79.8163C44.3425 80.1841 44.3578 80.5366 44.3732 80.8738C44.3885 81.1956 44.4115 81.4255 44.4421 81.5634C44.4728 81.8852 44.5341 82.1074 44.626 82.23C44.718 82.3679 44.8636 82.4752 45.0628 82.5518C45.262 82.6438 45.4229 82.7051 45.5455 82.7357C45.6834 82.7664 45.8673 82.7894 46.0972 82.8047C46.1585 82.82 46.2045 82.8277 46.2351 82.8277C46.2811 82.843 46.3194 82.8583 46.3501 82.8737C46.3807 82.9043 46.4037 82.9426 46.419 82.9886C46.4344 83.0346 46.442 83.0959 46.442 83.1725C46.442 83.3564 46.4037 83.456 46.3271 83.4713C46.2505 83.502 46.1585 83.5173 46.0512 83.5173C45.9746 83.5173 45.8214 83.5173 45.5915 83.5173C45.377 83.5173 45.1471 83.5097 44.9019 83.4943C44.6567 83.4943 44.4191 83.4867 44.1893 83.4713C43.9594 83.4713 43.7985 83.4713 43.7065 83.4713C43.6146 83.4713 43.446 83.4713 43.2008 83.4713C42.9556 83.4867 42.6951 83.4943 42.4192 83.4943C42.1434 83.5097 41.8829 83.5173 41.6377 83.5173C41.3925 83.5173 41.2316 83.5173 41.1549 83.5173C41.0323 83.5173 40.9327 83.502 40.8561 83.4713C40.7948 83.456 40.7641 83.3564 40.7641 83.1725C40.7641 83.0039 40.7871 82.8967 40.8331 82.8507C40.8791 82.8047 40.971 82.7741 41.109 82.7587C41.2929 82.7587 41.5074 82.7434 41.7526 82.7128C41.9978 82.6821 42.2277 82.6438 42.4422 82.5978C42.6414 82.5518 42.7794 82.4522 42.856 82.299C42.9479 82.1457 43.0169 81.9082 43.0629 81.5864C43.0782 81.4484 43.0935 81.2186 43.1089 80.8967C43.1242 80.5596 43.1395 80.1995 43.1548 79.8163C43.1548 79.4485 43.1625 79.0807 43.1778 78.7129C43.1931 78.3451 43.2008 78.0463 43.2008 77.8164ZM67.23 67.564C66.2799 67.564 65.4447 67.7556 64.7244 68.1387C64.0041 68.5219 63.3988 69.0352 62.9084 69.6789C62.418 70.3379 62.0502 71.1194 61.805 72.0236C61.5598 72.9125 61.4372 73.8703 61.4372 74.897C61.4219 75.9545 61.5521 76.9353 61.828 77.8394C62.1192 78.7436 62.5253 79.5328 63.0463 80.2071C63.552 80.8814 64.1574 81.4101 64.8623 81.7933C65.5826 82.1764 66.3718 82.3679 67.23 82.3679C68.0729 82.3679 68.8468 82.1764 69.5517 81.7933C70.2567 81.4101 70.8697 80.8814 71.3907 80.2071C71.9118 79.5328 72.3102 78.7436 72.5861 77.8394C72.8773 76.9353 73.0228 75.9545 73.0228 74.897C73.0228 73.8703 72.8773 72.9125 72.5861 72.0236C72.2949 71.1194 71.8888 70.3379 71.3678 69.6789C70.862 69.0352 70.249 68.5219 69.5288 68.1387C68.8238 67.7556 68.0576 67.564 67.23 67.564ZM67.207 83.5403C66.1036 83.5403 65.0692 83.3487 64.1037 82.9656C63.1383 82.5978 62.2954 82.0461 61.5751 81.3105C60.8548 80.5749 60.2878 79.6784 59.874 78.621C59.4756 77.5482 59.2764 76.3223 59.2764 74.943C59.2764 73.6097 59.4756 72.4144 59.874 71.357C60.2878 70.2996 60.8472 69.403 61.5521 68.6674C62.2724 67.9318 63.1153 67.3725 64.0807 66.9894C65.0462 66.5909 66.096 66.3917 67.23 66.3917C68.3487 66.3917 69.3908 66.5909 70.3563 66.9894C71.3371 67.3725 72.18 67.9318 72.8849 68.6674C73.6052 69.403 74.1646 70.2996 74.563 71.357C74.9768 72.4144 75.1837 73.6097 75.1837 74.943C75.1837 76.3223 74.9691 77.5482 74.54 78.621C74.1262 79.6784 73.5592 80.5749 72.8389 81.3105C72.1187 82.0461 71.2758 82.5978 70.3103 82.9656C69.3449 83.3487 68.3104 83.5403 67.207 83.5403ZM88.9192 68.1157C88.9498 67.9165 88.9345 67.7786 88.8732 67.702C88.8119 67.6253 88.7046 67.564 88.5514 67.5181C88.4748 67.5027 88.3981 67.4874 88.3215 67.4721C88.2449 67.4568 88.1606 67.4338 88.0687 67.4031C87.992 67.3878 87.9077 67.3725 87.8158 67.3572C87.7392 67.3418 87.6702 67.3265 87.6089 67.3112C87.5323 67.3112 87.471 67.3112 87.425 67.3112C87.3944 67.2959 87.3637 67.2805 87.3331 67.2652C87.3024 67.2346 87.2794 67.1963 87.2641 67.1503C87.2641 67.1043 87.2641 67.0353 87.2641 66.9434C87.2641 66.7748 87.2947 66.6752 87.356 66.6446C87.4327 66.6139 87.5323 66.5986 87.6549 66.5986C87.7162 66.5986 87.8464 66.6062 88.0457 66.6216C88.2449 66.6216 88.4594 66.6216 88.6893 66.6216C88.9192 66.6216 89.1337 66.6216 89.333 66.6216C89.5475 66.6216 89.7084 66.6216 89.8157 66.6216C89.8923 66.6216 90.0226 66.6216 90.2065 66.6216C90.3904 66.6216 90.5819 66.6216 90.7812 66.6216C90.9804 66.6216 91.172 66.6216 91.3559 66.6216C91.5397 66.6062 91.6777 66.5986 91.7696 66.5986C91.8769 66.5986 91.9688 66.6139 92.0455 66.6446C92.1221 66.6752 92.1604 66.7748 92.1604 66.9434C92.1604 67.1273 92.1298 67.2422 92.0685 67.2882C92.0225 67.3189 91.9382 67.3342 91.8156 67.3342C91.6777 67.3495 91.5244 67.3878 91.3559 67.4491C91.2026 67.4951 91.0647 67.5411 90.9421 67.587C90.7735 67.679 90.6356 67.8169 90.5283 68.0008C90.4364 68.1694 90.3444 68.3763 90.2525 68.6215C89.9306 69.403 89.6165 70.1923 89.31 70.9892C89.0035 71.7707 88.72 72.5217 88.4594 73.2419L84.7125 83.5173C84.6512 83.7165 84.5746 83.8162 84.4826 83.8162C84.406 83.8162 84.3447 83.7089 84.2987 83.4943L79.0576 68.7824C78.9656 68.5372 78.8507 68.315 78.7128 68.1157C78.5902 67.9012 78.4522 67.7479 78.299 67.656C78.1151 67.564 77.9235 67.4874 77.7243 67.4261C77.5251 67.3648 77.3182 67.3265 77.1037 67.3112C76.9964 67.3112 76.9198 67.2959 76.8738 67.2652C76.8278 67.2192 76.8048 67.1043 76.8048 66.9204C76.8048 66.7518 76.8355 66.6522 76.8968 66.6216C76.9734 66.5909 77.0577 66.5756 77.1496 66.5756C77.2263 66.5756 77.3948 66.5833 77.6554 66.5986C77.9159 66.5986 78.1917 66.5986 78.4829 66.5986C78.7587 66.6139 79.0269 66.6216 79.2875 66.6216C79.548 66.6216 79.7242 66.6216 79.8162 66.6216C79.9081 66.6216 80.0844 66.6216 80.3449 66.6216C80.6207 66.6216 80.9119 66.6139 81.2184 66.5986C81.5249 66.5986 81.8084 66.5986 82.0689 66.5986C82.3295 66.5833 82.498 66.5756 82.5747 66.5756C82.6819 66.5756 82.7739 66.5909 82.8505 66.6216C82.9271 66.6522 82.9654 66.7518 82.9654 66.9204C82.9654 67.0124 82.9578 67.0813 82.9425 67.1273C82.9271 67.1733 82.9041 67.2116 82.8735 67.2422C82.8428 67.2576 82.8045 67.2729 82.7586 67.2882C82.7279 67.2882 82.6819 67.2882 82.6206 67.2882C82.4214 67.3035 82.2375 67.3342 82.0689 67.3801C81.9004 67.4108 81.7394 67.4491 81.5862 67.4951C81.3717 67.5564 81.2337 67.6407 81.1724 67.7479C81.1111 67.8552 81.1188 68.0238 81.1954 68.2537L85.1952 79.4715L87.494 73.104C87.6319 72.7362 87.7698 72.3301 87.9077 71.8857C88.0457 71.4413 88.1836 70.9968 88.3215 70.5524C88.4441 70.108 88.559 69.6789 88.6663 69.2651C88.7736 68.836 88.8579 68.4529 88.9192 68.1157ZM100.494 76.2533C100.585 76.2533 100.647 76.238 100.677 76.2073C100.723 76.1767 100.739 76.1077 100.723 76.0004C100.539 75.4181 100.356 74.8357 100.172 74.2534C99.9878 73.671 99.8039 73.0887 99.62 72.5063C99.4514 71.924 99.2752 71.3416 99.0913 70.7593C98.9074 70.177 98.7235 69.5869 98.5396 68.9893C98.3557 69.5869 98.1641 70.2076 97.9649 70.8512C97.7657 71.4796 97.5741 72.1002 97.3902 72.7132C97.191 73.3262 96.9994 73.9162 96.8155 74.4833C96.647 75.0503 96.5014 75.5637 96.3788 76.0234C96.3634 76.1154 96.3788 76.1767 96.4247 76.2073C96.486 76.238 96.5703 76.2533 96.6776 76.2533H100.494ZM104.608 81.3105C104.7 81.5864 104.807 81.8392 104.93 82.0691C105.053 82.2837 105.183 82.4139 105.321 82.4599C105.413 82.5059 105.497 82.5442 105.574 82.5748C105.666 82.6055 105.75 82.6285 105.827 82.6438C105.919 82.6744 106.01 82.6974 106.102 82.7128C106.21 82.7434 106.332 82.7587 106.47 82.7587C106.532 82.7741 106.578 82.7817 106.608 82.7817C106.654 82.797 106.692 82.8124 106.723 82.8277C106.754 82.8583 106.777 82.8967 106.792 82.9426C106.807 82.9886 106.815 83.0499 106.815 83.1265C106.815 83.3104 106.777 83.41 106.7 83.4254C106.623 83.456 106.532 83.4713 106.424 83.4713C106.332 83.4713 106.148 83.4713 105.873 83.4713C105.597 83.4713 105.306 83.4637 104.999 83.4484C104.693 83.433 104.401 83.4177 104.126 83.4024C103.85 83.4024 103.673 83.4024 103.597 83.4024C103.505 83.4024 103.321 83.4024 103.045 83.4024C102.769 83.4177 102.478 83.433 102.172 83.4484C101.865 83.4637 101.582 83.4713 101.321 83.4713C101.061 83.4713 100.9 83.4713 100.838 83.4713C100.716 83.4713 100.616 83.456 100.539 83.4254C100.478 83.41 100.448 83.3104 100.448 83.1265C100.448 82.958 100.471 82.8507 100.517 82.8047C100.562 82.7741 100.654 82.7511 100.792 82.7357C100.976 82.7357 101.183 82.7128 101.413 82.6668C101.643 82.6361 101.85 82.5978 102.034 82.5518C102.248 82.5059 102.363 82.4063 102.378 82.253C102.409 82.1151 102.401 81.9235 102.355 81.6783C102.264 81.3718 102.164 81.05 102.057 80.7128C101.965 80.3757 101.865 80.0386 101.758 79.7014C101.651 79.3643 101.551 79.0271 101.459 78.69C101.367 78.3528 101.275 78.0233 101.183 77.7015C101.152 77.6249 101.114 77.5636 101.068 77.5176C101.022 77.4716 100.969 77.4486 100.907 77.4486H96.2868C96.1949 77.4486 96.1182 77.4716 96.0569 77.5176C95.9956 77.5636 95.9573 77.6249 95.942 77.7015C95.8347 78.0233 95.7198 78.3528 95.5972 78.69C95.4899 79.0271 95.3903 79.3719 95.2984 79.7244C95.1911 80.0615 95.0915 80.4064 94.9995 80.7588C94.9076 81.096 94.8386 81.4101 94.7926 81.7013C94.7467 81.9159 94.7313 82.0998 94.7467 82.253C94.762 82.4063 94.8539 82.5059 95.0225 82.5518C95.2217 82.6285 95.4056 82.6821 95.5742 82.7128C95.7581 82.7587 95.988 82.7894 96.2638 82.8047C96.3711 82.82 96.4477 82.843 96.4937 82.8737C96.555 82.9196 96.5857 83.0116 96.5857 83.1495C96.5857 83.2415 96.5703 83.3104 96.5397 83.3564C96.5244 83.4024 96.5014 83.433 96.4707 83.4484C96.4401 83.4637 96.4018 83.4713 96.3558 83.4713C96.3098 83.4713 96.2638 83.4713 96.2179 83.4713C96.1412 83.4713 95.9956 83.4713 95.7811 83.4713C95.5665 83.4713 95.3367 83.4637 95.0915 83.4484C94.8463 83.433 94.6164 83.4177 94.4019 83.4024C94.1873 83.4024 94.0341 83.4024 93.9421 83.4024C93.8502 83.4024 93.6969 83.4024 93.4824 83.4024C93.2831 83.4177 93.0686 83.433 92.8387 83.4484C92.5935 83.4637 92.3636 83.4713 92.1491 83.4713C91.9499 83.4713 91.8119 83.4713 91.7353 83.4713C91.6434 83.4713 91.5591 83.456 91.4825 83.4254C91.4212 83.41 91.3905 83.3104 91.3905 83.1265C91.3905 82.958 91.4135 82.8507 91.4595 82.8047C91.5054 82.7741 91.5974 82.7511 91.7353 82.7357C91.9039 82.7357 92.0571 82.7128 92.1951 82.6668C92.3483 82.6208 92.4939 82.5748 92.6318 82.5289C92.8464 82.4522 93.0073 82.299 93.1146 82.0691C93.2372 81.8392 93.3444 81.5864 93.4364 81.3105C94.2333 79.0424 95.0378 76.6824 95.8501 74.2304C96.6776 71.7631 97.4592 69.3724 98.1948 67.0583C98.1948 67.043 98.1948 67.02 98.1948 66.9894C98.2101 66.9587 98.2178 66.9357 98.2178 66.9204C98.2331 66.8898 98.2484 66.8668 98.2637 66.8514C98.2791 66.8208 98.3021 66.7978 98.3327 66.7825L99.666 66.1388C99.7119 66.1235 99.7503 66.1312 99.7809 66.1618C99.8269 66.1771 99.8652 66.2231 99.8958 66.2997C100.264 67.5257 100.639 68.7747 101.022 70.0467C101.405 71.3033 101.796 72.56 102.195 73.8166C102.578 75.0886 102.968 76.3529 103.367 77.6095C103.781 78.8662 104.194 80.0999 104.608 81.3105ZM109.1 66.7595H117.123C117.751 66.7595 118.203 66.7212 118.479 66.6446C118.77 66.5679 118.985 66.384 119.122 66.0929C119.122 65.9549 119.145 65.863 119.191 65.817C119.253 65.7557 119.352 65.7251 119.49 65.7251C119.628 65.7251 119.712 65.7557 119.743 65.817C119.789 65.863 119.812 65.9626 119.812 66.1158C119.766 66.8974 119.743 67.6866 119.743 68.4835C119.743 69.2804 119.766 70.062 119.812 70.8283C119.812 70.9509 119.797 71.0428 119.766 71.1041C119.735 71.1501 119.659 71.1731 119.536 71.1731C119.429 71.1884 119.345 71.1731 119.283 71.1271C119.237 71.0658 119.207 70.9815 119.191 70.8742C119.099 70.5984 118.977 70.2459 118.824 69.8168C118.686 69.3877 118.563 69.0352 118.456 68.7594C118.318 68.4835 118.134 68.2767 117.904 68.1387C117.69 68.0008 117.391 67.9318 117.008 67.9318H114.387C114.203 67.9318 114.088 67.9625 114.042 68.0238C113.996 68.0698 113.973 68.177 113.973 68.3456V81.4255C113.973 81.7473 114.012 82.0001 114.088 82.184C114.18 82.3679 114.341 82.4829 114.571 82.5289C114.755 82.6055 114.946 82.6591 115.146 82.6898C115.36 82.7357 115.575 82.7587 115.789 82.7587C115.912 82.7741 115.996 82.797 116.042 82.8277C116.103 82.8737 116.134 82.9809 116.134 83.1495C116.134 83.3334 116.096 83.433 116.019 83.4484C115.943 83.479 115.851 83.4943 115.743 83.4943C115.651 83.4943 115.475 83.4943 115.215 83.4943C114.954 83.4943 114.671 83.4867 114.364 83.4713C114.073 83.4713 113.789 83.4637 113.514 83.4484C113.253 83.4484 113.084 83.4484 113.008 83.4484C112.916 83.4484 112.74 83.4484 112.479 83.4484C112.219 83.4637 111.935 83.4713 111.629 83.4713C111.337 83.4867 111.062 83.4943 110.801 83.4943C110.541 83.4943 110.372 83.4943 110.295 83.4943C110.173 83.4943 110.073 83.479 109.996 83.4484C109.935 83.433 109.905 83.3334 109.905 83.1495C109.905 82.9809 109.928 82.8737 109.973 82.8277C110.019 82.797 110.111 82.7741 110.249 82.7587C110.433 82.7587 110.625 82.7357 110.824 82.6898C111.039 82.6591 111.253 82.6055 111.468 82.5289C111.682 82.4676 111.835 82.3526 111.927 82.184C112.019 82.0001 112.065 81.7473 112.065 81.4255V68.3456C112.065 68.177 112.035 68.0698 111.973 68.0238C111.927 67.9625 111.82 67.9318 111.652 67.9318H109.169C108.755 67.9318 108.433 68.0008 108.203 68.1387C107.989 68.2767 107.828 68.4835 107.721 68.7594C107.598 69.0352 107.46 69.3877 107.307 69.8168C107.169 70.2459 107.062 70.5984 106.985 70.8742C106.954 70.9815 106.909 71.0658 106.847 71.1271C106.801 71.1731 106.725 71.1884 106.617 71.1731C106.479 71.1731 106.395 71.1501 106.364 71.1041C106.334 71.0428 106.326 70.9509 106.341 70.8283C106.372 70.062 106.387 69.2804 106.387 68.4835C106.403 67.6866 106.387 66.8974 106.341 66.1158C106.326 65.9626 106.334 65.863 106.364 65.817C106.41 65.7557 106.518 65.7251 106.686 65.7251C106.824 65.7251 106.924 65.7557 106.985 65.817C107.046 65.863 107.085 65.9549 107.1 66.0929C107.223 66.384 107.422 66.5679 107.698 66.6446C107.989 66.7212 108.456 66.7595 109.1 66.7595ZM124.509 83.4484C124.417 83.4484 124.241 83.4484 123.981 83.4484C123.72 83.4637 123.437 83.4713 123.13 83.4713C122.839 83.4867 122.556 83.4943 122.28 83.4943C122.019 83.4943 121.851 83.4943 121.774 83.4943C121.651 83.4943 121.552 83.479 121.475 83.4484C121.414 83.433 121.383 83.3334 121.383 83.1495C121.383 82.9809 121.406 82.8737 121.452 82.8277C121.498 82.797 121.59 82.7741 121.728 82.7587C121.927 82.7587 122.126 82.7357 122.326 82.6898C122.54 82.6591 122.755 82.6055 122.969 82.5289C123.169 82.4676 123.314 82.3526 123.406 82.184C123.498 82.0001 123.544 81.7473 123.544 81.4255V68.6445C123.544 68.3533 123.498 68.1157 123.406 67.9318C123.314 67.7479 123.169 67.6177 122.969 67.5411C122.755 67.4798 122.54 67.4338 122.326 67.4031C122.126 67.3572 121.927 67.3265 121.728 67.3112C121.59 67.3112 121.498 67.2959 121.452 67.2652C121.406 67.2192 121.383 67.1043 121.383 66.9204C121.383 66.7518 121.414 66.6522 121.475 66.6216C121.552 66.5909 121.651 66.5756 121.774 66.5756C121.851 66.5756 122.019 66.5833 122.28 66.5986C122.556 66.5986 122.839 66.5986 123.13 66.5986C123.437 66.6139 123.72 66.6216 123.981 66.6216C124.241 66.6216 124.417 66.6216 124.509 66.6216C124.586 66.6216 124.755 66.6216 125.015 66.6216C125.291 66.6216 125.575 66.6139 125.866 66.5986C126.172 66.5986 126.456 66.5986 126.716 66.5986C126.977 66.5833 127.153 66.5756 127.245 66.5756C127.352 66.5756 127.444 66.5909 127.521 66.6216C127.597 66.6522 127.636 66.7518 127.636 66.9204C127.636 67.1043 127.605 67.2192 127.544 67.2652C127.498 67.2959 127.414 67.3112 127.291 67.3112C127.076 67.3265 126.862 67.3572 126.647 67.4031C126.448 67.4338 126.249 67.4798 126.05 67.5411C125.82 67.6177 125.659 67.7479 125.567 67.9318C125.49 68.1157 125.452 68.3533 125.452 68.6445V81.4255C125.452 81.7473 125.49 82.0001 125.567 82.184C125.659 82.3526 125.82 82.4676 126.05 82.5289C126.249 82.6055 126.448 82.6591 126.647 82.6898C126.862 82.7357 127.076 82.7587 127.291 82.7587C127.414 82.7741 127.498 82.797 127.544 82.8277C127.605 82.8737 127.636 82.9809 127.636 83.1495C127.636 83.3334 127.597 83.433 127.521 83.4484C127.444 83.479 127.352 83.4943 127.245 83.4943C127.153 83.4943 126.977 83.4943 126.716 83.4943C126.456 83.4943 126.172 83.4867 125.866 83.4713C125.575 83.4713 125.291 83.4637 125.015 83.4484C124.755 83.4484 124.586 83.4484 124.509 83.4484ZM137.786 67.564C136.836 67.564 136.001 67.7556 135.28 68.1387C134.56 68.5219 133.955 69.0352 133.464 69.6789C132.974 70.3379 132.606 71.1194 132.361 72.0236C132.116 72.9125 131.993 73.8703 131.993 74.897C131.978 75.9545 132.108 76.9353 132.384 77.8394C132.675 78.7436 133.081 79.5328 133.602 80.2071C134.108 80.8814 134.713 81.4101 135.418 81.7933C136.139 82.1764 136.928 82.3679 137.786 82.3679C138.629 82.3679 139.403 82.1764 140.108 81.7933C140.813 81.4101 141.426 80.8814 141.947 80.2071C142.468 79.5328 142.866 78.7436 143.142 77.8394C143.433 76.9353 143.579 75.9545 143.579 74.897C143.579 73.8703 143.433 72.9125 143.142 72.0236C142.851 71.1194 142.445 70.3379 141.924 69.6789C141.418 69.0352 140.805 68.5219 140.085 68.1387C139.38 67.7556 138.614 67.564 137.786 67.564ZM137.763 83.5403C136.66 83.5403 135.625 83.3487 134.66 82.9656C133.694 82.5978 132.851 82.0461 132.131 81.3105C131.411 80.5749 130.844 79.6784 130.43 78.621C130.032 77.5482 129.832 76.3223 129.832 74.943C129.832 73.6097 130.032 72.4144 130.43 71.357C130.844 70.2996 131.403 69.403 132.108 68.6674C132.828 67.9318 133.671 67.3725 134.637 66.9894C135.602 66.5909 136.652 66.3917 137.786 66.3917C138.905 66.3917 139.947 66.5909 140.912 66.9894C141.893 67.3725 142.736 67.9318 143.441 68.6674C144.161 69.403 144.721 70.2996 145.119 71.357C145.533 72.4144 145.74 73.6097 145.74 74.943C145.74 76.3223 145.525 77.5482 145.096 78.621C144.682 79.6784 144.115 80.5749 143.395 81.3105C142.675 82.0461 141.832 82.5978 140.866 82.9656C139.901 83.3487 138.867 83.5403 137.763 83.5403ZM150.303 77.8164V68.6674C150.303 68.3763 150.257 68.1387 150.165 67.9548C150.073 67.7556 149.928 67.6253 149.729 67.564C149.514 67.5181 149.322 67.4798 149.154 67.4491C149.001 67.4185 148.794 67.3878 148.533 67.3572C148.395 67.3572 148.303 67.3418 148.257 67.3112C148.211 67.2652 148.188 67.1503 148.188 66.9664C148.188 66.7978 148.219 66.6982 148.28 66.6675C148.357 66.6216 148.457 66.5986 148.579 66.5986C148.641 66.5986 148.786 66.6062 149.016 66.6216C149.261 66.6216 149.522 66.6216 149.798 66.6216C150.058 66.6369 150.296 66.6446 150.51 66.6446C150.74 66.6446 150.886 66.6446 150.947 66.6446C151.039 66.6446 151.246 66.6446 151.568 66.6446C151.889 66.6446 152.096 66.6446 152.188 66.6446C152.234 66.6446 152.273 66.6522 152.303 66.6675C152.334 66.6829 152.357 66.7135 152.372 66.7595L161.13 78.8509V72.1156C161.13 71.9163 161.123 71.6481 161.107 71.311C161.092 70.9585 161.077 70.6061 161.061 70.2536C161.046 69.9011 161.031 69.5716 161.015 69.2651C161 68.9433 160.985 68.7058 160.969 68.5525C160.923 68.2613 160.855 68.0391 160.763 67.8859C160.686 67.7326 160.54 67.6177 160.326 67.5411C160.111 67.4798 159.92 67.4338 159.751 67.4031C159.598 67.3572 159.414 67.3265 159.199 67.3112C159.061 67.3112 158.97 67.2959 158.924 67.2652C158.878 67.2192 158.855 67.1043 158.855 66.9204C158.855 66.7518 158.885 66.6522 158.947 66.6216C159.023 66.5909 159.123 66.5756 159.245 66.5756C159.307 66.5756 159.452 66.5833 159.682 66.5986C159.912 66.5986 160.157 66.5986 160.418 66.5986C160.678 66.6139 160.923 66.6216 161.153 66.6216C161.399 66.6216 161.575 66.6216 161.682 66.6216C161.759 66.6216 161.904 66.6216 162.119 66.6216C162.333 66.6216 162.563 66.6139 162.808 66.5986C163.038 66.5986 163.261 66.5986 163.475 66.5986C163.69 66.5833 163.843 66.5756 163.935 66.5756C164.042 66.5756 164.134 66.5909 164.211 66.6216C164.287 66.6522 164.326 66.7518 164.326 66.9204C164.326 67.1043 164.295 67.2192 164.234 67.2652C164.188 67.3112 164.103 67.3342 163.981 67.3342C163.797 67.3495 163.621 67.3725 163.452 67.4031C163.284 67.4338 163.123 67.4721 162.969 67.5181C162.739 67.5794 162.579 67.6943 162.487 67.8629C162.41 68.0161 162.356 68.2383 162.326 68.5295C162.295 68.6828 162.272 68.9203 162.257 69.2421C162.241 69.5486 162.226 69.8781 162.211 70.2306C162.211 70.5831 162.203 70.9355 162.188 71.288C162.188 71.6405 162.188 71.9163 162.188 72.1156V83.6552C162.188 83.8391 162.142 83.9387 162.05 83.9541C161.973 83.9847 161.889 83.9311 161.797 83.7932L151.384 69.426V77.7934C151.384 78.0233 151.384 78.3222 151.384 78.69C151.399 79.0578 151.414 79.4332 151.43 79.8163C151.445 80.1841 151.46 80.5366 151.476 80.8738C151.491 81.1956 151.514 81.4255 151.545 81.5634C151.575 81.8852 151.637 82.1074 151.729 82.23C151.82 82.3679 151.966 82.4752 152.165 82.5518C152.364 82.6438 152.525 82.7051 152.648 82.7357C152.786 82.7664 152.97 82.7894 153.2 82.8047C153.261 82.82 153.307 82.8277 153.338 82.8277C153.384 82.843 153.422 82.8583 153.453 82.8737C153.483 82.9043 153.506 82.9426 153.522 82.9886C153.537 83.0346 153.545 83.0959 153.545 83.1725C153.545 83.3564 153.506 83.456 153.43 83.4713C153.353 83.502 153.261 83.5173 153.154 83.5173C153.077 83.5173 152.924 83.5173 152.694 83.5173C152.479 83.5173 152.25 83.5097 152.004 83.4943C151.759 83.4943 151.522 83.4867 151.292 83.4713C151.062 83.4713 150.901 83.4713 150.809 83.4713C150.717 83.4713 150.548 83.4713 150.303 83.4713C150.058 83.4867 149.798 83.4943 149.522 83.4943C149.246 83.5097 148.985 83.5173 148.74 83.5173C148.495 83.5173 148.334 83.5173 148.257 83.5173C148.135 83.5173 148.035 83.502 147.959 83.4713C147.897 83.456 147.867 83.3564 147.867 83.1725C147.867 83.0039 147.89 82.8967 147.936 82.8507C147.982 82.8047 148.074 82.7741 148.211 82.7587C148.395 82.7587 148.61 82.7434 148.855 82.7128C149.1 82.6821 149.33 82.6438 149.545 82.5978C149.744 82.5518 149.882 82.4522 149.958 82.299C150.05 82.1457 150.119 81.9082 150.165 81.5864C150.181 81.4484 150.196 81.2186 150.211 80.8967C150.227 80.5596 150.242 80.1995 150.257 79.8163C150.257 79.4485 150.265 79.0807 150.28 78.7129C150.296 78.3451 150.303 78.0463 150.303 77.8164ZM15.2214 98.323C15.3072 98.323 15.511 98.3337 15.8328 98.3552C16.1547 98.3552 16.498 98.3552 16.8627 98.3552C17.2274 98.3766 17.56 98.3874 17.8603 98.3874C18.1822 98.3874 18.3967 98.3874 18.504 98.3874C18.6113 98.3874 18.8258 98.3874 19.1476 98.3874C19.4695 98.3874 19.8127 98.3766 20.1775 98.3552C20.5207 98.3552 20.8426 98.3552 21.1429 98.3552C21.4433 98.3337 21.6471 98.323 21.7544 98.323C21.9046 98.323 22.0333 98.3445 22.1406 98.3874C22.2479 98.4303 22.3015 98.5697 22.3015 98.8057C22.3015 98.9345 22.2908 99.031 22.2693 99.0954C22.2479 99.1598 22.2157 99.2134 22.1728 99.2563C22.1299 99.2778 22.0762 99.2992 22.0119 99.3207C21.969 99.3207 21.9046 99.3207 21.8188 99.3207C21.7115 99.3421 21.615 99.3636 21.5291 99.385C21.4648 99.385 21.4004 99.385 21.336 99.385C21.2717 99.4065 21.2073 99.4279 21.1429 99.4494C21.0786 99.4494 21.0142 99.4494 20.9498 99.4494C20.6709 99.4923 20.4886 99.6103 20.4027 99.8034C20.3169 99.975 20.3384 100.222 20.4671 100.544L27.1932 117.118L30.4437 110.037L27.161 101.413C27.0109 101.069 26.8607 100.758 26.7105 100.479C26.5603 100.179 26.3887 99.9643 26.1956 99.8356C25.981 99.7069 25.745 99.5996 25.4876 99.5138C25.2301 99.4279 24.9726 99.3743 24.7152 99.3528C24.5435 99.3528 24.4255 99.3314 24.3612 99.2885C24.2968 99.2241 24.2646 99.0632 24.2646 98.8057C24.2646 98.5697 24.3075 98.4303 24.3934 98.3874C24.5006 98.3445 24.6294 98.323 24.7796 98.323C24.8654 98.323 25.0585 98.3337 25.3588 98.3552C25.6807 98.3552 26.0025 98.3552 26.3243 98.3552C26.6676 98.3766 26.9894 98.3874 27.2898 98.3874C27.5901 98.3874 27.794 98.3874 27.9012 98.3874C28.0085 98.3874 28.2123 98.3874 28.5127 98.3874C28.8345 98.3874 29.1564 98.3766 29.4782 98.3552C29.8215 98.3552 30.1326 98.3552 30.4115 98.3552C30.7118 98.3337 30.9049 98.323 30.9908 98.323C31.1409 98.323 31.2697 98.3445 31.3769 98.3874C31.4842 98.4303 31.5379 98.5697 31.5379 98.8057C31.5379 98.9345 31.5271 99.031 31.5057 99.0954C31.4842 99.1598 31.452 99.2134 31.4091 99.2563C31.3662 99.2778 31.3126 99.2992 31.2482 99.3207C31.2053 99.3207 31.1409 99.3207 31.0551 99.3207C30.9693 99.3421 30.8835 99.3636 30.7977 99.385C30.7333 99.385 30.6689 99.385 30.6046 99.385C30.5187 99.4065 30.4437 99.4279 30.3793 99.4494C30.3149 99.4494 30.2506 99.4494 30.1862 99.4494C29.9073 99.4923 29.7249 99.6103 29.6391 99.8034C29.5533 99.975 29.5747 100.222 29.7035 100.544L32.0206 106.594C32.4711 105.586 32.9431 104.491 33.4366 103.311C33.9301 102.131 34.327 101.144 34.6274 100.351C34.7132 100.093 34.7454 99.9107 34.7239 99.8034C34.7025 99.6961 34.5952 99.6103 34.4021 99.5459C34.2948 99.5245 34.1339 99.4923 33.9193 99.4494C33.7048 99.4065 33.5332 99.3743 33.4044 99.3528C33.2972 99.3528 33.2113 99.3528 33.147 99.3528C33.1041 99.3314 33.0612 99.3099 33.0182 99.2885C32.9753 99.2456 32.9431 99.1919 32.9217 99.1276C32.9217 99.0632 32.9217 98.9667 32.9217 98.8379C32.9217 98.6019 32.9646 98.4625 33.0504 98.4196C33.1577 98.3766 33.2972 98.3552 33.4688 98.3552C33.5546 98.3552 33.6833 98.3659 33.855 98.3874C34.0481 98.3874 34.2519 98.3874 34.4664 98.3874C34.681 98.4088 34.8848 98.4196 35.0779 98.4196C35.271 98.4196 35.4426 98.4196 35.5928 98.4196C35.7001 98.4196 35.861 98.4196 36.0756 98.4196C36.2901 98.4196 36.5261 98.4088 36.7836 98.3874C37.0196 98.3874 37.2449 98.3874 37.4594 98.3874C37.674 98.3659 37.8456 98.3552 37.9743 98.3552C38.1245 98.3552 38.2532 98.3766 38.3605 98.4196C38.4678 98.4625 38.5214 98.6019 38.5214 98.8379C38.5214 99.0954 38.4785 99.2563 38.3927 99.3207C38.3283 99.3636 38.2103 99.385 38.0387 99.385C37.8456 99.4065 37.6418 99.4494 37.4272 99.5138C37.2127 99.5781 37.0196 99.6425 36.8479 99.7069C36.7192 99.7712 36.6119 99.857 36.5261 99.9643C36.4403 100.05 36.3545 100.157 36.2687 100.286C36.2043 100.415 36.1292 100.565 36.0434 100.737C35.979 100.887 35.9147 101.037 35.8503 101.187C35.5928 101.702 35.3354 102.239 35.0779 102.796C34.8205 103.354 34.5737 103.912 34.3377 104.47C34.1017 105.049 33.8657 105.618 33.6297 106.176C33.3937 106.712 33.1684 107.205 32.9539 107.656L32.6642 108.3L35.979 117.021L39.7122 107.463C39.9053 106.948 40.1198 106.379 40.3558 105.757C40.5918 105.113 40.8064 104.481 40.9995 103.858C41.214 103.236 41.4071 102.625 41.5788 102.024C41.7504 101.423 41.8684 100.887 41.9328 100.415C41.9542 100.136 41.922 99.9536 41.8362 99.8678C41.7718 99.7605 41.6324 99.6639 41.4178 99.5781C41.2677 99.5352 41.1067 99.4923 40.9351 99.4494C40.7849 99.4065 40.624 99.3743 40.4524 99.3528C40.3666 99.3528 40.2915 99.3528 40.2271 99.3528C40.1842 99.3314 40.1413 99.3099 40.0984 99.2885C40.0555 99.2456 40.0233 99.1919 40.0018 99.1276C39.9804 99.0632 39.9696 98.9667 39.9696 98.8379C39.9696 98.6019 40.0125 98.4625 40.0984 98.4196C40.2056 98.3766 40.3451 98.3552 40.5167 98.3552C40.6026 98.3552 40.7527 98.3659 40.9673 98.3874C41.1818 98.3874 41.4178 98.3874 41.6753 98.3874C41.9328 98.4088 42.1795 98.4196 42.4155 98.4196C42.6515 98.4196 42.8446 98.4196 42.9948 98.4196C43.1021 98.4196 43.2844 98.4196 43.5419 98.4196C43.7993 98.4196 44.0675 98.4088 44.3464 98.3874C44.6254 98.3874 44.8935 98.3874 45.151 98.3874C45.4085 98.3659 45.6016 98.3552 45.7303 98.3552C45.8805 98.3552 46.0092 98.3766 46.1165 98.4196C46.2237 98.4625 46.2774 98.6019 46.2774 98.8379C46.2774 99.0954 46.2345 99.2563 46.1487 99.3207C46.0843 99.3636 45.9663 99.385 45.7946 99.385C45.6016 99.4065 45.387 99.4601 45.151 99.5459C44.9365 99.6103 44.7434 99.6747 44.5717 99.739C44.443 99.8034 44.3357 99.8892 44.2499 99.9965C44.1641 100.082 44.0783 100.19 43.9924 100.318C43.9281 100.447 43.8637 100.587 43.7993 100.737C43.735 100.887 43.6706 101.037 43.6062 101.187C43.3702 101.745 43.145 102.303 42.9304 102.861C42.7159 103.397 42.5013 103.933 42.2868 104.47C42.0722 105.028 41.8684 105.575 41.6753 106.111C41.4822 106.648 41.2891 107.162 41.096 107.656L35.5928 122.041C35.507 122.32 35.3997 122.46 35.271 122.46C35.1637 122.46 35.0779 122.31 35.0135 122.009L31.0873 111.711L26.3565 122.041C26.2707 122.32 26.1634 122.46 26.0347 122.46C25.9274 122.46 25.8416 122.31 25.7772 122.009L17.6029 101.413C17.4527 101.069 17.3025 100.769 17.1523 100.511C17.0021 100.232 16.8305 100.029 16.6374 99.8999C16.4229 99.7712 16.1869 99.6639 15.9294 99.5781C15.6719 99.4923 15.4145 99.4387 15.157 99.4172C15.0283 99.4172 14.9317 99.385 14.8674 99.3207C14.7816 99.2348 14.7386 99.0632 14.7386 98.8057C14.7386 98.5697 14.7923 98.4303 14.8996 98.3874C14.9854 98.3445 15.0927 98.323 15.2214 98.323ZM65.2361 99.7069C63.9059 99.7069 62.7366 99.975 61.7282 100.511C60.7198 101.048 59.8723 101.767 59.1858 102.668C58.4992 103.59 57.9843 104.684 57.641 105.95C57.2978 107.195 57.1261 108.536 57.1261 109.973C57.1047 111.453 57.287 112.827 57.6732 114.092C58.0809 115.358 58.6494 116.463 59.3789 117.407C60.0869 118.351 60.9344 119.091 61.9213 119.628C62.9297 120.164 64.0346 120.432 65.2361 120.432C66.4161 120.432 67.4996 120.164 68.4865 119.628C69.4734 119.091 70.3316 118.351 71.0611 117.407C71.7906 116.463 72.3484 115.358 72.7346 114.092C73.1422 112.827 73.346 111.453 73.346 109.973C73.346 108.536 73.1422 107.195 72.7346 105.95C72.3269 104.684 71.7584 103.59 71.0289 102.668C70.3209 101.767 69.4627 101.048 68.4543 100.511C67.4674 99.975 66.3946 99.7069 65.2361 99.7069ZM65.2039 122.074C63.6591 122.074 62.2109 121.805 60.8593 121.269C59.5076 120.754 58.3276 119.982 57.3192 118.952C56.3108 117.922 55.517 116.667 54.9377 115.187C54.3799 113.685 54.101 111.968 54.101 110.037C54.101 108.171 54.3799 106.497 54.9377 105.017C55.517 103.537 56.3001 102.281 57.287 101.252C58.2954 100.222 59.4754 99.4387 60.8271 98.9023C62.1787 98.3445 63.6484 98.0656 65.2361 98.0656C66.8023 98.0656 68.2612 98.3445 69.6129 98.9023C70.986 99.4387 72.166 100.222 73.1529 101.252C74.1613 102.281 74.9444 103.537 75.5023 105.017C76.0815 106.497 76.3712 108.171 76.3712 110.037C76.3712 111.968 76.0708 113.685 75.4701 115.187C74.8908 116.667 74.097 117.922 73.0886 118.952C72.0802 119.982 70.9002 120.754 69.5485 121.269C68.1969 121.805 66.7486 122.074 65.2039 122.074ZM92.1896 109.233C94.6354 109.233 96.4913 108.911 97.7571 108.267C99.023 107.602 99.6559 106.336 99.6559 104.47C99.6559 103.869 99.5701 103.29 99.3984 102.732C99.2268 102.174 98.9264 101.67 98.4973 101.219C98.0897 100.79 97.5318 100.447 96.8238 100.19C96.1158 99.9107 95.2362 99.7712 94.1849 99.7712C93.9274 99.7712 93.6271 99.7819 93.2838 99.8034C92.9405 99.8034 92.6509 99.8356 92.4148 99.8999C92.093 99.9858 91.8785 100.157 91.7712 100.415C91.6639 100.672 91.6103 101.026 91.6103 101.477V108.686C91.6103 108.922 91.6425 109.072 91.7068 109.136C91.7712 109.201 91.9321 109.233 92.1896 109.233ZM97.0491 109.812C96.9418 109.834 96.8667 109.866 96.8238 109.909C96.8024 109.952 96.8775 110.016 97.0491 110.102C97.3709 110.295 97.682 110.627 97.9824 111.099C98.2828 111.55 98.5617 112.043 98.8191 112.58L101.362 117.858C101.919 119.016 102.552 119.842 103.26 120.336C103.968 120.851 104.698 121.076 105.449 121.012C105.706 121.012 105.878 121.022 105.964 121.044C106.071 121.065 106.146 121.162 106.189 121.333C106.21 121.505 106.189 121.645 106.125 121.752C106.082 121.859 105.964 121.934 105.771 121.977C104.033 122.235 102.531 122.041 101.265 121.398C100.021 120.776 99.0015 119.596 98.2077 117.858L96.0193 113.03C95.5687 112.043 95.1074 111.4 94.6354 111.099C94.1634 110.799 93.4125 110.649 92.3827 110.649H92.1896C91.9321 110.649 91.7712 110.692 91.7068 110.778C91.6425 110.842 91.6103 110.992 91.6103 111.228V119.113C91.6103 119.563 91.6639 119.917 91.7712 120.175C91.8999 120.411 92.1252 120.572 92.447 120.658C92.7259 120.765 93.0263 120.851 93.3481 120.915C93.6914 120.979 94.0561 121.022 94.4423 121.044C94.5925 121.065 94.6998 121.097 94.7642 121.14C94.85 121.205 94.8929 121.355 94.8929 121.591C94.8929 121.848 94.8393 121.988 94.732 122.009C94.6462 122.052 94.5282 122.074 94.378 122.074C94.2707 122.074 94.024 122.074 93.6378 122.074C93.2516 122.074 92.8332 122.063 92.3827 122.041C91.9321 122.02 91.503 121.999 91.0954 121.977C90.7092 121.977 90.4517 121.977 90.323 121.977C90.1943 121.977 89.9368 121.977 89.5506 121.977C89.1644 121.999 88.7568 122.02 88.3277 122.041C87.8986 122.063 87.4909 122.074 87.1048 122.074C86.7186 122.074 86.4718 122.074 86.3646 122.074C86.1929 122.074 86.0535 122.052 85.9462 122.009C85.8604 121.988 85.8175 121.848 85.8175 121.591C85.8175 121.355 85.8496 121.205 85.914 121.14C85.9784 121.097 86.1071 121.065 86.3002 121.044C86.6649 121.022 86.9868 120.979 87.2657 120.915C87.566 120.851 87.8664 120.765 88.1668 120.658C88.4457 120.572 88.6495 120.411 88.7782 120.175C88.907 119.917 88.9713 119.563 88.9713 119.113V101.38C88.9713 100.973 88.907 100.64 88.7782 100.383C88.6495 100.104 88.4457 99.9214 88.1668 99.8356C87.9308 99.7712 87.6626 99.7283 87.3622 99.7069C87.0833 99.6639 86.7829 99.6425 86.4611 99.6425C86.2895 99.6425 86.1607 99.621 86.0749 99.5781C86.0106 99.5138 85.9784 99.3528 85.9784 99.0954C85.9784 98.9881 85.9891 98.9023 86.0106 98.8379C86.032 98.7736 86.0642 98.7199 86.1071 98.677C86.1715 98.6556 86.2358 98.6448 86.3002 98.6448C86.3646 98.6234 86.4397 98.6019 86.5255 98.5805H86.7507C88.038 98.5161 89.2502 98.4625 90.3874 98.4196C91.5245 98.3766 92.7581 98.3552 94.0883 98.3552C96.7917 98.3552 98.8513 98.8701 100.267 99.8999C101.683 100.93 102.391 102.432 102.391 104.405C102.391 105.049 102.252 105.682 101.973 106.304C101.716 106.926 101.351 107.484 100.879 107.978C100.385 108.471 99.8168 108.89 99.1731 109.233C98.5295 109.555 97.8215 109.748 97.0491 109.812ZM117.022 98.5805H128.253C129.133 98.5805 129.766 98.5268 130.152 98.4196C130.56 98.3123 130.86 98.0548 131.053 97.6472C131.053 97.4541 131.085 97.3254 131.15 97.261C131.235 97.1752 131.375 97.1323 131.568 97.1323C131.761 97.1323 131.879 97.1752 131.922 97.261C131.986 97.3254 132.019 97.4648 132.019 97.6794C131.954 98.7736 131.922 99.8785 131.922 100.994C131.922 102.11 131.954 103.204 132.019 104.277C132.019 104.448 131.997 104.577 131.954 104.663C131.911 104.727 131.804 104.759 131.632 104.759C131.482 104.781 131.364 104.759 131.278 104.695C131.214 104.609 131.171 104.491 131.15 104.341C131.021 103.955 130.849 103.461 130.635 102.861C130.442 102.26 130.27 101.767 130.12 101.38C129.927 100.994 129.669 100.705 129.347 100.511C129.047 100.318 128.629 100.222 128.092 100.222H124.423C124.166 100.222 124.005 100.265 123.941 100.351C123.876 100.415 123.844 100.565 123.844 100.801V119.113C123.844 119.563 123.898 119.917 124.005 120.175C124.134 120.432 124.359 120.593 124.681 120.658C124.938 120.765 125.207 120.84 125.486 120.883C125.786 120.947 126.086 120.979 126.387 120.979C126.558 121.001 126.676 121.033 126.741 121.076C126.826 121.14 126.869 121.291 126.869 121.527C126.869 121.784 126.816 121.923 126.708 121.945C126.601 121.988 126.472 122.009 126.322 122.009C126.194 122.009 125.947 122.009 125.582 122.009C125.217 122.009 124.82 121.999 124.391 121.977C123.984 121.977 123.587 121.966 123.201 121.945C122.836 121.945 122.6 121.945 122.493 121.945C122.364 121.945 122.117 121.945 121.752 121.945C121.388 121.966 120.991 121.977 120.562 121.977C120.154 121.999 119.768 122.009 119.403 122.009C119.038 122.009 118.802 122.009 118.695 122.009C118.523 122.009 118.384 121.988 118.277 121.945C118.191 121.923 118.148 121.784 118.148 121.527C118.148 121.291 118.18 121.14 118.244 121.076C118.309 121.033 118.438 121.001 118.631 120.979C118.888 120.979 119.156 120.947 119.435 120.883C119.736 120.84 120.036 120.765 120.336 120.658C120.637 120.572 120.851 120.411 120.98 120.175C121.109 119.917 121.173 119.563 121.173 119.113V100.801C121.173 100.565 121.13 100.415 121.044 100.351C120.98 100.265 120.83 100.222 120.594 100.222H117.118C116.539 100.222 116.088 100.318 115.766 100.511C115.466 100.705 115.241 100.994 115.091 101.38C114.919 101.767 114.726 102.26 114.511 102.861C114.318 103.461 114.168 103.955 114.061 104.341C114.018 104.491 113.953 104.609 113.868 104.695C113.803 104.759 113.696 104.781 113.546 104.759C113.353 104.759 113.235 104.727 113.192 104.663C113.149 104.577 113.138 104.448 113.16 104.277C113.203 103.204 113.224 102.11 113.224 100.994C113.245 99.8785 113.224 98.7736 113.16 97.6794C113.138 97.4648 113.149 97.3254 113.192 97.261C113.256 97.1752 113.406 97.1323 113.642 97.1323C113.835 97.1323 113.975 97.1752 114.061 97.261C114.147 97.3254 114.2 97.4541 114.222 97.6472C114.393 98.0548 114.672 98.3123 115.058 98.4196C115.466 98.5268 116.12 98.5805 117.022 98.5805ZM157.518 107.881V101.091C157.518 100.683 157.454 100.351 157.325 100.093C157.196 99.8356 156.982 99.6532 156.681 99.5459C156.381 99.4601 156.113 99.3958 155.877 99.3528C155.662 99.2885 155.415 99.2456 155.137 99.2241C155.029 99.2241 154.943 99.2241 154.879 99.2241C154.836 99.2027 154.793 99.1812 154.75 99.1598C154.707 99.1168 154.675 99.0632 154.654 98.9988C154.654 98.9345 154.654 98.8379 154.654 98.7092C154.654 98.4732 154.697 98.3337 154.783 98.2908C154.89 98.2479 155.029 98.2265 155.201 98.2265C155.287 98.2265 155.501 98.2372 155.845 98.2586C156.188 98.2586 156.563 98.2586 156.971 98.2586C157.357 98.2801 157.733 98.2908 158.097 98.2908C158.462 98.2908 158.709 98.2908 158.838 98.2908C158.945 98.2908 159.181 98.2908 159.546 98.2908C159.932 98.2908 160.329 98.2801 160.736 98.2586C161.165 98.2586 161.562 98.2586 161.927 98.2586C162.292 98.2372 162.538 98.2265 162.667 98.2265C162.817 98.2265 162.946 98.2479 163.053 98.2908C163.161 98.3337 163.214 98.4732 163.214 98.7092C163.214 98.9667 163.171 99.1276 163.086 99.1919C163.021 99.2348 162.903 99.2563 162.732 99.2563C162.431 99.2778 162.142 99.3207 161.863 99.385C161.584 99.4279 161.305 99.4923 161.026 99.5781C160.704 99.6854 160.479 99.8678 160.35 100.125C160.243 100.383 160.189 100.715 160.189 101.123V119.016C160.189 119.467 160.243 119.821 160.35 120.078C160.479 120.314 160.704 120.475 161.026 120.561C161.305 120.668 161.584 120.743 161.863 120.786C162.142 120.851 162.431 120.883 162.732 120.883C162.903 120.904 163.021 120.936 163.086 120.979C163.171 121.044 163.214 121.194 163.214 121.43C163.214 121.687 163.161 121.827 163.053 121.848C162.946 121.891 162.817 121.913 162.667 121.913C162.538 121.913 162.292 121.913 161.927 121.913C161.562 121.913 161.165 121.902 160.736 121.881C160.329 121.881 159.932 121.87 159.546 121.848C159.181 121.848 158.945 121.848 158.838 121.848C158.709 121.848 158.462 121.848 158.097 121.848C157.733 121.87 157.357 121.881 156.971 121.881C156.563 121.902 156.188 121.913 155.845 121.913C155.501 121.913 155.287 121.913 155.201 121.913C155.029 121.913 154.89 121.891 154.783 121.848C154.697 121.827 154.654 121.687 154.654 121.43C154.654 121.323 154.654 121.237 154.654 121.173C154.675 121.108 154.707 121.055 154.75 121.012C154.793 120.99 154.836 120.969 154.879 120.947C154.943 120.947 155.029 120.936 155.137 120.915C155.415 120.915 155.662 120.883 155.877 120.818C156.113 120.776 156.381 120.7 156.681 120.593C156.982 120.507 157.196 120.346 157.325 120.11C157.454 119.853 157.518 119.499 157.518 119.048V110.617C157.518 110.402 157.475 110.263 157.389 110.198C157.325 110.112 157.175 110.07 156.939 110.07H146.608C146.351 110.07 146.19 110.112 146.125 110.198C146.061 110.263 146.029 110.402 146.029 110.617V119.048C146.029 119.499 146.083 119.853 146.19 120.11C146.319 120.346 146.544 120.507 146.866 120.593C147.145 120.7 147.391 120.776 147.606 120.818C147.842 120.883 148.121 120.915 148.443 120.915C148.528 120.936 148.593 120.947 148.636 120.947C148.7 120.969 148.754 120.99 148.797 121.012C148.84 121.055 148.872 121.108 148.893 121.173C148.915 121.237 148.925 121.323 148.925 121.43C148.925 121.687 148.872 121.827 148.764 121.848C148.657 121.891 148.528 121.913 148.378 121.913C148.271 121.913 148.046 121.913 147.702 121.913C147.359 121.913 146.984 121.902 146.576 121.881C146.168 121.881 145.782 121.87 145.417 121.848C145.074 121.848 144.838 121.848 144.709 121.848C144.581 121.848 144.334 121.848 143.969 121.848C143.605 121.87 143.208 121.881 142.779 121.881C142.371 121.902 141.974 121.913 141.588 121.913C141.223 121.913 140.987 121.913 140.88 121.913C140.708 121.913 140.569 121.891 140.461 121.848C140.376 121.827 140.333 121.687 140.333 121.43C140.333 121.194 140.365 121.044 140.429 120.979C140.494 120.936 140.622 120.904 140.815 120.883C141.094 120.883 141.373 120.851 141.652 120.786C141.952 120.743 142.253 120.668 142.553 120.561C142.832 120.475 143.036 120.314 143.165 120.078C143.293 119.821 143.358 119.467 143.358 119.016V101.123C143.358 100.715 143.293 100.383 143.165 100.125C143.036 99.8678 142.832 99.6854 142.553 99.5781C142.253 99.4923 141.952 99.4279 141.652 99.385C141.373 99.3207 141.094 99.2778 140.815 99.2563C140.622 99.2563 140.494 99.2348 140.429 99.1919C140.365 99.1276 140.333 98.9667 140.333 98.7092C140.333 98.4732 140.376 98.3337 140.461 98.2908C140.569 98.2479 140.708 98.2265 140.88 98.2265C140.987 98.2265 141.223 98.2372 141.588 98.2586C141.974 98.2586 142.371 98.2586 142.779 98.2586C143.208 98.2801 143.605 98.2908 143.969 98.2908C144.334 98.2908 144.581 98.2908 144.709 98.2908C144.838 98.2908 145.074 98.2908 145.417 98.2908C145.782 98.2908 146.168 98.2801 146.576 98.2586C146.984 98.2586 147.359 98.2586 147.702 98.2586C148.046 98.2372 148.271 98.2265 148.378 98.2265C148.528 98.2265 148.657 98.2479 148.764 98.2908C148.872 98.3337 148.925 98.4732 148.925 98.7092C148.925 98.8379 148.915 98.9345 148.893 98.9988C148.872 99.0632 148.84 99.1168 148.797 99.1598C148.754 99.1812 148.7 99.2027 148.636 99.2241C148.593 99.2241 148.528 99.2241 148.443 99.2241C148.121 99.2456 147.842 99.2885 147.606 99.3528C147.391 99.3958 147.145 99.4601 146.866 99.5459C146.544 99.6532 146.319 99.8356 146.19 100.093C146.083 100.351 146.029 100.683 146.029 101.091V107.881C146.029 108.139 146.061 108.3 146.125 108.364C146.19 108.428 146.351 108.46 146.608 108.46H156.939C157.175 108.46 157.325 108.428 157.389 108.364C157.475 108.3 157.518 108.139 157.518 107.881Z" fill="black"/>
<path d="M65.9023 156.516L65.9477 156.619C66.5609 156.649 67.1362 156.672 67.6736 156.687C68.2186 156.702 68.7295 156.709 69.2064 156.709C69.7968 156.709 70.3456 156.679 70.8528 156.619C71.3675 156.558 71.8368 156.441 72.2607 156.267C72.6922 156.092 73.0782 155.846 73.4188 155.529C73.7595 155.211 74.0509 154.79 74.2931 154.268L74.6224 154.404C74.3953 155.199 74.2553 155.699 74.2023 155.903C74.1493 156.108 74.0358 156.486 73.8617 157.039C73.6951 157.591 73.5854 157.936 73.5324 158.072C73.487 158.201 73.4453 158.303 73.4075 158.378C73.1728 158.363 72.8549 158.348 72.4537 158.333C72.0525 158.318 71.6249 158.303 71.1707 158.288C70.7165 158.272 70.2624 158.261 69.8082 158.254C69.3616 158.246 68.9718 158.242 68.6387 158.242C68.4646 158.242 67.5903 158.25 66.0159 158.265C64.449 158.28 63.5898 158.288 63.4384 158.288L63.2 157.89C65.8796 155.188 67.4843 153.523 68.0142 152.894C68.5441 152.266 69.0134 151.657 69.4221 151.066C69.8385 150.468 70.1564 149.923 70.3759 149.431C70.5349 149.083 70.6635 148.765 70.7619 148.478C70.8679 148.182 70.9474 147.895 71.0004 147.615C71.0609 147.335 71.1026 147.051 71.1253 146.763C71.148 146.468 71.1593 146.146 71.1593 145.798C71.1593 145.23 71.0836 144.742 70.9323 144.333C70.7809 143.917 70.5651 143.576 70.2851 143.311C70.005 143.039 69.6606 142.842 69.2518 142.721C68.8431 142.592 68.3851 142.528 67.878 142.528C67.6357 142.528 67.3632 142.562 67.0605 142.63C66.7652 142.698 66.4662 142.793 66.1635 142.914C65.8607 143.027 65.5693 143.164 65.2892 143.323C65.0167 143.482 64.7783 143.648 64.5739 143.822L64.2219 143.482C64.5247 143.164 64.8577 142.884 65.2211 142.641C65.592 142.399 65.9742 142.199 66.3678 142.04C66.7615 141.881 67.1589 141.76 67.56 141.676C67.9688 141.593 68.3624 141.551 68.7409 141.551C69.4146 141.551 70.0201 141.642 70.5576 141.824C71.095 141.998 71.5492 142.255 71.9201 142.596C72.2986 142.937 72.5862 143.357 72.783 143.856C72.9874 144.356 73.0896 144.927 73.0896 145.571C73.0896 146.086 73.0177 146.6 72.8738 147.115C72.73 147.63 72.537 148.137 72.2948 148.636C72.0601 149.129 71.7838 149.609 71.4659 150.078C71.1556 150.548 70.8339 150.998 70.5008 151.43C70.1677 151.854 69.8347 152.251 69.5016 152.622C69.1686 152.993 68.862 153.33 68.5819 153.632L67.1854 155.131C66.6403 155.706 66.2127 156.168 65.9023 156.516ZM87.8842 149.147C87.8842 150.442 87.7706 151.649 87.5435 152.769C87.324 153.882 86.991 154.881 86.5444 155.767C86.0978 156.645 85.5036 157.338 84.7617 157.845C84.0275 158.344 83.1835 158.594 82.2297 158.594C81.2533 158.594 80.3828 158.216 79.6183 157.459C78.8537 156.694 78.2747 155.718 77.8811 154.529C77.495 153.341 77.302 152.065 77.302 150.703C77.302 149.409 77.4118 148.216 77.6313 147.126C77.8584 146.036 78.1952 145.067 78.6418 144.22C79.096 143.364 79.6902 142.698 80.4244 142.221C81.1662 141.737 82.0178 141.495 82.9791 141.495C83.9632 141.495 84.8337 141.858 85.5906 142.585C86.3476 143.304 86.9191 144.239 87.3051 145.389C87.6911 146.54 87.8842 147.792 87.8842 149.147ZM79.0392 149.806C79.0392 150.714 79.1187 151.638 79.2776 152.576C79.4442 153.515 79.6788 154.393 79.9816 155.211C80.2844 156.028 80.6818 156.694 81.1738 157.209C81.6734 157.724 82.2184 157.981 82.8088 157.981C83.3084 157.981 83.755 157.788 84.1486 157.402C84.5498 157.008 84.8677 156.516 85.1024 155.926C85.3446 155.328 85.5414 154.65 85.6928 153.894C85.8518 153.137 85.9615 152.425 86.0221 151.759C86.0826 151.093 86.1129 150.457 86.1129 149.851C86.1129 148.943 86.0334 148.038 85.8745 147.138C85.7155 146.237 85.4884 145.408 85.1932 144.651C84.9056 143.887 84.5271 143.27 84.0578 142.8C83.596 142.324 83.0889 142.085 82.5363 142.085C82.0367 142.085 81.5826 142.255 81.1738 142.596C80.765 142.929 80.432 143.364 80.1746 143.902C79.9173 144.432 79.6977 145.045 79.5161 145.741C79.342 146.438 79.2171 147.126 79.1414 147.808C79.0733 148.481 79.0392 149.147 79.0392 149.806ZM92.5621 156.516L92.6075 156.619C93.2207 156.649 93.7959 156.672 94.3334 156.687C94.8784 156.702 95.3893 156.709 95.8662 156.709C96.4566 156.709 97.0054 156.679 97.5126 156.619C98.0273 156.558 98.4966 156.441 98.9205 156.267C99.352 156.092 99.738 155.846 100.079 155.529C100.419 155.211 100.711 154.79 100.953 154.268L101.282 154.404C101.055 155.199 100.915 155.699 100.862 155.903C100.809 156.108 100.696 156.486 100.521 157.039C100.355 157.591 100.245 157.936 100.192 158.072C100.147 158.201 100.105 158.303 100.067 158.378C99.8326 158.363 99.5147 158.348 99.1135 158.333C98.7123 158.318 98.2847 158.303 97.8305 158.288C97.3763 158.272 96.9222 158.261 96.468 158.254C96.0214 158.246 95.6316 158.242 95.2985 158.242C95.1244 158.242 94.2501 158.25 92.6757 158.265C91.1088 158.28 90.2496 158.288 90.0982 158.288L89.8598 157.89C92.5394 155.188 94.1441 153.523 94.674 152.894C95.2039 152.266 95.6732 151.657 96.0819 151.066C96.4983 150.468 96.8162 149.923 97.0357 149.431C97.1947 149.083 97.3233 148.765 97.4217 148.478C97.5277 148.182 97.6072 147.895 97.6602 147.615C97.7207 147.335 97.7624 147.051 97.7851 146.763C97.8078 146.468 97.8191 146.146 97.8191 145.798C97.8191 145.23 97.7434 144.742 97.5921 144.333C97.4407 143.917 97.2249 143.576 96.9449 143.311C96.6648 143.039 96.3204 142.842 95.9116 142.721C95.5029 142.592 95.0449 142.528 94.5378 142.528C94.2955 142.528 94.023 142.562 93.7203 142.63C93.425 142.698 93.126 142.793 92.8233 142.914C92.5205 143.027 92.2291 143.164 91.949 143.323C91.6765 143.482 91.438 143.648 91.2337 143.822L90.8817 143.482C91.1845 143.164 91.5175 142.884 91.8809 142.641C92.2518 142.399 92.634 142.199 93.0276 142.04C93.4213 141.881 93.8187 141.76 94.2198 141.676C94.6286 141.593 95.0222 141.551 95.4007 141.551C96.0744 141.551 96.6799 141.642 97.2174 141.824C97.7548 141.998 98.209 142.255 98.5799 142.596C98.9584 142.937 99.246 143.357 99.4428 143.856C99.6472 144.356 99.7494 144.927 99.7494 145.571C99.7494 146.086 99.6775 146.6 99.5336 147.115C99.3898 147.63 99.1968 148.137 98.9546 148.636C98.7199 149.129 98.4436 149.609 98.1257 150.078C97.8154 150.548 97.4937 150.998 97.1606 151.43C96.8275 151.854 96.4945 152.251 96.1614 152.622C95.8284 152.993 95.5218 153.33 95.2417 153.632L93.8452 155.131C93.3001 155.706 92.8725 156.168 92.5621 156.516ZM110.513 156.198V154.223C108.068 154.177 105.612 154.177 103.144 154.223L102.917 153.962C104.355 152.357 105.964 150.226 107.743 147.569C109.529 144.905 110.842 142.751 111.683 141.109L112.239 141.199C112.254 141.51 112.262 141.945 112.262 142.505V152.781H112.284C112.792 152.781 113.208 152.69 113.533 152.508C113.859 152.327 114.181 151.982 114.499 151.475L114.794 151.611L113.988 154.314C113.2 154.283 112.625 154.268 112.262 154.268V156.198C112.262 156.796 112.402 157.239 112.682 157.527C112.962 157.815 113.458 158.023 114.169 158.151L114.078 158.424C113.208 158.303 112.337 158.242 111.467 158.242C110.49 158.242 109.571 158.303 108.708 158.424L108.606 158.151C109.317 158.023 109.813 157.815 110.093 157.527C110.373 157.239 110.513 156.796 110.513 156.198ZM105.188 152.69C106.46 152.751 108.235 152.781 110.513 152.781V146.99C110.513 146.15 110.593 145.313 110.752 144.481L110.638 144.424C108.632 147.83 106.8 150.559 105.143 152.61L105.188 152.69Z" fill="black"/>
<defs>
<clipPath id="paint0_angular_530_2882_clip_path"><path d="M0.0625 6.44742C0.0625 2.88661 2.94911 0 6.50992 0H146.921H172.54C176.101 0 178.987 2.88661 178.987 6.44742V180.753C178.987 182.784 178.031 184.696 176.405 185.913L133.577 217.993C131.8 219.325 129.462 219.648 127.39 218.848L4.18842 171.298C1.70216 170.338 0.0625 167.948 0.0625 165.283V6.44742Z"/></clipPath></defs>
</svg>
