<svg width="33" height="26" viewBox="0 0 33 26" fill="none" xmlns="http://www.w3.org/2000/svg">
<path fill-rule="evenodd" clip-rule="evenodd" d="M0.930339 7.704C0.418509 7.17459 0.432768 6.33049 0.962187 5.81866C5.04042 1.87592 10.8549 0.0637237 16.5668 0.111511C22.2772 0.159287 28.0642 2.06639 32.1242 5.79525C32.6665 6.29336 32.7024 7.13682 32.2043 7.67917C31.7062 8.22151 30.8627 8.25737 30.3204 7.75926C26.8375 4.56048 21.7292 2.82146 16.5445 2.77808C11.361 2.73472 6.28031 4.38634 2.81569 7.73585C2.28627 8.24768 1.44217 8.23342 0.930339 7.704Z" fill="url(#paint0_linear_1_216)"/>
<path fill-rule="evenodd" clip-rule="evenodd" d="M6.28549 13.0591C5.76149 12.5417 5.75611 11.6975 6.27349 11.1735C8.97722 8.43511 12.8186 7.18916 16.5673 7.22201C20.3136 7.25485 24.1272 8.56488 26.8134 11.1495C27.344 11.66 27.3603 12.5041 26.8498 13.0347C26.3392 13.5654 25.4951 13.5816 24.9645 13.0711C22.8507 11.0372 19.7309 9.91651 16.5439 9.88858C13.3593 9.86067 10.2673 10.9239 8.17107 13.0471C7.6537 13.5711 6.80949 13.5764 6.28549 13.0591Z" fill="url(#paint1_linear_1_216)"/>
<path fill-rule="evenodd" clip-rule="evenodd" d="M11.6942 18.4618C11.1321 17.9861 11.0621 17.1447 11.5378 16.5826C14.1585 13.486 18.9965 13.6893 21.5512 16.5571C22.041 17.1069 21.9923 17.9497 21.4425 18.4396C20.8927 18.9294 20.0498 18.8807 19.56 18.3309C18.0004 16.5802 15.067 16.5404 13.5734 18.3053C13.0977 18.8674 12.2563 18.9375 11.6942 18.4618Z" fill="url(#paint2_linear_1_216)"/>
<path d="M18.7788 23.222C18.7788 24.4496 17.7837 25.4447 16.5561 25.4447C15.3285 25.4447 14.3334 24.4496 14.3334 23.222C14.3334 21.9944 15.3285 20.9993 16.5561 20.9993C17.7837 20.9993 18.7788 21.9944 18.7788 23.222Z" fill="url(#paint3_linear_1_216)"/>
<defs>
<linearGradient id="paint0_linear_1_216" x1="-5.61984" y1="8.55504" x2="-1.44285" y2="-10.4155" gradientUnits="userSpaceOnUse">
<stop stop-color="#009EF6"/>
<stop offset="1" stop-color="#00F6BB"/>
</linearGradient>
<linearGradient id="paint1_linear_1_216" x1="1.77199" y1="13.7893" x2="5.49996" y2="-0.723289" gradientUnits="userSpaceOnUse">
<stop stop-color="#009EF6"/>
<stop offset="1" stop-color="#00F6BB"/>
</linearGradient>
<linearGradient id="paint2_linear_1_216" x1="9.16374" y1="19.0243" x2="12.7378" y2="9.28531" gradientUnits="userSpaceOnUse">
<stop stop-color="#009EF6"/>
<stop offset="1" stop-color="#00F6BB"/>
</linearGradient>
<linearGradient id="paint3_linear_1_216" x1="14.0864" y1="20.1414" x2="20.3108" y2="25.6234" gradientUnits="userSpaceOnUse">
<stop stop-color="#009EF6"/>
<stop offset="1" stop-color="#00F6BB"/>
</linearGradient>
</defs>
</svg>
